<svg xmlns="http://www.w3.org/2000/svg" width="1200" height="1500" viewBox="0 0 1200 1500"><rect width="100%" height="100%" fill="#1f2937"/><path fill="#ffffff" d="M302.885 710.54v12.26h-24.2v67.99h-14.93V722.8h-24.2v-12.26zm19.2 45.23h25.87q0-2.66-.75-5.02t-2.25-4.14q-1.5-1.77-3.8-2.8-2.31-1.03-5.36-1.03-5.94 0-9.35 3.39-3.41 3.38-4.36 9.6m34.97 8.27h-35.25q.34 4.38 1.56 7.57 1.22 3.2 3.22 5.28t4.74 3.11q2.75 1.02 6.08 1.02t5.74-.77q2.42-.78 4.22-1.73 1.81-.94 3.17-1.72 1.36-.77 2.63-.77 1.72 0 2.56 1.27l3.94 5q-2.28 2.66-5.11 4.47-2.83 1.8-5.91 2.88t-6.27 1.53q-3.19.44-6.19.44-5.94 0-11.05-1.97-5.1-1.97-8.88-5.83-3.77-3.85-5.93-9.54-2.17-5.69-2.17-13.18 0-5.83 1.89-10.96 1.89-5.14 5.41-8.94t8.6-6.02 11.46-2.22q5.39 0 9.94 1.72t7.82 5.02q3.28 3.3 5.14 8.11 1.86 4.8 1.86 10.96 0 3.1-.67 4.19-.67 1.08-2.55 1.08m43.56 12.04v-9.6q-5.93.28-9.99 1.03-4.05.75-6.49 1.91-2.44 1.17-3.5 2.72-1.05 1.56-1.05 3.39 0 3.61 2.14 5.16 2.13 1.55 5.57 1.55 4.22 0 7.3-1.52 3.08-1.53 6.02-4.64m-28.97-29.91-2.44-4.39q9.83-8.99 23.64-8.99 5 0 8.94 1.64t6.66 4.55 4.13 6.97q1.42 4.05 1.42 8.88v35.96h-6.22q-1.94 0-2.99-.58-1.06-.59-1.67-2.36l-1.22-4.11q-2.16 1.94-4.22 3.41-2.05 1.48-4.27 2.47-2.22 1-4.75 1.53-2.52.53-5.57.53-3.61 0-6.66-.97-3.06-.97-5.28-2.92-2.22-1.94-3.44-4.83-1.22-2.88-1.22-6.71 0-2.17.72-4.3.73-2.14 2.36-4.08 1.64-1.94 4.25-3.66t6.41-3 8.85-2.08q5.05-.81 11.54-.97v-3.33q0-5.72-2.44-8.47-2.44-2.74-7.05-2.74-3.33 0-5.52.77-2.19.78-3.86 1.75-1.66.97-3.02 1.75t-3.02.78q-1.45 0-2.45-.75t-1.61-1.75m68.93 44.62h-13.7v-56.94h8.38q2.66 0 3.49 2.49l.89 4.22q1.5-1.66 3.14-3.05 1.63-1.39 3.49-2.39t4-1.58 4.69-.58q5.38 0 8.85 2.91 3.47 2.92 5.19 7.75 1.33-2.84 3.33-4.86 2-2.03 4.39-3.3 2.38-1.28 5.07-1.89 2.7-.61 5.41-.61 4.72 0 8.39 1.44 3.66 1.44 6.16 4.22 2.49 2.77 3.8 6.77 1.3 4 1.3 9.16v36.24h-13.71v-36.24q0-5.44-2.38-8.19-2.39-2.74-7-2.74-2.11 0-3.91.72t-3.16 2.08-2.14 3.41-.78 4.72v36.24h-13.76v-36.24q0-5.72-2.3-8.33-2.31-2.6-6.75-2.6-2.99 0-5.57 1.47-2.59 1.47-4.81 4.02zm184.15-80.25h11.27v80.25h-13.15v-51.84q0-3.11.33-6.71l-24.25 45.56q-1.72 3.28-5.28 3.28h-2.11q-3.55 0-5.27-3.28l-24.53-45.73q.17 1.83.28 3.61.11 1.77.11 3.27v51.84h-13.15v-80.25h11.26q1 0 1.72.05.72.06 1.31.28.58.22 1.05.72t.92 1.33l24.03 44.57q.94 1.78 1.75 3.66.8 1.89 1.58 3.89.78-2.06 1.61-3.97.83-1.92 1.77-3.69l23.7-44.46q.45-.83.95-1.33t1.08-.72 1.3-.28q.72-.05 1.72-.05m37.8 45.23h25.86q0-2.66-.75-5.02t-2.24-4.14q-1.5-1.77-3.81-2.8-2.3-1.03-5.35-1.03-5.94 0-9.35 3.39-3.42 3.38-4.36 9.6m34.96 8.27h-35.24q.33 4.38 1.56 7.57 1.22 3.2 3.21 5.28 2 2.08 4.75 3.11 2.75 1.02 6.08 1.02t5.74-.77q2.42-.78 4.22-1.73 1.8-.94 3.16-1.72 1.36-.77 2.64-.77 1.72 0 2.55 1.27l3.94 5q-2.27 2.66-5.1 4.47-2.83 1.8-5.91 2.88t-6.28 1.53q-3.19.44-6.18.44-5.94 0-11.05-1.97-5.1-1.97-8.88-5.83-3.77-3.85-5.94-9.54-2.16-5.69-2.16-13.18 0-5.83 1.89-10.96 1.88-5.14 5.41-8.94 3.52-3.8 8.6-6.02t11.46-2.22q5.38 0 9.93 1.72 4.56 1.72 7.83 5.02t5.13 8.11q1.86 4.8 1.86 10.96 0 3.1-.66 4.19-.67 1.08-2.56 1.08m27.2 26.75h-13.71v-56.94h8.38q2.67 0 3.5 2.49l.89 4.22q1.49-1.66 3.13-3.05t3.5-2.39 3.99-1.58q2.14-.58 4.69-.58 5.39 0 8.86 2.91 3.46 2.92 5.19 7.75 1.33-2.84 3.33-4.86 1.99-2.03 4.38-3.3 2.39-1.28 5.08-1.89t5.41-.61q4.72 0 8.38 1.44t6.16 4.22q2.5 2.77 3.8 6.77 1.31 4 1.31 9.16v36.24h-13.71v-36.24q0-5.44-2.39-8.19-2.39-2.74-6.99-2.74-2.11 0-3.91.72-1.81.72-3.17 2.08t-2.13 3.41q-.78 2.05-.78 4.72v36.24h-13.77v-36.24q0-5.72-2.3-8.33-2.3-2.6-6.74-2.6-3 0-5.58 1.47t-4.8 4.02zm92.96-40.29v25.53q2.33 2.83 5.08 3.99 2.75 1.17 5.8 1.17 3.16 0 5.69-1.14 2.52-1.14 4.3-3.55 1.78-2.42 2.72-6.16.94-3.75.94-8.96 0-9.38-3.11-13.57-3.1-4.19-8.93-4.19-3.94 0-6.88 1.8t-5.61 5.08m0-42.18v32.52q3.44-3.61 7.63-5.74 4.19-2.14 9.58-2.14 4.94 0 8.9 1.94 3.97 1.94 6.78 5.58 2.8 3.63 4.3 8.8 1.5 5.16 1.5 11.6 0 6.93-1.73 12.59-1.72 5.67-4.91 9.69t-7.68 6.24q-4.5 2.22-9.99 2.22-2.67 0-4.83-.52-2.17-.53-4-1.48-1.83-.94-3.36-2.3-1.52-1.36-2.91-3.02l-.61 3.83q-.33 1.44-1.14 2.05-.8.61-2.19.61h-9.05v-82.47zm60.11 47.45h25.86q0-2.66-.75-5.02t-2.25-4.14q-1.49-1.77-3.8-2.8-2.3-1.03-5.35-1.03-5.94 0-9.36 3.39-3.41 3.38-4.35 9.6m34.96 8.27h-35.24q.33 4.38 1.55 7.57 1.23 3.2 3.22 5.28 2 2.08 4.75 3.11 2.75 1.02 6.08 1.02t5.74-.77q2.41-.78 4.22-1.73 1.8-.94 3.16-1.72 1.36-.77 2.64-.77 1.72 0 2.55 1.27l3.94 5q-2.27 2.66-5.1 4.47-2.83 1.8-5.92 2.88-3.08 1.08-6.27 1.53-3.19.44-6.18.44-5.94 0-11.05-1.97t-8.88-5.83q-3.77-3.85-5.94-9.54-2.16-5.69-2.16-13.18 0-5.83 1.88-10.96 1.89-5.14 5.42-8.94 3.52-3.8 8.6-6.02t11.46-2.22q5.38 0 9.93 1.72t7.83 5.02q3.27 3.3 5.13 8.11 1.86 4.8 1.86 10.96 0 3.1-.66 4.19-.67 1.08-2.56 1.08m25.59-26.75.83 6.44q2.67-5.11 6.33-8.02 3.66-2.92 8.66-2.92 3.94 0 6.32 1.72l-.88 10.27q-.28 1-.81 1.42-.53.41-1.41.41-.84 0-2.47-.28-1.64-.27-3.2-.27-2.27 0-4.05.66-1.77.67-3.19 1.92-1.41 1.25-2.5 3.02-1.08 1.78-2.02 4.05v35.08h-13.71v-56.94h8.05q2.11 0 2.94.75t1.11 2.69"/></svg>