<svg xmlns="http://www.w3.org/2000/svg" width="2400" height="900" viewBox="0 0 2400 900"><rect width="100%" height="100%" fill="#1f2937"/><path fill="#ffffff" d="M562.61 408.475h9.92l-21.11 67.96H540l-14.85-46.44q-.61-1.69-1.13-4.13-.28 1.17-.56 2.21-.28 1.03-.61 1.92l-14.99 46.44h-11.47l-21.06-67.96h10.58q1.64 0 2.75.77 1.1.78 1.48 2.1l11.56 40.65q.37 1.5.73 3.27.35 1.76.73 3.69.37-1.98.82-3.72.44-1.74.96-3.24l13.35-40.65q.38-1.09 1.48-1.98t2.7-.89h3.72q1.64 0 2.67.8 1.04.8 1.56 2.07l13.3 40.65q.98 2.91 1.78 6.72.61-3.71 1.37-6.72l11.56-40.65q.28-1.18 1.43-2.03 1.15-.84 2.75-.84m41.92 55.5v-8.13q-5.02.24-8.46.87-3.43.64-5.49 1.63-2.07.98-2.97 2.3-.89 1.31-.89 2.86 0 3.06 1.81 4.38 1.81 1.31 4.72 1.31 3.58 0 6.19-1.29 2.6-1.29 5.09-3.93M580 438.645l-2.07-3.71q8.32-7.62 20.02-7.62 4.23 0 7.57 1.39t5.64 3.86q2.3 2.46 3.5 5.89t1.2 7.52v30.46h-5.26q-1.65 0-2.54-.49-.89-.5-1.41-2l-1.03-3.48q-1.84 1.65-3.58 2.89-1.74 1.25-3.62 2.09-1.88.85-4.01 1.3-2.14.44-4.73.44-3.05 0-5.64-.82-2.58-.82-4.46-2.47-1.88-1.64-2.92-4.09-1.03-2.44-1.03-5.68 0-1.84.61-3.65t2-3.45q1.38-1.65 3.59-3.1 2.21-1.46 5.43-2.54t7.5-1.76q4.28-.69 9.77-.83v-2.82q0-4.84-2.06-7.16-2.07-2.33-5.97-2.33-2.82 0-4.68.66t-3.27 1.48-2.56 1.48-2.56.66q-1.22 0-2.07-.64-.84-.63-1.36-1.48m57.01-7.52.71 5.45q2.25-4.32 5.35-6.79 3.11-2.47 7.34-2.47 3.33 0 5.35 1.46l-.75 8.7q-.23.84-.68 1.2-.45.35-1.2.35-.7 0-2.09-.24-1.39-.23-2.7-.23-1.93 0-3.43.56-1.51.57-2.7 1.62-1.2 1.06-2.12 2.57-.92 1.5-1.72 3.43v29.7h-11.6v-48.22h6.81q1.79 0 2.49.63.71.64.94 2.28m33.98 15.65h21.9q0-2.25-.63-4.25t-1.9-3.5q-1.27-1.51-3.22-2.38t-4.54-.87q-5.03 0-7.92 2.87t-3.69 8.13m29.61 7.01h-29.84q.28 3.71 1.31 6.41 1.04 2.7 2.73 4.47 1.69 1.76 4.02 2.63 2.32.87 5.14.87t4.87-.66q2.04-.66 3.57-1.46t2.68-1.45q1.15-.66 2.23-.66 1.46 0 2.16 1.08l3.34 4.23q-1.93 2.26-4.32 3.78-2.4 1.53-5.01 2.45-2.61.91-5.31 1.29-2.7.37-5.24.37-5.03 0-9.35-1.66-4.33-1.67-7.52-4.94-3.2-3.26-5.03-8.08t-1.83-11.16q0-4.94 1.59-9.29 1.6-4.34 4.59-7.56 2.98-3.22 7.28-5.1t9.71-1.88q4.56 0 8.41 1.45 3.85 1.46 6.63 4.26 2.77 2.79 4.34 6.86 1.58 4.06 1.58 9.28 0 2.63-.57 3.55-.56.92-2.16.92m23.03-47.19v26.79q2.82-2.63 6.21-4.28 3.38-1.64 7.94-1.64 3.95 0 7 1.34 3.06 1.33 5.1 3.76 2.05 2.42 3.1 5.78 1.06 3.36 1.06 7.4v30.69h-11.61v-30.69q0-4.42-2.02-6.84t-6.16-2.42q-3 0-5.64 1.36-2.63 1.37-4.98 3.72v34.87h-11.61v-69.84zm62.75 20.87q5.36 0 9.75 1.74 4.39 1.73 7.52 4.93t4.82 7.8q1.69 4.61 1.69 10.3 0 5.73-1.69 10.33-1.69 4.61-4.82 7.85-3.13 3.25-7.52 4.99-4.39 1.73-9.75 1.73-5.41 0-9.83-1.73-4.41-1.74-7.54-4.99-3.12-3.24-4.84-7.85-1.72-4.6-1.72-10.33 0-5.69 1.72-10.3 1.72-4.6 4.84-7.8 3.13-3.2 7.54-4.93 4.42-1.74 9.83-1.74m0 40.75q6.01 0 8.9-4.05 2.89-4.04 2.89-11.84t-2.89-11.89-8.9-4.09q-6.11 0-9.05 4.11t-2.94 11.87q0 7.75 2.94 11.82t9.05 4.07m62.6-40h11.61v48.22h-7.1q-2.3 0-2.91-2.12l-.8-3.85q-2.96 3.01-6.53 4.87-3.57 1.85-8.42 1.85-3.94 0-6.97-1.34-3.04-1.34-5.1-3.78-2.07-2.45-3.13-5.81t-1.06-7.4v-30.64h11.61v30.64q0 4.42 2.05 6.84 2.04 2.42 6.13 2.42 3.01 0 5.64-1.34t4.98-3.69zm55.13 5.21-2.63 4.19q-.47.75-.99 1.06-.51.3-1.31.3-.85 0-1.81-.47-.97-.47-2.23-1.06-1.27-.58-2.89-1.05-1.63-.47-3.84-.47-3.43 0-5.38 1.45-1.95 1.46-1.95 3.81 0 1.55 1.01 2.61t2.68 1.85q1.67.8 3.79 1.44 2.11.63 4.3 1.39 2.18.75 4.3 1.71 2.11.96 3.78 2.44 1.67 1.49 2.68 3.55 1.01 2.07 1.01 4.98 0 3.48-1.25 6.42-1.24 2.94-3.69 5.08-2.44 2.13-6.03 3.33-3.6 1.2-8.3 1.2-2.49 0-4.86-.44-2.38-.45-4.56-1.25-2.19-.8-4.05-1.88-1.85-1.08-3.26-2.35l2.68-4.42q.51-.8 1.22-1.22.7-.42 1.78-.42 1.09 0 2.05.61t2.23 1.31q1.27.71 2.99 1.32 1.71.61 4.34.61 2.07 0 3.55-.49 1.48-.5 2.45-1.29.96-.8 1.41-1.86.44-1.06.44-2.19 0-1.69-1.01-2.77t-2.68-1.88-3.8-1.43q-2.14-.64-4.37-1.39-2.24-.75-4.38-1.76-2.13-1.01-3.8-2.56t-2.68-3.81-1.01-5.45q0-2.96 1.17-5.64 1.18-2.68 3.46-4.68t5.68-3.2q3.41-1.19 7.88-1.19 4.98 0 9.07 1.64 4.09 1.65 6.81 4.32m18.43 13.35h21.9q0-2.25-.64-4.25-.63-2-1.9-3.5-1.27-1.51-3.22-2.38t-4.53-.87q-5.03 0-7.92 2.87t-3.69 8.13m29.61 7.01H922.3q.28 3.71 1.32 6.41 1.03 2.7 2.72 4.47 1.7 1.76 4.02 2.63 2.33.87 5.15.87t4.86-.66q2.05-.66 3.58-1.46 1.52-.8 2.67-1.45 1.16-.66 2.24-.66 1.45 0 2.16 1.08l3.34 4.23q-1.93 2.26-4.33 3.78-2.4 1.53-5 2.45-2.61.91-5.31 1.29-2.71.37-5.25.37-5.02 0-9.35-1.66-4.32-1.67-7.52-4.94-3.19-3.26-5.03-8.08-1.83-4.82-1.83-11.16 0-4.94 1.6-9.29 1.6-4.34 4.58-7.56t7.29-5.1q4.3-1.88 9.7-1.88 4.56 0 8.41 1.45 3.86 1.46 6.63 4.26 2.77 2.79 4.35 6.86 1.57 4.06 1.57 9.28 0 2.63-.56 3.55-.57.92-2.16.92m78.96-35.25h-30.18v20.11h25.48v10.11h-25.48v27.68h-12.69v-67.96h42.87zm33.98 45.44v-8.13q-5.03.24-8.46.87-3.43.64-5.5 1.63-2.07.98-2.96 2.3-.9 1.31-.9 2.86 0 3.06 1.81 4.38 1.81 1.31 4.73 1.31 3.57 0 6.18-1.29t5.1-3.93m-24.54-25.33-2.06-3.71q8.31-7.62 20.02-7.62 4.23 0 7.56 1.39 3.34 1.39 5.64 3.86 2.31 2.46 3.51 5.89 1.19 3.43 1.19 7.52v30.46h-5.26q-1.64 0-2.54-.49-.89-.5-1.41-2l-1.03-3.48q-1.83 1.65-3.57 2.89-1.74 1.25-3.62 2.09-1.88.85-4.02 1.3-2.14.44-4.72.44-3.06 0-5.64-.82-2.59-.82-4.47-2.47-1.88-1.64-2.91-4.09-1.04-2.44-1.04-5.68 0-1.84.61-3.65t2-3.45q1.39-1.65 3.6-3.1 2.21-1.46 5.43-2.54 3.21-1.08 7.49-1.76 4.28-.69 9.78-.83v-2.82q0-4.84-2.07-7.16-2.07-2.33-5.97-2.33-2.82 0-4.68.66-1.85.66-3.26 1.48t-2.56 1.48q-1.16.66-2.57.66-1.22 0-2.06-.64-.85-.63-1.37-1.48m84.37-4.46-3.06 4.23q-.51.65-1.01 1.03-.49.38-1.43.38-.89 0-1.74-.54t-2.02-1.23q-1.18-.68-2.8-1.22t-4.02-.54q-3.05 0-5.35 1.11-2.31 1.1-3.83 3.17-1.53 2.07-2.28 5-.76 2.94-.76 6.66 0 3.85.83 6.86.82 3 2.37 5.05 1.55 2.04 3.76 3.1t4.98 1.06q2.78 0 4.49-.68 1.72-.68 2.89-1.51 1.18-.82 2.05-1.5t1.95-.68q1.41 0 2.11 1.08l3.34 4.23q-1.93 2.26-4.18 3.78-2.26 1.53-4.68 2.45-2.42.91-4.98 1.29-2.56.37-5.1.37-4.47 0-8.42-1.66-3.94-1.67-6.9-4.87-2.97-3.19-4.68-7.82-1.72-4.63-1.72-10.55 0-5.32 1.53-9.85 1.53-4.54 4.49-7.85t7.33-5.19 10.06-1.88q5.4 0 9.47 1.74 4.07 1.73 7.31 4.98m8.08-5.97h11.66v48.22H1133zm13.26-14.05q0 1.5-.61 2.82-.62 1.31-1.63 2.3t-2.37 1.57q-1.36.59-2.91.59-1.51 0-2.85-.59-1.34-.58-2.32-1.57-.99-.99-1.58-2.3-.59-1.32-.59-2.82 0-1.56.59-2.92t1.58-2.35q.98-.99 2.32-1.57 1.34-.59 2.85-.59 1.55 0 2.91.59 1.36.58 2.37 1.57t1.63 2.35q.61 1.36.61 2.92m10.38-7.57h11.61v69.84h-11.61zm23.6 21.62h11.65v48.22h-11.65zm13.25-14.05q0 1.5-.61 2.82-.61 1.31-1.62 2.3t-2.37 1.57q-1.37.59-2.92.59-1.5 0-2.84-.59-1.34-.58-2.33-1.57t-1.57-2.3q-.59-1.32-.59-2.82 0-1.56.59-2.92.58-1.36 1.57-2.35t2.33-1.57q1.34-.59 2.84-.59 1.55 0 2.92.59 1.36.58 2.37 1.57t1.62 2.35.61 2.92m26.32 63.02q-6.3 0-9.66-3.55-3.36-3.54-3.36-9.8v-26.93h-4.93q-.94 0-1.6-.61t-.66-1.83v-4.61l7.76-1.27 2.44-13.16q.24-.94.89-1.45.66-.52 1.7-.52h6.01v15.18h12.88v8.27h-12.88v26.14q0 2.25 1.11 3.52 1.1 1.27 3.03 1.27 1.08 0 1.81-.26t1.27-.54.96-.54.85-.26q.51 0 .84.26t.71.78l3.47 5.64q-2.53 2.11-5.82 3.19t-6.82 1.08m19.27-48.97h11.66v48.22h-11.66zm13.26-14.05q0 1.5-.62 2.82-.61 1.31-1.62 2.3t-2.37 1.57q-1.36.59-2.91.59-1.51 0-2.85-.59-1.34-.58-2.32-1.57-.99-.99-1.58-2.3-.59-1.32-.59-2.82 0-1.56.59-2.92t1.58-2.35q.98-.99 2.32-1.57 1.34-.59 2.85-.59 1.55 0 2.91.59 1.36.58 2.37 1.57t1.62 2.35q.62 1.36.62 2.92m19.41 32.61h21.9q0-2.25-.64-4.25-.63-2-1.9-3.5-1.27-1.51-3.22-2.38t-4.53-.87q-5.03 0-7.92 2.87t-3.69 8.13m29.61 7.01h-29.85q.28 3.71 1.32 6.41 1.03 2.7 2.72 4.47 1.7 1.76 4.02 2.63 2.33.87 5.15.87t4.86-.66q2.05-.66 3.58-1.46 1.52-.8 2.67-1.45 1.16-.66 2.24-.66 1.45 0 2.16 1.08l3.34 4.23q-1.93 2.26-4.33 3.78-2.4 1.53-5 2.45-2.61.91-5.31 1.29-2.71.37-5.25.37-5.02 0-9.35-1.66-4.32-1.67-7.52-4.94-3.19-3.26-5.03-8.08-1.83-4.82-1.83-11.16 0-4.94 1.6-9.29 1.6-4.34 4.58-7.56t7.29-5.1q4.3-1.88 9.7-1.88 4.56 0 8.41 1.45 3.86 1.46 6.63 4.26 2.77 2.79 4.35 6.86 1.57 4.06 1.57 9.28 0 2.63-.56 3.55-.57.92-2.16.92m43.47-20.36-2.63 4.19q-.47.75-.99 1.06-.51.3-1.31.3-.85 0-1.81-.47-.97-.47-2.24-1.06-1.26-.58-2.89-1.05-1.62-.47-3.83-.47-3.43 0-5.38 1.45-1.95 1.46-1.95 3.81 0 1.55 1.01 2.61t2.68 1.85q1.67.8 3.78 1.44 2.12.63 4.31 1.39 2.18.75 4.3 1.71 2.11.96 3.78 2.44 1.67 1.49 2.68 3.55 1.01 2.07 1.01 4.98 0 3.48-1.25 6.42-1.24 2.94-3.69 5.08-2.44 2.13-6.04 3.33-3.59 1.2-8.29 1.2-2.49 0-4.87-.44-2.37-.45-4.55-1.25-2.19-.8-4.05-1.88-1.85-1.08-3.26-2.35l2.68-4.42q.51-.8 1.22-1.22.7-.42 1.78-.42t2.05.61q.96.61 2.23 1.31 1.27.71 2.99 1.32 1.71.61 4.34.61 2.07 0 3.55-.49 1.48-.5 2.45-1.29.96-.8 1.41-1.86.44-1.06.44-2.19 0-1.69-1.01-2.77t-2.68-1.88-3.8-1.43q-2.14-.64-4.38-1.39-2.23-.75-4.37-1.76t-3.8-2.56q-1.67-1.55-2.68-3.81t-1.01-5.45q0-2.96 1.17-5.64 1.18-2.68 3.46-4.68t5.68-3.2q3.41-1.19 7.88-1.19 4.98 0 9.07 1.64 4.09 1.65 6.81 4.32m98.09-24.95h9.54v67.96h-11.14v-43.9q0-2.63.28-5.69l-20.53 38.59q-1.46 2.78-4.47 2.78h-1.79q-3 0-4.46-2.78l-20.77-38.73q.14 1.56.23 3.06t.09 2.77v43.9h-11.13v-67.96h9.54q.84 0 1.45.04.61.05 1.11.24.49.19.89.61t.78 1.13l20.35 37.74q.8 1.5 1.48 3.1t1.34 3.29q.66-1.74 1.36-3.36.71-1.62 1.5-3.12l20.07-37.65q.38-.71.8-1.13.43-.42.92-.61t1.1-.24q.61-.04 1.46-.04m48.32 55.5v-8.13q-5.03.24-8.46.87-3.43.64-5.5 1.63-2.07.98-2.96 2.3-.9 1.31-.9 2.86 0 3.06 1.81 4.38 1.81 1.31 4.73 1.31 3.57 0 6.18-1.29t5.1-3.93m-24.54-25.33-2.07-3.71q8.32-7.62 20.03-7.62 4.23 0 7.56 1.39 3.34 1.39 5.64 3.86 2.31 2.46 3.51 5.89 1.19 3.43 1.19 7.52v30.46h-5.26q-1.65 0-2.54-.49-.89-.5-1.41-2l-1.03-3.48q-1.84 1.65-3.57 2.89-1.74 1.25-3.62 2.09-1.88.85-4.02 1.3-2.14.44-4.73.44-3.05 0-5.64-.82-2.58-.82-4.46-2.47-1.88-1.64-2.91-4.09-1.04-2.44-1.04-5.68 0-1.84.61-3.65t2-3.45q1.39-1.65 3.6-3.1 2.2-1.46 5.42-2.54t7.5-1.76q4.28-.69 9.78-.83v-2.82q0-4.84-2.07-7.16-2.07-2.33-5.97-2.33-2.82 0-4.68.66-1.85.66-3.26 1.48t-2.56 1.48q-1.16.66-2.57.66-1.22 0-2.06-.64-.85-.63-1.37-1.48m56.83-8.32.79 3.81q1.46-1.46 3.08-2.7 1.62-1.25 3.43-2.12t3.88-1.36 4.51-.49q3.95 0 7.01 1.34 3.05 1.33 5.1 3.76 2.04 2.42 3.1 5.78t1.06 7.4v30.69h-11.61v-30.69q0-4.42-2.02-6.84-2.03-2.42-6.16-2.42-3.01 0-5.64 1.36-2.63 1.37-4.98 3.72v34.87h-11.61v-48.22h7.09q2.26 0 2.97 2.11m68.43 33.65v-8.13q-5.03.24-8.46.87-3.43.64-5.5 1.63-2.07.98-2.96 2.3-.9 1.31-.9 2.86 0 3.06 1.81 4.38 1.81 1.31 4.73 1.31 3.57 0 6.18-1.29t5.1-3.93m-24.54-25.33-2.06-3.71q8.31-7.62 20.02-7.62 4.23 0 7.56 1.39 3.34 1.39 5.64 3.86 2.31 2.46 3.51 5.89 1.19 3.43 1.19 7.52v30.46h-5.26q-1.64 0-2.54-.49-.89-.5-1.41-2l-1.03-3.48q-1.83 1.65-3.57 2.89-1.74 1.25-3.62 2.09-1.88.85-4.02 1.3-2.14.44-4.72.44-3.06 0-5.64-.82-2.59-.82-4.47-2.47-1.88-1.64-2.91-4.09-1.04-2.44-1.04-5.68 0-1.84.61-3.65t2-3.45q1.39-1.65 3.6-3.1 2.21-1.46 5.43-2.54 3.21-1.08 7.49-1.76 4.28-.69 9.78-.83v-2.82q0-4.84-2.07-7.16-2.07-2.33-5.97-2.33-2.82 0-4.68.66-1.85.66-3.26 1.48t-2.56 1.48q-1.16.66-2.57.66-1.22 0-2.06-.64-.85-.63-1.37-1.48m64.39 12.5q2.17 0 3.76-.58 1.6-.59 2.66-1.63 1.06-1.03 1.6-2.49.54-1.45.54-3.19 0-3.57-2.14-5.67-2.14-2.09-6.42-2.09-4.27 0-6.41 2.09-2.14 2.1-2.14 5.67 0 1.69.54 3.15.54 1.45 1.6 2.51t2.68 1.65q1.62.58 3.73.58m13.12 27.45q0-1.41-.85-2.3t-2.3-1.39q-1.46-.49-3.41-.73-1.95-.23-4.14-.35-2.18-.12-4.51-.21-2.32-.09-4.53-.38-1.93 1.08-3.13 2.54t-1.2 3.39q0 1.27.64 2.37.63 1.1 2.02 1.9 1.38.8 3.59 1.25t5.41.45q3.24 0 5.59-.5 2.35-.49 3.88-1.36t2.23-2.07q.71-1.2.71-2.61m-2.31-48.74h13.87v4.33q0 2.06-2.49 2.53l-4.33.8q.99 2.5.99 5.46 0 3.57-1.43 6.46-1.44 2.89-3.97 4.91-2.54 2.02-6 3.13-3.45 1.1-7.45 1.1-1.41 0-2.72-.14-1.32-.14-2.59-.38-2.25 1.37-2.25 3.06 0 1.45 1.34 2.14 1.34.68 3.54.96 2.21.28 5.03.35t5.78.31q2.97.23 5.79.82t5.02 1.86q2.21 1.27 3.55 3.45 1.34 2.19 1.34 5.62 0 3.19-1.57 6.2-1.58 3.01-4.56 5.36-2.99 2.35-7.33 3.78-4.35 1.44-9.9 1.44-5.45 0-9.49-1.06t-6.72-2.82-4-4.07q-1.31-2.3-1.31-4.79 0-3.38 2.04-5.66 2.05-2.28 5.62-3.65-1.93-.98-3.06-2.63-1.12-1.64-1.12-4.32 0-1.08.4-2.23.39-1.16 1.17-2.28.78-1.13 1.95-2.14 1.18-1.01 2.77-1.81-3.66-1.98-5.75-5.27-2.1-3.29-2.1-7.7 0-3.58 1.44-6.47 1.43-2.89 3.99-4.93 2.56-2.05 6.07-3.13 3.5-1.08 7.63-1.08 3.11 0 5.83.64 2.73.63 4.98 1.85m30.37 16.92h21.9q0-2.25-.64-4.25-.63-2-1.9-3.5-1.27-1.51-3.22-2.38t-4.54-.87q-5.02 0-7.91 2.87-2.9 2.87-3.69 8.13m29.61 7.01h-29.85q.28 3.71 1.32 6.41 1.03 2.7 2.72 4.47 1.69 1.76 4.02 2.63t5.15.87 4.86-.66q2.05-.66 3.57-1.46 1.53-.8 2.68-1.45 1.15-.66 2.24-.66 1.45 0 2.16 1.08l3.33 4.23q-1.92 2.26-4.32 3.78-2.4 1.53-5 2.45-2.61.91-5.32 1.29-2.7.37-5.24.37-5.03 0-9.35-1.66-4.32-1.67-7.52-4.94-3.2-3.26-5.03-8.08t-1.83-11.16q0-4.94 1.6-9.29 1.59-4.34 4.58-7.56 2.98-3.22 7.28-5.1t9.71-1.88q4.56 0 8.41 1.45 3.86 1.46 6.63 4.26 2.77 2.79 4.35 6.86 1.57 4.06 1.57 9.28 0 2.63-.56 3.55-.57.92-2.16.92m23.03 22.65h-11.61v-48.22h7.09q2.26 0 2.96 2.11l.76 3.58q1.27-1.42 2.65-2.59 1.39-1.18 2.96-2.02 1.58-.85 3.39-1.34t3.97-.49q4.56 0 7.5 2.46 2.93 2.47 4.39 6.56 1.13-2.4 2.82-4.11 1.69-1.72 3.71-2.8t4.3-1.6q2.28-.51 4.59-.51 3.99 0 7.09 1.22t5.22 3.57q2.11 2.35 3.22 5.73 1.1 3.39 1.1 7.76v30.69h-11.61v-30.69q0-4.61-2.02-6.93-2.02-2.33-5.92-2.33-1.78 0-3.31.61t-2.68 1.76q-1.15 1.16-1.81 2.89-.66 1.74-.66 4v30.69h-11.65v-30.69q0-4.84-1.95-7.05-1.96-2.21-5.72-2.21-2.53 0-4.72 1.25-2.18 1.24-4.06 3.4zm76.28-29.66h21.9q0-2.25-.64-4.25-.63-2-1.9-3.5-1.27-1.51-3.22-2.38t-4.53-.87q-5.03 0-7.92 2.87t-3.69 8.13m29.61 7.01h-29.85q.28 3.71 1.32 6.41 1.03 2.7 2.72 4.47 1.7 1.76 4.02 2.63 2.33.87 5.15.87t4.86-.66q2.05-.66 3.58-1.46 1.52-.8 2.67-1.45 1.16-.66 2.24-.66 1.45 0 2.16 1.08l3.34 4.23q-1.93 2.26-4.33 3.78-2.4 1.53-5 2.45-2.61.91-5.31 1.29-2.71.37-5.25.37-5.02 0-9.35-1.66-4.32-1.67-7.52-4.94-3.19-3.26-5.03-8.08-1.83-4.82-1.83-11.16 0-4.94 1.6-9.29 1.6-4.34 4.58-7.56t7.29-5.1q4.3-1.88 9.7-1.88 4.56 0 8.41 1.45 3.86 1.46 6.63 4.26 2.77 2.79 4.35 6.86 1.57 4.06 1.57 9.28 0 2.63-.56 3.55-.57.92-2.16.92m21.48-23.46.79 3.81q1.46-1.46 3.08-2.7 1.62-1.25 3.43-2.12t3.88-1.36 4.51-.49q3.95 0 7.01 1.34 3.05 1.33 5.1 3.76 2.04 2.42 3.1 5.78t1.06 7.4v30.69h-11.61v-30.69q0-4.42-2.02-6.84-2.03-2.42-6.16-2.42-3.01 0-5.64 1.36-2.63 1.37-4.98 3.72v34.87h-11.61v-48.22h7.09q2.26 0 2.97 2.11m59.03 46.86q-6.3 0-9.66-3.55-3.36-3.54-3.36-9.8v-26.93h-4.94q-.94 0-1.59-.61-.66-.61-.66-1.83v-4.61l7.75-1.27 2.45-13.16q.23-.94.89-1.45.66-.52 1.69-.52h6.02v15.18h12.88v8.27h-12.88v26.14q0 2.25 1.1 3.52 1.11 1.27 3.03 1.27 1.08 0 1.81-.26t1.27-.54.97-.54q.42-.26.84-.26.52 0 .85.26t.7.78l3.48 5.64q-2.54 2.11-5.83 3.19t-6.81 1.08"/></svg>