<svg xmlns="http://www.w3.org/2000/svg" width="1200" height="900" viewBox="0 0 1200 900"><rect width="100%" height="100%" fill="#1f2937"/><path fill="#ffffff" d="m296.18 406.18-3.92 7.43q-.7 1.23-1.49 1.79-.79.55-1.96.55-1.23 0-2.66-.9-1.43-.91-3.42-2.02t-4.65-2.02-6.29-.91q-3.28 0-5.73.79-2.46.79-4.13 2.2-1.67 1.4-2.49 3.36-.81 1.96-.81 4.3 0 2.98 1.66 4.97 1.67 1.99 4.42 3.4 2.75 1.4 6.26 2.51t7.2 2.37q3.68 1.26 7.19 2.93 3.51 1.66 6.26 4.21 2.75 2.54 4.42 6.23 1.66 3.68 1.66 8.95 0 5.73-1.96 10.73-1.96 5.01-5.73 8.72-3.77 3.72-9.21 5.85-5.44 2.14-12.46 2.14-4.04 0-7.96-.79t-7.52-2.26q-3.59-1.46-6.75-3.51-3.16-2.04-5.62-4.56l4.62-7.55q.59-.81 1.52-1.37.94-.56 1.99-.56 1.47 0 3.16 1.2 1.7 1.2 4.04 2.66 2.34 1.47 5.47 2.67t7.52 1.2q6.72 0 10.41-3.19 3.68-3.19 3.68-9.16 0-3.33-1.66-5.44-1.67-2.1-4.42-3.54-2.75-1.43-6.26-2.43-3.51-.99-7.14-2.16-3.62-1.17-7.13-2.81t-6.26-4.27-4.42-6.58-1.67-9.74q0-4.62 1.85-9.01 1.84-4.39 5.35-7.78t8.66-5.44q5.14-2.05 11.81-2.05 7.49 0 13.81 2.34t10.76 6.55m24.34 39.73h27.26q0-2.81-.79-5.3-.79-2.48-2.37-4.36-1.58-1.87-4.01-2.95-2.42-1.08-5.64-1.08-6.26 0-9.86 3.57-3.6 3.56-4.59 10.12m36.85 8.71h-37.14q.35 4.62 1.63 7.99 1.29 3.36 3.4 5.56 2.1 2.19 5 3.27t6.41 1.08 6.05-.82q2.54-.81 4.45-1.81 1.9-.99 3.33-1.81t2.78-.82q1.81 0 2.69 1.34l4.15 5.27q-2.39 2.81-5.38 4.71-2.98 1.9-6.23 3.04t-6.61 1.61-6.52.47q-6.26 0-11.64-2.08-5.39-2.08-9.36-6.14-3.98-4.07-6.26-10.06-2.28-6-2.28-13.9 0-6.14 1.98-11.55 1.99-5.41 5.71-9.42 3.71-4.01 9.07-6.35 5.35-2.34 12.08-2.34 5.67 0 10.47 1.82 4.79 1.81 8.25 5.29 3.45 3.48 5.41 8.54t1.96 11.56q0 3.27-.7 4.41-.71 1.14-2.7 1.14m26.97-28.19.88 6.78q2.81-5.38 6.67-8.45t9.13-3.07q4.15 0 6.66 1.81l-.93 10.82q-.29 1.06-.85 1.5-.56.43-1.49.43-.88 0-2.61-.29-1.72-.29-3.36-.29-2.4 0-4.27.7t-3.36 2.02-2.64 3.19q-1.14 1.87-2.13 4.27v36.97h-14.45V422.8h8.48q2.23 0 3.1.79.88.79 1.17 2.84m73.6-3.63h11.4l-23.81 60.02h-13.1l-23.81-60.02h11.93q1.64 0 2.72.76 1.09.76 1.44 1.93l11.58 32.06q.94 2.81 1.64 5.5t1.23 5.38q.58-2.69 1.28-5.38.71-2.69 1.7-5.5l11.82-32.06q.41-1.17 1.46-1.93t2.52-.76m19.53 0h14.51v60.02h-14.51zm16.5-17.49q0 1.87-.76 3.51t-2.02 2.86q-1.25 1.23-2.95 1.96t-3.63.73q-1.87 0-3.54-.73-1.66-.73-2.89-1.96-1.23-1.22-1.96-2.86t-.73-3.51q0-1.93.73-3.63t1.96-2.92q1.23-1.23 2.89-1.96 1.67-.74 3.54-.74 1.93 0 3.63.74 1.7.73 2.95 1.96 1.26 1.22 2.02 2.92t.76 3.63m59.55 24.92-3.8 5.26q-.64.82-1.26 1.29-.61.47-1.78.47-1.11 0-2.16-.67-1.06-.68-2.52-1.53-1.46-.84-3.48-1.52-2.02-.67-5-.67-3.8 0-6.67 1.38-2.87 1.37-4.77 3.94-1.9 2.58-2.84 6.23-.93 3.66-.93 8.28 0 4.8 1.02 8.54 1.03 3.75 2.96 6.29 1.93 2.55 4.68 3.86 2.75 1.32 6.2 1.32t5.58-.85q2.14-.85 3.6-1.87t2.55-1.87q1.08-.85 2.42-.85 1.76 0 2.64 1.34l4.15 5.27q-2.4 2.81-5.21 4.71-2.8 1.9-5.82 3.04-3.01 1.14-6.2 1.61t-6.35.47q-5.55 0-10.47-2.08-4.91-2.08-8.6-6.05-3.68-3.98-5.82-9.74-2.13-5.77-2.13-13.14 0-6.61 1.9-12.25 1.9-5.65 5.59-9.77 3.68-4.13 9.12-6.47t12.52-2.34q6.73 0 11.79 2.17 5.06 2.16 9.09 6.2m21.01 15.68h27.26q0-2.81-.79-5.3-.79-2.48-2.37-4.36-1.58-1.87-4.01-2.95t-5.64-1.08q-6.26 0-9.86 3.57-3.6 3.56-4.59 10.12m36.85 8.71h-37.15q.35 4.62 1.64 7.99 1.29 3.36 3.39 5.56 2.11 2.19 5.01 3.27 2.89 1.08 6.4 1.08t6.06-.82q2.54-.81 4.44-1.81 1.9-.99 3.34-1.81 1.43-.82 2.78-.82 1.81 0 2.69 1.34l4.15 5.27q-2.4 2.81-5.38 4.71t-6.23 3.04-6.61 1.61q-3.37.47-6.52.47-6.26 0-11.65-2.08-5.38-2.08-9.36-6.14-3.97-4.07-6.26-10.06-2.28-6-2.28-13.9 0-6.14 1.99-11.55t5.71-9.42q3.71-4.01 9.06-6.35 5.36-2.34 12.08-2.34 5.68 0 10.47 1.82 4.8 1.81 8.25 5.29t5.41 8.54 1.96 11.56q0 3.27-.7 4.41t-2.69 1.14m60.72-56.39v84.59h-15.79v-84.59zm31.07 84.59h-14.45V422.8h8.83q2.81 0 3.69 2.63l.93 4.45q1.58-1.76 3.31-3.22 1.72-1.46 3.68-2.52 1.96-1.05 4.22-1.66 2.25-.62 4.94-.62 5.67 0 9.33 3.07 3.66 3.08 5.47 8.16 1.4-2.98 3.51-5.11 2.11-2.14 4.62-3.48 2.52-1.35 5.35-1.99 2.84-.65 5.71-.65 4.97 0 8.83 1.52t6.49 4.45q2.64 2.92 4.01 7.14 1.38 4.21 1.38 9.65v38.2h-14.45v-38.2q0-5.73-2.52-8.63-2.51-2.9-7.37-2.9-2.22 0-4.12.77-1.9.76-3.34 2.19-1.43 1.43-2.25 3.6-.82 2.16-.82 4.97v38.2h-14.51v-38.2q0-6.03-2.43-8.78-2.42-2.75-7.1-2.75-3.16 0-5.88 1.56-2.72 1.55-5.06 4.24zm115.24-15.5V457.2q-6.26.29-10.53 1.08t-6.84 2.02q-2.58 1.23-3.69 2.86-1.11 1.64-1.11 3.57 0 3.8 2.25 5.44 2.26 1.64 5.88 1.64 4.45 0 7.7-1.61 3.24-1.61 6.34-4.88m-30.53-31.53-2.58-4.63q10.36-9.47 24.92-9.47 5.27 0 9.42 1.72 4.15 1.73 7.02 4.8t4.36 7.34 1.49 9.36v37.91h-6.55q-2.05 0-3.16-.61-1.11-.62-1.75-2.49l-1.29-4.33q-2.28 2.05-4.45 3.6-2.16 1.55-4.5 2.6t-5 1.61q-2.67.56-5.88.56-3.81 0-7.02-1.03-3.22-1.02-5.56-3.07t-3.63-5.09q-1.28-3.04-1.28-7.08 0-2.28.76-4.53t2.48-4.3q1.73-2.05 4.48-3.86 2.75-1.82 6.75-3.16 4.01-1.35 9.33-2.19 5.33-.85 12.17-1.03v-3.51q0-6.02-2.57-8.92-2.58-2.9-7.43-2.9-3.51 0-5.82.82t-4.07 1.85q-1.75 1.02-3.19 1.84-1.43.82-3.18.82-1.52 0-2.58-.79-1.05-.79-1.69-1.84m80.14 15.56q2.69 0 4.68-.73 1.99-.74 3.31-2.02 1.31-1.29 1.98-3.1.68-1.82.68-3.98 0-4.45-2.66-7.05-2.67-2.6-7.99-2.6t-7.98 2.6q-2.67 2.6-2.67 7.05 0 2.1.68 3.92.67 1.81 1.99 3.13 1.31 1.31 3.33 2.05 2.02.73 4.65.73m16.32 34.16q0-1.75-1.05-2.87-1.05-1.11-2.87-1.72-1.81-.62-4.24-.91t-5.15-.44q-2.72-.14-5.61-.26-2.9-.12-5.65-.47-2.4 1.35-3.89 3.16t-1.49 4.21q0 1.58.79 2.96.79 1.37 2.52 2.37 1.72.99 4.47 1.55 2.75.55 6.73.55 4.03 0 6.96-.61 2.92-.62 4.83-1.7 1.9-1.08 2.77-2.57.88-1.49.88-3.25m-2.86-60.66h17.25v5.38q0 2.57-3.1 3.16l-5.38.99q1.23 3.1 1.23 6.79 0 4.44-1.79 8.04-1.78 3.6-4.94 6.11-3.16 2.52-7.46 3.9-4.3 1.37-9.27 1.37-1.75 0-3.39-.18-1.64-.17-3.22-.46-2.81 1.69-2.81 3.8 0 1.81 1.67 2.66t4.42 1.2 6.26.44 7.19.38q3.69.29 7.2 1.02t6.26 2.31 4.41 4.3q1.67 2.72 1.67 6.99 0 3.98-1.96 7.73-1.96 3.74-5.67 6.67-3.72 2.92-9.13 4.7-5.41 1.79-12.31 1.79-6.79 0-11.82-1.32-5.03-1.31-8.37-3.51-3.33-2.19-4.97-5.06-1.64-2.86-1.64-5.96 0-4.22 2.55-7.05 2.54-2.84 6.99-4.54-2.4-1.23-3.8-3.27-1.41-2.05-1.41-5.39 0-1.34.5-2.77.5-1.44 1.46-2.84.97-1.41 2.43-2.66 1.46-1.26 3.45-2.26-4.56-2.45-7.17-6.55-2.6-4.09-2.6-9.59 0-4.45 1.79-8.05 1.78-3.59 4.97-6.14 3.19-2.54 7.54-3.89 4.36-1.34 9.51-1.34 3.86 0 7.25.79 3.4.79 6.21 2.31m37.79 21.06h27.26q0-2.81-.79-5.3-.79-2.48-2.37-4.36-1.58-1.87-4.01-2.95t-5.64-1.08q-6.26 0-9.86 3.57-3.6 3.56-4.59 10.12m36.85 8.71h-37.15q.36 4.62 1.64 7.99 1.29 3.36 3.4 5.56 2.1 2.19 5 3.27 2.89 1.08 6.4 1.08t6.06-.82q2.54-.81 4.44-1.81 1.9-.99 3.34-1.81 1.43-.82 2.78-.82 1.81 0 2.69 1.34l4.15 5.27q-2.4 2.81-5.38 4.71t-6.23 3.04-6.61 1.61q-3.37.47-6.52.47-6.26 0-11.65-2.08-5.38-2.08-9.36-6.14-3.97-4.07-6.26-10.06-2.28-6-2.28-13.9 0-6.14 1.99-11.55t5.71-9.42q3.71-4.01 9.06-6.35 5.36-2.34 12.08-2.34 5.68 0 10.48 1.82 4.79 1.81 8.24 5.29 3.46 3.48 5.41 8.54 1.96 5.06 1.96 11.56 0 3.27-.7 4.41t-2.69 1.14"/></svg>