<svg xmlns="http://www.w3.org/2000/svg" width="2400" height="900" viewBox="0 0 2400 900"><rect width="100%" height="100%" fill="#1f2937"/><path fill="#ffffff" d="M494.035 438.95h9.49q4.3 0 7.49-1.07t5.25-2.97q2.06-1.89 3.08-4.49t1.02-5.71q0-6.21-4.1-9.54-4.09-3.34-12.51-3.34h-9.72zm28.14 12.66 20.45 30.17h-13.73q-3.9 0-5.65-3.05l-17.18-26.16q-.96-1.47-2.11-2.09-1.16-.62-3.42-.62h-6.5v31.92h-15.2v-81.7h24.92q8.3 0 14.26 1.72 5.96 1.73 9.78 4.84 3.81 3.1 5.62 7.42 1.81 4.33 1.81 9.52 0 4.13-1.22 7.8-1.21 3.67-3.5 6.67-2.29 2.99-5.65 5.25t-7.66 3.56q1.47.85 2.72 2.01 1.24 1.16 2.26 2.74m38.13-5.48h26.33q0-2.71-.76-5.11-.76-2.41-2.29-4.21-1.52-1.81-3.87-2.86-2.34-1.04-5.45-1.04-6.05 0-9.52 3.44-3.48 3.45-4.44 9.78m35.6 8.42h-35.88q.34 4.46 1.58 7.71 1.25 3.25 3.28 5.37t4.83 3.16q2.8 1.05 6.19 1.05t5.85-.79q2.45-.8 4.29-1.76t3.22-1.75 2.68-.79q1.76 0 2.6 1.3l4.01 5.09q-2.31 2.71-5.19 4.54-2.88 1.84-6.02 2.94t-6.38 1.56q-3.25.45-6.3.45-6.05 0-11.25-2.01-5.2-2-9.04-5.93t-6.04-9.72q-2.21-5.79-2.21-13.42 0-5.93 1.92-11.16 1.92-5.22 5.51-9.09t8.76-6.13 11.67-2.26q5.48 0 10.11 1.75t7.97 5.11q3.33 3.36 5.22 8.25 1.9 4.89 1.9 11.16 0 3.16-.68 4.27-.68 1.1-2.6 1.1m33.05 28.13q-7.57 0-11.61-4.26-4.04-4.27-4.04-11.78v-32.38h-5.93q-1.13 0-1.92-.73-.79-.74-.79-2.2v-5.54l9.32-1.53 2.94-15.82q.28-1.13 1.07-1.75t2.03-.62h7.24v18.25h15.48v9.94h-15.48v31.42q0 2.71 1.32 4.23 1.33 1.53 3.65 1.53 1.3 0 2.17-.31.88-.31 1.53-.65t1.16-.65 1.01-.31q.63 0 1.02.31.4.31.85.93l4.18 6.78q-3.05 2.54-7.01 3.84-3.95 1.3-8.19 1.3m53.34-15.87v-9.78q-6.05.29-10.17 1.05-4.13.76-6.61 1.95-2.49 1.18-3.56 2.77-1.08 1.58-1.08 3.44 0 3.67 2.18 5.26 2.17 1.58 5.68 1.58 4.29 0 7.43-1.55 3.13-1.56 6.13-4.72m-29.5-30.46-2.48-4.46q10-9.15 24.07-9.15 5.08 0 9.09 1.66 4.02 1.67 6.78 4.64 2.77 2.96 4.21 7.09 1.44 4.12 1.44 9.04v36.61h-6.32q-1.98 0-3.05-.59-1.08-.6-1.7-2.4l-1.24-4.19q-2.21 1.98-4.3 3.48t-4.35 2.51q-2.26 1.02-4.83 1.56-2.57.53-5.68.53-3.67 0-6.78-.98-3.1-.99-5.36-2.97t-3.51-4.92q-1.24-2.93-1.24-6.83 0-2.21.73-4.38.74-2.18 2.41-4.15 1.66-1.98 4.32-3.73 2.65-1.76 6.52-3.05 3.87-1.3 9.02-2.12 5.14-.82 11.75-.99v-3.39q0-5.82-2.49-8.62-2.48-2.79-7.17-2.79-3.39 0-5.63.79-2.23.79-3.92 1.78-1.7.98-3.08 1.78-1.39.79-3.08.79-1.47 0-2.49-.77-1.01-.76-1.64-1.78m56.67-12.54h14.02v57.97h-14.02zm15.94-16.89q0 1.81-.74 3.39-.73 1.58-1.95 2.77-1.21 1.18-2.85 1.89-1.64.7-3.5.7-1.81 0-3.42-.7-1.61-.71-2.8-1.89-1.18-1.19-1.89-2.77t-.71-3.39q0-1.87.71-3.51.71-1.63 1.89-2.82 1.19-1.19 2.8-1.89 1.61-.71 3.42-.71 1.86 0 3.5.71 1.64.7 2.85 1.89 1.22 1.19 1.95 2.82.74 1.64.74 3.51m12.48-9.1h13.96v83.96h-13.96zm109.11 14.35h-36.28v24.18h30.63v12.15h-30.63v33.28h-15.25v-81.7h51.53zm40.84 54.64v-9.78q-6.04.29-10.17 1.05-4.12.76-6.61 1.95-2.48 1.18-3.56 2.77-1.07 1.58-1.07 3.44 0 3.67 2.18 5.26 2.17 1.58 5.67 1.58 4.3 0 7.43-1.55 3.14-1.56 6.13-4.72m-29.49-30.46-2.48-4.46q10-9.15 24.06-9.15 5.09 0 9.1 1.66 4.01 1.67 6.78 4.64 2.77 2.96 4.21 7.09 1.44 4.12 1.44 9.04v36.61h-6.33q-1.97 0-3.05-.59-1.07-.6-1.69-2.4l-1.25-4.19q-2.2 1.98-4.29 3.48t-4.35 2.51q-2.26 1.02-4.83 1.56-2.57.53-5.68.53-3.67 0-6.78-.98-3.11-.99-5.37-2.97t-3.5-4.92q-1.24-2.93-1.24-6.83 0-2.21.73-4.38.74-2.18 2.4-4.15 1.67-1.98 4.33-3.73 2.65-1.76 6.52-3.05 3.87-1.3 9.01-2.12t11.75-.99v-3.39q0-5.82-2.48-8.62-2.49-2.79-7.18-2.79-3.39 0-5.62.79t-3.93 1.78l-3.07 1.78q-1.39.79-3.08.79-1.47 0-2.49-.77-1.02-.76-1.64-1.78m101.42-5.36-3.67 5.08q-.62.79-1.22 1.24-.59.46-1.72.46-1.07 0-2.09-.65t-2.43-1.47-3.36-1.47-4.83-.65q-3.68 0-6.44 1.33-2.77 1.32-4.61 3.81t-2.74 6.02-.9 7.99q0 4.64.99 8.25.98 3.62 2.85 6.08 1.86 2.45 4.52 3.72 2.65 1.28 5.99 1.28 3.33 0 5.39-.82 2.07-.82 3.48-1.81t2.46-1.81q1.04-.82 2.34-.82 1.7 0 2.54 1.3l4.01 5.09q-2.31 2.71-5.02 4.54-2.72 1.84-5.63 2.94t-5.98 1.56q-3.08.45-6.13.45-5.37 0-10.12-2.01-4.74-2-8.3-5.85-3.56-3.84-5.63-9.4-2.06-5.57-2.06-12.69 0-6.38 1.84-11.83 1.83-5.46 5.39-9.44t8.82-6.24q5.25-2.26 12.09-2.26 6.5 0 11.38 2.09 4.89 2.09 8.79 5.99m9.72-7.18h14.01v57.97h-14.01zm15.93-16.89q0 1.81-.73 3.39-.74 1.58-1.95 2.77-1.22 1.18-2.86 1.89-1.64.7-3.5.7-1.81 0-3.42-.7-1.61-.71-2.79-1.89-1.19-1.19-1.9-2.77-.7-1.58-.7-3.39 0-1.87.7-3.51.71-1.63 1.9-2.82 1.18-1.19 2.79-1.89 1.61-.71 3.42-.71 1.86 0 3.5.71 1.64.7 2.86 1.89 1.21 1.19 1.95 2.82.73 1.64.73 3.51m12.49-9.1h13.95v83.96h-13.95zm28.36 25.99h14.01v57.97h-14.01zm15.93-16.89q0 1.81-.73 3.39-.74 1.58-1.95 2.77-1.22 1.18-2.85 1.89-1.64.7-3.51.7-1.8 0-3.42-.7-1.61-.71-2.79-1.89-1.19-1.19-1.89-2.77-.71-1.58-.71-3.39 0-1.87.71-3.51.7-1.63 1.89-2.82 1.18-1.19 2.79-1.89 1.62-.71 3.42-.71 1.87 0 3.51.71 1.63.7 2.85 1.89 1.21 1.19 1.95 2.82.73 1.64.73 3.51m31.64 75.76q-7.57 0-11.61-4.26-4.04-4.27-4.04-11.78v-32.38h-5.93q-1.13 0-1.92-.73-.79-.74-.79-2.2v-5.54l9.32-1.53 2.94-15.82q.28-1.13 1.07-1.75t2.04-.62h7.23v18.25h15.48v9.94h-15.48v31.42q0 2.71 1.33 4.23 1.32 1.53 3.64 1.53 1.3 0 2.18-.31.87-.31 1.52-.65t1.16-.65 1.02-.31q.62 0 1.01.31.4.31.85.93l4.18 6.78q-3.05 2.54-7 3.84-3.96 1.3-8.2 1.3m23.17-58.87h14.01v57.97h-14.01zm15.93-16.89q0 1.81-.73 3.39-.74 1.58-1.95 2.77-1.22 1.18-2.86 1.89-1.63.7-3.5.7-1.81 0-3.42-.7-1.61-.71-2.79-1.89-1.19-1.19-1.9-2.77-.7-1.58-.7-3.39 0-1.87.7-3.51.71-1.63 1.9-2.82 1.18-1.19 2.79-1.89 1.61-.71 3.42-.71 1.87 0 3.5.71 1.64.7 2.86 1.89 1.21 1.19 1.95 2.82.73 1.64.73 3.51m23.34 39.21h26.32q0-2.71-.76-5.11-.76-2.41-2.29-4.21-1.52-1.81-3.87-2.86-2.34-1.04-5.45-1.04-6.04 0-9.52 3.44-3.47 3.45-4.43 9.78m35.59 8.42h-35.88q.34 4.46 1.58 7.71 1.25 3.25 3.28 5.37 2.04 2.12 4.83 3.16 2.8 1.05 6.19 1.05t5.85-.79q2.46-.8 4.29-1.76 1.84-.96 3.22-1.75 1.39-.79 2.69-.79 1.75 0 2.59 1.3l4.02 5.09q-2.32 2.71-5.2 4.54-2.88 1.84-6.02 2.94-3.13 1.1-6.38 1.56-3.25.45-6.3.45-6.05 0-11.25-2.01-5.2-2-9.04-5.93t-6.04-9.72q-2.21-5.79-2.21-13.42 0-5.93 1.93-11.16 1.92-5.22 5.5-9.09 3.59-3.87 8.76-6.13t11.67-2.26q5.48 0 10.11 1.75t7.97 5.11q3.33 3.36 5.22 8.25 1.9 4.89 1.9 11.16 0 3.16-.68 4.27-.68 1.1-2.6 1.1m52.26-24.47-3.16 5.03q-.57.9-1.19 1.27t-1.58.37q-1.02 0-2.17-.57-1.16-.56-2.69-1.27-1.52-.7-3.47-1.27-1.95-.56-4.61-.56-4.12 0-6.47 1.75-2.34 1.75-2.34 4.57 0 1.87 1.21 3.14 1.22 1.27 3.22 2.23 2.01.96 4.55 1.73 2.54.76 5.17 1.66 2.63.91 5.17 2.06 2.54 1.16 4.55 2.94 2 1.78 3.22 4.27 1.21 2.48 1.21 5.99 0 4.18-1.49 7.71-1.5 3.53-4.44 6.1t-7.26 4.01-9.97 1.44q-3 0-5.85-.53-2.85-.54-5.48-1.5t-4.86-2.26-3.92-2.82l3.22-5.32q.62-.96 1.46-1.47.85-.5 2.15-.5t2.46.73q1.16.74 2.68 1.58 1.53.85 3.59 1.58 2.06.74 5.23.74 2.48 0 4.26-.59 1.78-.6 2.94-1.56t1.7-2.23q.53-1.27.53-2.63 0-2.03-1.21-3.33-1.22-1.3-3.22-2.26-2.01-.96-4.58-1.72-2.57-.77-5.25-1.67-2.69-.9-5.26-2.12-2.57-1.21-4.57-3.08-2.01-1.86-3.22-4.57-1.22-2.72-1.22-6.56 0-3.56 1.41-6.78 1.42-3.22 4.16-5.62t6.83-3.84q4.1-1.44 9.47-1.44 5.98 0 10.9 1.97 4.92 1.98 8.19 5.2m117.92-30h11.47v81.7h-13.39v-52.77q0-3.17.34-6.84l-24.69 46.39q-1.76 3.33-5.37 3.33h-2.15q-3.61 0-5.37-3.33l-24.97-46.56q.17 1.87.28 3.68.12 1.8.12 3.33v52.77h-13.39v-81.7h11.47q1.01 0 1.75.06.73.05 1.32.28.6.23 1.08.73.48.51.93 1.36l24.47 45.37q.96 1.81 1.77 3.73.82 1.92 1.61 3.95.8-2.09 1.64-4.04.85-1.94 1.81-3.75l24.13-45.26q.45-.85.96-1.36.51-.5 1.1-.73t1.33-.28q.73-.06 1.75-.06m58.08 66.73v-9.78q-6.05.29-10.17 1.05t-6.61 1.95q-2.49 1.18-3.56 2.77-1.07 1.58-1.07 3.44 0 3.67 2.17 5.26 2.18 1.58 5.68 1.58 4.29 0 7.43-1.55 3.14-1.56 6.13-4.72m-29.49-30.46-2.49-4.46q10-9.15 24.07-9.15 5.09 0 9.1 1.66 4.01 1.67 6.78 4.64 2.77 2.96 4.21 7.09 1.44 4.12 1.44 9.04v36.61h-6.33q-1.98 0-3.05-.59-1.08-.6-1.7-2.4l-1.24-4.19q-2.2 1.98-4.29 3.48t-4.35 2.51q-2.26 1.02-4.84 1.56-2.57.53-5.67.53-3.68 0-6.78-.98-3.11-.99-5.37-2.97t-3.5-4.92q-1.25-2.93-1.25-6.83 0-2.21.74-4.38.73-2.18 2.4-4.15 1.67-1.98 4.32-3.73 2.66-1.76 6.53-3.05 3.87-1.3 9.01-2.12t11.75-.99v-3.39q0-5.82-2.49-8.62-2.48-2.79-7.17-2.79-3.39 0-5.62.79t-3.93 1.78q-1.69.98-3.08 1.78-1.38.79-3.08.79-1.47 0-2.48-.77-1.02-.76-1.64-1.78m68.31-10 .96 4.58q1.75-1.75 3.7-3.25t4.12-2.54q2.18-1.05 4.66-1.64 2.49-.59 5.43-.59 4.74 0 8.42 1.61 3.67 1.61 6.13 4.52 2.45 2.91 3.72 6.95 1.28 4.04 1.28 8.9v36.89h-13.96v-36.89q0-5.32-2.43-8.23-2.43-2.9-7.4-2.9-3.62 0-6.78 1.63-3.16 1.64-5.99 4.47v41.92h-13.96v-57.97h8.54q2.71 0 3.56 2.54m82.26 40.46v-9.78q-6.05.29-10.17 1.05t-6.61 1.95q-2.49 1.18-3.56 2.77-1.07 1.58-1.07 3.44 0 3.67 2.17 5.26 2.18 1.58 5.68 1.58 4.29 0 7.43-1.55 3.14-1.56 6.13-4.72m-29.49-30.46-2.49-4.46q10-9.15 24.07-9.15 5.09 0 9.1 1.66 4.01 1.67 6.78 4.64 2.76 2.96 4.21 7.09 1.44 4.12 1.44 9.04v36.61h-6.33q-1.98 0-3.05-.59-1.08-.6-1.7-2.4l-1.24-4.19q-2.2 1.98-4.29 3.48-2.1 1.5-4.36 2.51-2.26 1.02-4.83 1.56-2.57.53-5.67.53-3.68 0-6.78-.98-3.11-.99-5.37-2.97t-3.5-4.92q-1.25-2.93-1.25-6.83 0-2.21.74-4.38.73-2.18 2.4-4.15 1.67-1.98 4.32-3.73 2.66-1.76 6.53-3.05 3.87-1.3 9.01-2.12t11.75-.99v-3.39q0-5.82-2.49-8.62-2.48-2.79-7.17-2.79-3.39 0-5.62.79-2.24.79-3.93 1.78-1.7.98-3.08 1.78-1.38.79-3.08.79-1.47 0-2.48-.77-1.02-.76-1.64-1.78m77.4 15.03q2.6 0 4.52-.7 1.92-.71 3.19-1.95 1.28-1.25 1.93-3 .64-1.75.64-3.84 0-4.29-2.57-6.81-2.57-2.51-7.71-2.51t-7.71 2.51q-2.57 2.52-2.57 6.81 0 2.03.65 3.79.65 1.75 1.92 3.02t3.22 1.98q1.95.7 4.49.7m15.77 33q0-1.7-1.02-2.77t-2.77-1.67q-1.75-.59-4.1-.87-2.34-.28-4.97-.43-2.63-.14-5.42-.25-2.8-.11-5.45-.45-2.32 1.3-3.76 3.05t-1.44 4.07q0 1.52.76 2.85t2.43 2.29 4.32 1.5q2.66.53 6.5.53 3.9 0 6.72-.59 2.83-.59 4.66-1.64 1.84-1.04 2.69-2.49.85-1.44.85-3.13m-2.77-58.59h16.66v5.2q0 2.48-2.99 3.05l-5.2.96q1.19 2.99 1.19 6.55 0 4.3-1.72 7.77-1.73 3.48-4.78 5.91-3.05 2.42-7.2 3.75-4.16 1.33-8.96 1.33-1.69 0-3.28-.17-1.58-.17-3.1-.45-2.71 1.64-2.71 3.67 0 1.75 1.61 2.57t4.26 1.16q2.66.34 6.05.42 3.39.09 6.95.37t6.95.99 6.04 2.23q2.66 1.53 4.27 4.15 1.61 2.63 1.61 6.76 0 3.84-1.9 7.45-1.89 3.62-5.48 6.45-3.58 2.82-8.81 4.54-5.23 1.73-11.89 1.73-6.56 0-11.42-1.27-4.86-1.28-8.08-3.39-3.22-2.12-4.8-4.89t-1.58-5.77q0-4.06 2.46-6.8t6.75-4.38q-2.32-1.19-3.67-3.17-1.36-1.97-1.36-5.19 0-1.3.48-2.69.48-1.38 1.41-2.74.94-1.35 2.35-2.57 1.41-1.21 3.33-2.17-4.41-2.38-6.92-6.33-2.51-3.96-2.51-9.27 0-4.29 1.72-7.77 1.72-3.47 4.8-5.93t7.29-3.76 9.18-1.3q3.73 0 7.01.77 3.27.76 5.99 2.23m36.5 20.34h26.33q0-2.71-.77-5.11-.76-2.41-2.29-4.21-1.52-1.81-3.87-2.86-2.34-1.04-5.45-1.04-6.04 0-9.52 3.44-3.47 3.45-4.43 9.78m35.59 8.42h-35.88q.34 4.46 1.59 7.71 1.24 3.25 3.27 5.37 2.04 2.12 4.83 3.16 2.8 1.05 6.19 1.05t5.85-.79q2.46-.8 4.29-1.76 1.84-.96 3.22-1.75 1.39-.79 2.69-.79 1.75 0 2.59 1.3l4.02 5.09q-2.32 2.71-5.2 4.54-2.88 1.84-6.02 2.94-3.13 1.1-6.38 1.56-3.25.45-6.3.45-6.05 0-11.25-2.01-5.19-2-9.04-5.93-3.84-3.93-6.04-9.72-2.21-5.79-2.21-13.42 0-5.93 1.93-11.16 1.92-5.22 5.5-9.09 3.59-3.87 8.76-6.13t11.67-2.26q5.48 0 10.11 1.75 4.64 1.75 7.97 5.11t5.23 8.25q1.89 4.89 1.89 11.16 0 3.16-.68 4.27-.68 1.1-2.6 1.1m27.69 27.23h-13.96v-57.97h8.53q2.71 0 3.56 2.54l.91 4.3q1.52-1.7 3.19-3.11 1.66-1.41 3.56-2.43 1.89-1.02 4.07-1.61 2.17-.59 4.77-.59 5.48 0 9.01 2.96 3.53 2.97 5.28 7.89 1.36-2.89 3.39-4.95 2.04-2.06 4.47-3.36t5.17-1.92 5.51-.62q4.8 0 8.53 1.47 3.73 1.46 6.27 4.29 2.54 2.82 3.87 6.89t1.33 9.33v36.89h-13.96v-36.89q0-5.54-2.43-8.34-2.43-2.79-7.12-2.79-2.14 0-3.98.73t-3.22 2.12q-1.38 1.38-2.18 3.47-.79 2.09-.79 4.81v36.89h-14.01v-36.89q0-5.82-2.34-8.48-2.35-2.65-6.87-2.65-3.05 0-5.68 1.49-2.62 1.5-4.88 4.1zm91.7-35.65h26.32q0-2.71-.76-5.11-.76-2.41-2.29-4.21-1.52-1.81-3.87-2.86-2.34-1.04-5.45-1.04-6.04 0-9.52 3.44-3.47 3.45-4.43 9.78m35.59 8.42h-35.88q.34 4.46 1.59 7.71 1.24 3.25 3.27 5.37 2.04 2.12 4.83 3.16 2.8 1.05 6.19 1.05t5.85-.79q2.45-.8 4.29-1.76t3.22-1.75q1.39-.79 2.69-.79 1.75 0 2.59 1.3l4.02 5.09q-2.32 2.71-5.2 4.54-2.88 1.84-6.02 2.94t-6.38 1.56q-3.25.45-6.3.45-6.05 0-11.25-2.01-5.19-2-9.04-5.93-3.84-3.93-6.04-9.72-2.21-5.79-2.21-13.42 0-5.93 1.92-11.16 1.93-5.22 5.51-9.09 3.59-3.87 8.76-6.13t11.67-2.26q5.48 0 10.11 1.75 4.64 1.75 7.97 5.11t5.22 8.25q1.9 4.89 1.9 11.16 0 3.16-.68 4.27-.68 1.1-2.6 1.1m25.82-28.2.96 4.58q1.75-1.75 3.7-3.25t4.13-2.54q2.17-1.05 4.66-1.64 2.48-.59 5.42-.59 4.75 0 8.42 1.61t6.13 4.52 3.73 6.95 1.27 8.9v36.89h-13.95v-36.89q0-5.32-2.43-8.23-2.43-2.9-7.41-2.9-3.61 0-6.78 1.63-3.16 1.64-5.98 4.47v41.92h-13.96v-57.97h8.53q2.71 0 3.56 2.54m70.96 56.33q-7.57 0-11.61-4.26-4.04-4.27-4.04-11.78v-32.38h-5.93q-1.13 0-1.92-.73-.79-.74-.79-2.2v-5.54l9.32-1.53 2.94-15.82q.28-1.13 1.07-1.75t2.04-.62h7.23v18.25h15.48v9.94h-15.48v31.42q0 2.71 1.33 4.23 1.33 1.53 3.64 1.53 1.3 0 2.18-.31.87-.31 1.52-.65t1.16-.65 1.02-.31q.62 0 1.01.31.4.31.85.93l4.18 6.78q-3.05 2.54-7 3.84-3.96 1.3-8.2 1.3"/></svg>