<svg xmlns="http://www.w3.org/2000/svg" width="2400" height="900" viewBox="0 0 2400 900"><rect width="100%" height="100%" fill="#1f2937"/><path fill="#ffffff" d="M489.095 442.96h9.04q3.33 0 5.81-.84 2.47-.83 4.11-2.38 1.65-1.56 2.46-3.78.81-2.23.81-4.97 0-2.61-.81-4.73-.81-2.11-2.43-3.6-1.62-1.48-4.1-2.27-2.47-.79-5.85-.79h-9.04zm-12.11-32.72h21.15q6.53 0 11.3 1.53t7.87 4.27q3.11 2.75 4.61 6.57 1.51 3.83 1.51 8.38 0 4.72-1.57 8.66-1.58 3.94-4.73 6.77-3.15 2.84-7.9 4.41-4.74 1.58-11.09 1.58h-9.04v22.9h-12.11zm82.62 18.9h11.12v46.17h-6.8q-2.2 0-2.79-2.02l-.76-3.69q-2.84 2.88-6.26 4.65-3.42 1.78-8.05 1.78-3.78 0-6.69-1.28-2.9-1.28-4.88-3.62t-2.99-5.56-1.01-7.09v-29.34h11.11v29.34q0 4.23 1.96 6.55t5.87 2.32q2.88 0 5.4-1.29 2.52-1.28 4.77-3.53zm33.21 13.5v20.7q1.89 2.3 4.12 3.24t4.7.94q2.57 0 4.61-.92 2.05-.92 3.49-2.88 1.44-1.95 2.21-4.99.76-3.04.76-7.27 0-7.6-2.52-11t-7.24-3.4q-3.2 0-5.58 1.46-2.39 1.47-4.55 4.12m0-34.2v26.37q2.79-2.92 6.19-4.66 3.4-1.73 7.76-1.73 4.01 0 7.22 1.58 3.22 1.57 5.49 4.52 2.28 2.95 3.49 7.13 1.22 4.19 1.22 9.41 0 5.62-1.4 10.21-1.39 4.59-3.98 7.85-2.59 3.27-6.23 5.06-3.65 1.8-8.1 1.8-2.16 0-3.92-.42-1.75-.43-3.24-1.19-1.48-.77-2.72-1.87-1.24-1.11-2.36-2.45l-.5 3.1q-.27 1.17-.92 1.67-.65.49-1.78.49h-7.33v-66.87zm40.1 0h11.11v66.87h-11.11zm22.59 20.7h11.16v46.17h-11.16zm12.69-13.46q0 1.45-.59 2.71-.58 1.26-1.55 2.2-.97.95-2.27 1.51-1.31.56-2.79.56-1.44 0-2.73-.56-1.28-.56-2.22-1.51-.95-.94-1.51-2.2t-.56-2.71q0-1.48.56-2.78.56-1.31 1.51-2.25.94-.95 2.22-1.51 1.29-.56 2.73-.56 1.48 0 2.79.56 1.3.56 2.27 1.51.97.94 1.55 2.25.59 1.3.59 2.78m45.81 19.18-2.93 4.04q-.49.64-.97 1-.47.36-1.37.36-.85 0-1.66-.52t-1.94-1.17q-1.12-.65-2.68-1.17-1.55-.52-3.84-.52-2.93 0-5.13 1.06-2.21 1.06-3.67 3.03-1.46 1.99-2.18 4.8t-.72 6.36q0 3.7.78 6.57.79 2.89 2.28 4.84 1.48 1.96 3.6 2.97 2.11 1.01 4.77 1.01 2.65 0 4.29-.65 1.65-.65 2.77-1.44 1.13-.78 1.96-1.44.83-.65 1.87-.65 1.35 0 2.02 1.04l3.2 4.05q-1.85 2.16-4.01 3.62t-4.48 2.34q-2.31.88-4.77 1.24-2.45.35-4.88.35-4.27 0-8.05-1.59-3.78-1.6-6.62-4.66-2.83-3.06-4.48-7.49-1.64-4.43-1.64-10.11 0-5.08 1.46-9.42 1.47-4.35 4.3-7.52 2.84-3.17 7.02-4.97 4.19-1.8 9.63-1.8 5.18 0 9.07 1.66 3.89 1.67 7 4.78m68.67-18.5-3.02 5.72q-.54.94-1.15 1.37-.6.43-1.5.43-.95 0-2.05-.7t-2.63-1.55q-1.53-.86-3.58-1.56-2.05-.69-4.84-.69-2.52 0-4.41.6-1.89.61-3.17 1.69t-1.91 2.59q-.63 1.5-.63 3.31 0 2.29 1.28 3.82t3.4 2.61q2.11 1.08 4.81 1.93 2.7.86 5.54 1.83 2.83.96 5.53 2.25 2.7 1.28 4.82 3.24 2.11 1.95 3.39 4.79 1.29 2.84 1.29 6.89 0 4.41-1.51 8.25-1.51 3.85-4.41 6.71t-7.09 4.5q-4.18 1.64-9.58 1.64-3.11 0-6.12-.61-3.02-.6-5.79-1.73-2.76-1.13-5.19-2.7t-4.32-3.51l3.55-5.8q.45-.63 1.17-1.06t1.53-.43q1.13 0 2.43.92 1.31.92 3.11 2.05 1.8 1.12 4.2 2.05 2.41.92 5.79.92 5.17 0 8.01-2.45 2.83-2.45 2.83-7.05 0-2.56-1.28-4.18t-3.4-2.72q-2.11-1.1-4.81-1.87-2.7-.76-5.49-1.66-2.79-.91-5.49-2.16-2.7-1.26-4.82-3.29-2.11-2.03-3.4-5.06-1.28-3.04-1.28-7.49 0-3.56 1.42-6.93 1.42-3.38 4.12-5.99t6.66-4.19q3.96-1.57 9.09-1.57 5.76 0 10.62 1.8t8.28 5.04m18.72 30.56h20.97q0-2.16-.61-4.08-.61-1.91-1.82-3.35-1.22-1.44-3.09-2.27-1.86-.83-4.34-.83-4.81 0-7.58 2.74t-3.53 7.79m28.35 6.7h-28.58q.27 3.56 1.26 6.14.99 2.59 2.61 4.28t3.85 2.52 4.93.83 4.65-.63q1.96-.63 3.42-1.4 1.47-.76 2.57-1.39t2.14-.63q1.39 0 2.07 1.04l3.19 4.05q-1.84 2.16-4.14 3.62-2.29 1.46-4.79 2.34t-5.09 1.24q-2.58.35-5.01.35-4.82 0-8.96-1.59-4.14-1.6-7.2-4.73t-4.81-7.74q-1.76-4.61-1.76-10.68 0-4.73 1.53-8.89 1.53-4.17 4.39-7.25t6.97-4.88q4.12-1.8 9.3-1.8 4.36 0 8.05 1.4 3.69 1.39 6.35 4.07 2.65 2.68 4.16 6.57t1.51 8.89q0 2.51-.54 3.39t-2.07.88m46.93-18.76-2.92 4.04q-.5.64-.97 1t-1.37.36q-.86 0-1.67-.52t-1.93-1.17q-1.13-.65-2.68-1.17t-3.85-.52q-2.92 0-5.13 1.06-2.2 1.06-3.67 3.03-1.46 1.99-2.18 4.8t-.72 6.36q0 3.7.79 6.57.79 2.89 2.27 4.84 1.49 1.96 3.6 2.97 2.12 1.01 4.77 1.01 2.66 0 4.3-.65t2.77-1.44q1.12-.78 1.95-1.44.84-.65 1.87-.65 1.35 0 2.03 1.04l3.19 4.05q-1.84 2.16-4 3.62t-4.48 2.34-4.77 1.24q-2.45.35-4.88.35-4.28 0-8.06-1.59-3.78-1.6-6.61-4.66-2.84-3.06-4.48-7.49t-1.64-10.11q0-5.08 1.46-9.42 1.46-4.35 4.3-7.52 2.83-3.17 7.02-4.97 4.18-1.8 9.63-1.8 5.17 0 9.06 1.66 3.9 1.67 7 4.78m22.77 41.17q-6.03 0-9.25-3.4-3.21-3.4-3.21-9.38v-25.78h-4.73q-.9 0-1.53-.59t-.63-1.75v-4.41l7.43-1.22 2.34-12.6q.22-.9.85-1.39.63-.5 1.62-.5h5.76v14.53h12.33v7.93h-12.33v25.02q0 2.16 1.06 3.37 1.06 1.22 2.9 1.22 1.04 0 1.73-.25.7-.25 1.22-.52t.92-.52q.41-.24.81-.24.5 0 .81.24.32.25.68.74l3.33 5.4q-2.43 2.03-5.58 3.06-3.15 1.04-6.53 1.04m38.52-47.61q5.13 0 9.34 1.66 4.21 1.67 7.2 4.73t4.61 7.47 1.62 9.85q0 5.5-1.62 9.9-1.62 4.41-4.61 7.52t-7.2 4.77-9.34 1.66q-5.17 0-9.4-1.66t-7.23-4.77q-2.99-3.11-4.63-7.52-1.64-4.4-1.64-9.9 0-5.44 1.64-9.85t4.63-7.47q3-3.06 7.23-4.73 4.23-1.66 9.4-1.66m0 39.01q5.76 0 8.53-3.86 2.77-3.88 2.77-11.35 0-7.46-2.77-11.38-2.77-3.91-8.53-3.91-5.85 0-8.66 3.93-2.81 3.94-2.81 11.36 0 7.43 2.81 11.32t8.66 3.89m41.09-35.5.67 5.22q2.16-4.14 5.13-6.5t7.02-2.36q3.2 0 5.13 1.39l-.72 8.33q-.22.81-.65 1.14-.43.34-1.15.34-.67 0-2-.23-1.33-.22-2.59-.22-1.84 0-3.28.54t-2.59 1.55q-1.15 1.02-2.03 2.46-.87 1.43-1.64 3.28v28.44h-11.11v-46.17h6.52q1.71 0 2.39.61.67.61.9 2.18m88.42-12.06h-28.89v19.26h24.39v9.68h-24.39v26.5h-12.15v-65.07h41.04zm32.54 43.52v-7.79q-4.82.23-8.1.83-3.29.61-5.27 1.56-1.98.94-2.83 2.2-.86 1.26-.86 2.74 0 2.93 1.73 4.19 1.74 1.26 4.53 1.26 3.42 0 5.91-1.24 2.5-1.23 4.89-3.75m-23.49-24.26-1.98-3.55q7.96-7.29 19.17-7.29 4.05 0 7.24 1.32 3.2 1.33 5.4 3.69 2.21 2.37 3.35 5.65 1.15 3.29 1.15 7.2v29.16h-5.04q-1.57 0-2.43-.47-.85-.47-1.35-1.91l-.99-3.33q-1.75 1.57-3.42 2.76-1.66 1.2-3.46 2.01-1.8.8-3.85 1.23t-4.52.43q-2.93 0-5.4-.79-2.48-.78-4.28-2.36-1.8-1.57-2.79-3.91-.99-2.35-.99-5.45 0-1.75.59-3.49.58-1.73 1.91-3.31 1.33-1.57 3.44-2.96 2.12-1.4 5.2-2.43 3.08-1.04 7.18-1.69 4.09-.65 9.36-.79v-2.7q0-4.64-1.98-6.86-1.98-2.23-5.72-2.23-2.7 0-4.48.63-1.77.63-3.12 1.42t-2.46 1.42q-1.1.62-2.45.62-1.17 0-1.98-.6-.81-.61-1.3-1.42m80.77-4.27-2.92 4.04q-.5.64-.97 1t-1.37.36q-.86 0-1.67-.52t-1.93-1.17q-1.13-.65-2.68-1.17t-3.85-.52q-2.92 0-5.13 1.06-2.2 1.06-3.67 3.03-1.46 1.99-2.18 4.8t-.72 6.36q0 3.7.79 6.57.79 2.89 2.27 4.84 1.49 1.96 3.6 2.97 2.12 1.01 4.77 1.01 2.66 0 4.3-.65t2.77-1.44q1.12-.78 1.95-1.44.84-.65 1.87-.65 1.35 0 2.03 1.04l3.19 4.05q-1.84 2.16-4 3.62t-4.48 2.34-4.77 1.24q-2.45.35-4.88.35-4.28 0-8.06-1.59-3.78-1.6-6.61-4.66-2.84-3.06-4.48-7.49t-1.64-10.11q0-5.08 1.46-9.42 1.46-4.35 4.3-7.52 2.83-3.17 7.02-4.97 4.18-1.8 9.63-1.8 5.17 0 9.06 1.66 3.9 1.67 7 4.78m7.74-5.72h11.16v46.17h-11.16zm12.69-13.46q0 1.45-.58 2.71-.59 1.26-1.56 2.2-.96.95-2.27 1.51-1.3.56-2.79.56-1.44 0-2.72-.56t-2.23-1.51q-.94-.94-1.51-2.2-.56-1.26-.56-2.71 0-1.48.56-2.78.57-1.31 1.51-2.25.95-.95 2.23-1.51t2.72-.56q1.49 0 2.79.56 1.31.56 2.27 1.51.97.94 1.56 2.25.58 1.3.58 2.78m9.95-7.24h11.11v66.87h-11.11zm22.59 20.7h11.16v46.17h-11.16zm12.69-13.46q0 1.45-.59 2.71-.58 1.26-1.55 2.2-.97.95-2.27 1.51-1.31.56-2.79.56-1.44 0-2.73-.56-1.28-.56-2.22-1.51-.95-.94-1.51-2.2t-.56-2.71q0-1.48.56-2.78.56-1.31 1.51-2.25.94-.95 2.22-1.51 1.29-.56 2.73-.56 1.48 0 2.79.56 1.3.56 2.27 1.51.97.94 1.55 2.25.59 1.3.59 2.78m25.2 60.35q-6.03 0-9.25-3.4t-3.22-9.38v-25.78h-4.72q-.9 0-1.53-.59t-.63-1.75v-4.41l7.42-1.22 2.34-12.6q.23-.9.86-1.39.63-.5 1.62-.5h5.76v14.53h12.33v7.93h-12.33v25.02q0 2.16 1.05 3.37 1.06 1.22 2.91 1.22 1.03 0 1.73-.25t1.21-.52q.52-.27.93-.52.4-.24.81-.24.49 0 .81.24.31.25.67.74l3.33 5.4q-2.43 2.03-5.58 3.06-3.15 1.04-6.52 1.04m18.45-46.89h11.16v46.17h-11.16zm12.69-13.46q0 1.45-.59 2.71-.58 1.26-1.55 2.2-.97.95-2.27 1.51-1.31.56-2.79.56-1.44 0-2.73-.56-1.28-.56-2.22-1.51-.95-.94-1.51-2.2t-.56-2.71q0-1.48.56-2.78.56-1.31 1.51-2.25.94-.95 2.22-1.51 1.29-.56 2.73-.56 1.48 0 2.79.56 1.3.56 2.27 1.51.97.94 1.55 2.25.59 1.3.59 2.78m18.58 31.24h20.97q0-2.16-.61-4.08-.6-1.91-1.82-3.35-1.21-1.44-3.08-2.27t-4.34-.83q-4.82 0-7.59 2.74-2.76 2.74-3.53 7.79m28.35 6.7h-28.57q.27 3.56 1.26 6.14.99 2.59 2.61 4.28t3.84 2.52q2.23.83 4.93.83t4.66-.63 3.42-1.4q1.46-.76 2.56-1.39 1.11-.63 2.14-.63 1.4 0 2.07 1.04l3.2 4.05q-1.85 2.16-4.14 3.62-2.3 1.46-4.8 2.34-2.49.88-5.08 1.24-2.59.35-5.02.35-4.81 0-8.95-1.59-4.14-1.6-7.2-4.73t-4.82-7.74q-1.75-4.61-1.75-10.68 0-4.73 1.53-8.89 1.53-4.17 4.38-7.25 2.86-3.08 6.98-4.88t9.29-1.8q4.37 0 8.06 1.4 3.69 1.39 6.34 4.07 2.66 2.68 4.16 6.57 1.51 3.89 1.51 8.89 0 2.51-.54 3.39t-2.07.88m41.63-19.48-2.52 4q-.45.72-.95 1.01-.49.29-1.26.29-.81 0-1.73-.44-.92-.46-2.14-1.02-1.21-.56-2.77-1.01-1.55-.45-3.66-.45-3.29 0-5.16 1.4-1.86 1.39-1.86 3.64 0 1.48.96 2.5.97 1.01 2.57 1.78 1.6.76 3.62 1.37 2.03.61 4.12 1.33t4.12 1.64q2.02.92 3.62 2.34 1.6 1.41 2.56 3.4.97 1.98.97 4.76 0 3.34-1.19 6.15t-3.53 4.86-5.79 3.19q-3.44 1.15-7.94 1.15-2.38 0-4.66-.43-2.27-.43-4.36-1.19-2.09-.77-3.87-1.8t-3.13-2.25l2.57-4.23q.49-.77 1.17-1.17.67-.4 1.71-.4 1.03 0 1.95.58.93.59 2.14 1.26 1.22.68 2.86 1.26 1.64.59 4.16.59 1.98 0 3.4-.48 1.42-.47 2.34-1.24.92-.76 1.35-1.77t.43-2.09q0-1.62-.97-2.66t-2.57-1.8q-1.59-.76-3.64-1.37t-4.19-1.33q-2.13-.72-4.18-1.69-2.05-.96-3.65-2.45-1.59-1.49-2.56-3.64-.97-2.16-.97-5.22 0-2.84 1.13-5.4 1.12-2.57 3.3-4.48 2.19-1.91 5.45-3.06t7.54-1.15q4.77 0 8.68 1.58 3.92 1.57 6.53 4.14m93.91-23.9h9.14v65.07h-10.67v-42.03q0-2.52.27-5.45l-19.66 36.95q-1.4 2.65-4.28 2.65h-1.71q-2.88 0-4.27-2.65l-19.89-37.08q.13 1.48.22 2.93.09 1.44.09 2.65v42.03h-10.66v-65.07h9.13q.81 0 1.4.05.58.04 1.05.22.48.18.86.58.38.41.74 1.09l19.49 36.13q.76 1.44 1.41 2.97.66 1.53 1.29 3.15.63-1.66 1.3-3.22.68-1.55 1.44-2.99l19.22-36.04q.36-.68.76-1.09.41-.4.88-.58t1.06-.22q.58-.05 1.39-.05m46.26 53.15v-7.79q-4.81.23-8.1.83-3.28.61-5.26 1.56-1.98.94-2.84 2.2-.85 1.26-.85 2.74 0 2.93 1.73 4.19t4.52 1.26q3.42 0 5.92-1.24 2.5-1.23 4.88-3.75m-23.49-24.26-1.98-3.55q7.97-7.29 19.17-7.29 4.05 0 7.25 1.32 3.19 1.33 5.4 3.69 2.2 2.37 3.35 5.65 1.15 3.29 1.15 7.2v29.16h-5.04q-1.58 0-2.43-.47-.86-.47-1.35-1.91l-.99-3.33q-1.76 1.57-3.42 2.76-1.67 1.2-3.47 2.01-1.8.8-3.85 1.23-2.04.43-4.52.43-2.92 0-5.4-.79-2.47-.78-4.27-2.36-1.8-1.57-2.79-3.91-.99-2.35-.99-5.45 0-1.75.58-3.49.59-1.73 1.91-3.31 1.33-1.57 3.45-2.96 2.11-1.4 5.19-2.43 3.09-1.04 7.18-1.69 4.1-.65 9.36-.79v-2.7q0-4.64-1.98-6.86-1.98-2.23-5.71-2.23-2.7 0-4.48.63t-3.13 1.42-2.45 1.42q-1.1.62-2.45.62-1.17 0-1.98-.6-.81-.61-1.31-1.42m54.41-7.96.76 3.64q1.4-1.39 2.95-2.59 1.55-1.19 3.28-2.02 1.74-.84 3.72-1.31t4.32-.47q3.78 0 6.7 1.28 2.93 1.29 4.88 3.6 1.96 2.32 2.97 5.54 1.02 3.22 1.02 7.09v29.38h-11.12v-29.38q0-4.24-1.93-6.55-1.94-2.32-5.9-2.32-2.88 0-5.4 1.3-2.52 1.31-4.77 3.56v33.39h-11.11v-46.17h6.79q2.16 0 2.84 2.03m65.52 32.22v-7.79q-4.82.23-8.1.83-3.29.61-5.27 1.56-1.98.94-2.83 2.2-.86 1.26-.86 2.74 0 2.93 1.73 4.19 1.74 1.26 4.53 1.26 3.42 0 5.91-1.24 2.5-1.23 4.89-3.75m-23.49-24.26-1.98-3.55q7.96-7.29 19.17-7.29 4.05 0 7.24 1.32 3.2 1.33 5.4 3.69 2.21 2.37 3.35 5.65 1.15 3.29 1.15 7.2v29.16h-5.04q-1.57 0-2.43-.47-.85-.47-1.35-1.91l-.99-3.33q-1.75 1.57-3.42 2.76-1.66 1.2-3.46 2.01-1.8.8-3.85 1.23t-4.52.43q-2.93 0-5.4-.79-2.48-.78-4.28-2.36-1.8-1.57-2.79-3.91-.99-2.35-.99-5.45 0-1.75.59-3.49.58-1.73 1.91-3.31 1.33-1.57 3.44-2.96 2.12-1.4 5.2-2.43 3.08-1.04 7.18-1.69 4.09-.65 9.36-.79v-2.7q0-4.64-1.98-6.86-1.98-2.23-5.72-2.23-2.7 0-4.48.63-1.77.63-3.12 1.42t-2.46 1.42q-1.1.62-2.45.62-1.17 0-1.98-.6-.81-.61-1.3-1.42m61.65 11.97q2.07 0 3.6-.56t2.54-1.55 1.53-2.39.52-3.06q0-3.42-2.05-5.42-2.05-2.01-6.14-2.01-4.1 0-6.15 2.01-2.04 2-2.04 5.42 0 1.62.51 3.02.52 1.39 1.53 2.4 1.02 1.02 2.57 1.58t3.58.56m12.55 26.28q0-1.35-.81-2.21-.81-.85-2.2-1.32-1.4-.47-3.27-.7-1.86-.22-3.96-.34-2.09-.11-4.32-.2-2.22-.09-4.34-.36-1.84 1.04-2.99 2.43-1.15 1.4-1.15 3.24 0 1.21.61 2.27t1.93 1.83q1.33.76 3.45 1.19 2.11.42 5.17.42 3.11 0 5.36-.47t3.71-1.3q1.46-.84 2.14-1.98.67-1.15.67-2.5m-2.2-46.66h13.27v4.14q0 1.97-2.38 2.43l-4.14.76q.94 2.38.94 5.22 0 3.42-1.37 6.19-1.37 2.76-3.8 4.7t-5.74 2.99q-3.31 1.06-7.13 1.06-1.35 0-2.61-.13-1.26-.14-2.48-.36-2.16 1.3-2.16 2.92 0 1.39 1.28 2.05 1.29.65 3.4.92 2.12.27 4.82.34t5.53.29q2.84.23 5.54.79t4.81 1.78q2.12 1.21 3.4 3.3 1.28 2.1 1.28 5.38 0 3.06-1.51 5.94-1.5 2.88-4.36 5.13t-7.02 3.62q-4.16 1.38-9.47 1.38-5.22 0-9.09-1.02-3.87-1.01-6.44-2.7-2.56-1.69-3.82-3.89-1.26-2.21-1.26-4.59 0-3.24 1.95-5.42 1.96-2.18 5.38-3.49-1.84-.94-2.92-2.52t-1.08-4.14q0-1.03.38-2.14.38-1.1 1.12-2.18.75-1.08 1.87-2.05 1.13-.97 2.66-1.73-3.51-1.89-5.52-5.04-2-3.15-2-7.38 0-3.42 1.37-6.19 1.38-2.76 3.83-4.72t5.8-3q3.36-1.03 7.32-1.03 2.97 0 5.58.61 2.61.6 4.77 1.78m29.07 16.2h20.97q0-2.16-.61-4.08-.61-1.91-1.82-3.35-1.22-1.44-3.09-2.27-1.86-.83-4.34-.83-4.81 0-7.58 2.74t-3.53 7.79m28.35 6.7h-28.58q.27 3.56 1.26 6.14.99 2.59 2.61 4.28t3.85 2.52 4.93.83 4.65-.63q1.96-.63 3.42-1.4 1.47-.76 2.57-1.39t2.14-.63q1.39 0 2.07 1.04l3.19 4.05q-1.84 2.16-4.14 3.62-2.29 1.46-4.79 2.34t-5.09 1.24q-2.58.35-5.01.35-4.82 0-8.96-1.59-4.14-1.6-7.2-4.73t-4.81-7.74q-1.76-4.61-1.76-10.68 0-4.73 1.53-8.89 1.53-4.17 4.39-7.25t6.97-4.88q4.12-1.8 9.3-1.8 4.36 0 8.05 1.4 3.69 1.39 6.35 4.07 2.65 2.68 4.16 6.57t1.51 8.89q0 2.51-.54 3.39t-2.07.88m22.05 21.69h-11.12v-46.17h6.8q2.16 0 2.83 2.03l.72 3.41q1.22-1.34 2.54-2.47 1.33-1.12 2.84-1.93 1.51-.82 3.24-1.29t3.8-.47q4.37 0 7.18 2.36 2.81 2.37 4.21 6.28 1.08-2.3 2.7-3.94t3.55-2.67q1.94-1.04 4.12-1.53 2.18-.5 4.39-.5 3.82 0 6.79 1.17t5 3.42q2.02 2.25 3.08 5.49t1.06 7.43v29.38h-11.12v-29.38q0-4.42-1.93-6.64-1.94-2.23-5.67-2.23-1.71 0-3.18.59-1.46.58-2.56 1.68t-1.73 2.77-.63 3.83v29.38h-11.16v-29.38q0-4.64-1.87-6.75-1.87-2.12-5.47-2.12-2.43 0-4.52 1.19t-3.89 3.26zm73.03-28.39h20.97q0-2.16-.61-4.08-.6-1.91-1.82-3.35-1.21-1.44-3.08-2.27t-4.34-.83q-4.82 0-7.59 2.74-2.76 2.74-3.53 7.79m28.35 6.7h-28.57q.27 3.56 1.26 6.14.99 2.59 2.61 4.28t3.84 2.52q2.23.83 4.93.83t4.66-.63 3.42-1.4q1.46-.76 2.56-1.39 1.11-.63 2.14-.63 1.4 0 2.07 1.04l3.2 4.05q-1.85 2.16-4.14 3.62-2.3 1.46-4.8 2.34-2.49.88-5.08 1.24-2.59.35-5.02.35-4.81 0-8.95-1.59-4.14-1.6-7.2-4.73t-4.82-7.74q-1.75-4.61-1.75-10.68 0-4.73 1.53-8.89 1.53-4.17 4.38-7.25 2.86-3.08 6.98-4.88t9.29-1.8q4.37 0 8.06 1.4 3.69 1.39 6.34 4.07 2.66 2.68 4.16 6.57 1.51 3.89 1.51 8.89 0 2.51-.54 3.39t-2.07.88m20.57-22.45.76 3.64q1.4-1.39 2.95-2.59 1.55-1.19 3.28-2.02 1.74-.84 3.72-1.31t4.32-.47q3.78 0 6.7 1.28 2.93 1.29 4.88 3.6 1.96 2.32 2.97 5.54 1.02 3.22 1.02 7.09v29.38h-11.12v-29.38q0-4.24-1.93-6.55-1.94-2.32-5.9-2.32-2.88 0-5.4 1.3-2.52 1.31-4.77 3.56v33.39h-11.11v-46.17h6.79q2.16 0 2.84 2.03m56.52 44.86q-6.03 0-9.25-3.4t-3.22-9.38v-25.78h-4.72q-.9 0-1.53-.59t-.63-1.75v-4.41l7.42-1.22 2.34-12.6q.23-.9.86-1.39.63-.5 1.62-.5h5.76v14.53h12.33v7.93h-12.33v25.02q0 2.16 1.05 3.37 1.06 1.22 2.91 1.22 1.03 0 1.73-.25t1.21-.52q.52-.27.93-.52.4-.24.81-.24.49 0 .81.24.31.25.67.74l3.33 5.4q-2.43 2.03-5.58 3.06-3.15 1.04-6.52 1.04"/></svg>