<svg xmlns="http://www.w3.org/2000/svg" width="1200" height="1500" viewBox="0 0 1200 1500"><rect width="100%" height="100%" fill="#1f2937"/><path fill="#ffffff" d="m296.34 717.8-3.75 7.11q-.67 1.18-1.43 1.71-.75.53-1.87.53-1.18 0-2.55-.87-1.37-.86-3.28-1.93-1.9-1.06-4.45-1.93t-6.02-.87q-3.14 0-5.49.76-2.35.75-3.95 2.1-1.59 1.34-2.38 3.22-.78 1.87-.78 4.11 0 2.86 1.6 4.76 1.59 1.91 4.22 3.25 2.64 1.35 6 2.41t6.88 2.27q3.53 1.2 6.89 2.8 3.36 1.59 5.99 4.03 2.64 2.44 4.23 5.96 1.6 3.53 1.6 8.57 0 5.49-1.88 10.28-1.87 4.79-5.49 8.34-3.61 3.56-8.82 5.6-5.2 2.05-11.92 2.05-3.87 0-7.62-.76t-7.2-2.16q-3.44-1.4-6.46-3.36-3.03-1.96-5.38-4.36l4.42-7.23q.56-.78 1.46-1.31.9-.54 1.9-.54 1.4 0 3.03 1.15 1.62 1.15 3.86 2.55t5.24 2.55q2.99 1.15 7.19 1.15 6.44 0 9.97-3.06 3.53-3.05 3.53-8.76 0-3.19-1.6-5.21-1.59-2.01-4.22-3.39-2.64-1.37-6-2.32t-6.83-2.07-6.83-2.69-5.99-4.09-4.23-6.3-1.6-9.32q0-4.43 1.77-8.63 1.76-4.2 5.12-7.44 3.36-3.25 8.29-5.21t11.31-1.96q7.17 0 13.22 2.24t10.3 6.27m42.73 58.52v-9.69q-5.99.28-10.08 1.04-4.09.75-6.55 1.93-2.47 1.18-3.53 2.74-1.06 1.57-1.06 3.42 0 3.64 2.15 5.21 2.16 1.57 5.63 1.57 4.26 0 7.36-1.54 3.11-1.54 6.08-4.68m-29.23-30.18-2.47-4.43q9.92-9.07 23.86-9.07 5.04 0 9.02 1.65 3.97 1.65 6.72 4.59 2.74 2.94 4.17 7.03t1.43 8.96v36.29h-6.28q-1.96 0-3.02-.59t-1.68-2.38l-1.23-4.14q-2.19 1.96-4.26 3.44-2.07 1.49-4.31 2.49-2.24 1.01-4.79 1.54-2.55.54-5.63.54-3.64 0-6.72-.98t-5.32-2.94-3.47-4.88q-1.23-2.91-1.23-6.77 0-2.19.73-4.34.73-2.16 2.38-4.12t4.28-3.69q2.63-1.74 6.47-3.03t8.93-2.1q5.1-.81 11.65-.98v-3.36q0-5.77-2.46-8.54-2.47-2.77-7.12-2.77-3.36 0-5.57.78-2.21.79-3.89 1.77t-3.05 1.76q-1.37.79-3.05.79-1.46 0-2.47-.76t-1.62-1.76m67.93-8.96.84 6.49q2.68-5.15 6.38-8.09t8.74-2.94q3.97 0 6.38 1.74l-.9 10.36q-.28 1-.81 1.42t-1.43.42q-.84 0-2.49-.28t-3.22-.28q-2.29 0-4.09.68-1.79.67-3.22 1.93-1.42 1.26-2.52 3.05-1.09 1.79-2.04 4.09v35.39h-13.83V733.7h8.12q2.13 0 2.97.76t1.12 2.72m59.92 39.14v-9.69q-6 .28-10.08 1.04-4.09.75-6.56 1.93-2.46 1.18-3.52 2.74-1.07 1.57-1.07 3.42 0 3.64 2.16 5.21 2.15 1.57 5.63 1.57 4.25 0 7.36-1.54t6.08-4.68m-29.24-30.18-2.46-4.43q9.91-9.07 23.86-9.07 5.04 0 9.01 1.65 3.98 1.65 6.72 4.59 2.75 2.94 4.17 7.03 1.43 4.09 1.43 8.96v36.29h-6.27q-1.96 0-3.02-.59-1.07-.59-1.68-2.38l-1.24-4.14q-2.18 1.96-4.25 3.44-2.07 1.49-4.31 2.49-2.24 1.01-4.79 1.54-2.55.54-5.63.54-3.64 0-6.72-.98t-5.32-2.94-3.47-4.88q-1.23-2.91-1.23-6.77 0-2.19.72-4.34.73-2.16 2.38-4.12 1.66-1.96 4.29-3.69 2.63-1.74 6.47-3.03 3.83-1.29 8.93-2.1 5.09-.81 11.65-.98v-3.36q0-5.77-2.47-8.54-2.46-2.77-7.11-2.77-3.36 0-5.57.78-2.21.79-3.89 1.77t-3.06 1.76q-1.37.79-3.05.79-1.45 0-2.46-.76t-1.63-1.76m69.56-38.2v31.92q3.36-3.13 7.39-5.09t9.46-1.96q4.71 0 8.35 1.59 3.64 1.6 6.07 4.48 2.44 2.89 3.7 6.89 1.26 4.01 1.26 8.82v36.57h-13.83v-36.57q0-5.26-2.41-8.15-2.41-2.88-7.34-2.88-3.58 0-6.72 1.62-3.13 1.63-5.93 4.43v41.55h-13.84v-83.22zm109.59 2.24v52.2q0 6.83-1.68 12.32-1.68 5.48-5.01 9.35-3.34 3.86-8.32 5.93-4.98 2.08-11.59 2.08-3.03 0-5.94-.37-2.91-.36-6.1-1.15.17-2.24.39-4.48t.39-4.48q.17-1.23.98-1.98.81-.76 2.33-.76.95 0 2.49.39t3.89.39q3.19 0 5.66-.92 2.46-.92 4.11-2.94t2.49-5.24.84-7.81v-52.53zm40.49 22.63q6.38 0 11.62 2.07 5.23 2.07 8.96 5.88 3.72 3.81 5.74 9.3 2.01 5.48 2.01 12.26 0 6.83-2.01 12.32-2.02 5.49-5.74 9.35-3.73 3.87-8.96 5.94-5.24 2.07-11.62 2.07-6.44 0-11.71-2.07-5.26-2.07-8.99-5.94-3.72-3.86-5.76-9.35-2.05-5.49-2.05-12.32 0-6.78 2.05-12.26 2.04-5.49 5.76-9.3 3.73-3.81 8.99-5.88 5.27-2.07 11.71-2.07m0 48.55q7.16 0 10.61-4.82 3.44-4.81 3.44-14.11 0-9.29-3.44-14.17-3.45-4.87-10.61-4.87-7.28 0-10.78 4.9t-3.5 14.14 3.5 14.09q3.5 4.84 10.78 4.84m52.75-73.42v31.92q3.36-3.13 7.39-5.09t9.46-1.96q4.71 0 8.35 1.59 3.64 1.6 6.07 4.48 2.44 2.89 3.7 6.89 1.26 4.01 1.26 8.82v36.57h-13.83v-36.57q0-5.26-2.41-8.15-2.41-2.88-7.34-2.88-3.58 0-6.72 1.62-3.13 1.63-5.93 4.43v41.55h-13.83v-83.22zm61.32 28.28.95 4.54q1.74-1.74 3.67-3.22t4.09-2.52q2.15-1.04 4.62-1.62 2.46-.59 5.37-.59 4.71 0 8.35 1.59 3.64 1.6 6.07 4.48 2.44 2.89 3.7 6.89 1.26 4.01 1.26 8.82v36.57h-13.83v-36.57q0-5.26-2.41-8.15-2.41-2.88-7.34-2.88-3.58 0-6.72 1.62-3.13 1.63-5.93 4.43v41.55h-13.84V733.7h8.46q2.69 0 3.53 2.52m89.37 3.7-3.13 4.98q-.56.9-1.18 1.26-.61.37-1.57.37-1 0-2.15-.56t-2.66-1.26-3.45-1.26q-1.93-.56-4.56-.56-4.09 0-6.41 1.73-2.33 1.74-2.33 4.54 0 1.85 1.21 3.11 1.2 1.26 3.19 2.21t4.51 1.71q2.52.75 5.12 1.65 2.61.9 5.13 2.04 2.52 1.15 4.5 2.92 1.99 1.76 3.2 4.22 1.2 2.47 1.2 5.94 0 4.14-1.48 7.64-1.49 3.5-4.4 6.05t-7.2 3.98q-4.28 1.43-9.88 1.43-2.97 0-5.8-.54-2.82-.53-5.43-1.48-2.6-.95-4.81-2.24-2.22-1.29-3.9-2.8l3.2-5.26q.61-.96 1.45-1.46t2.13-.5 2.44.72q1.14.73 2.66 1.57 1.51.84 3.55 1.57 2.05.73 5.18.73 2.47 0 4.23-.59t2.91-1.54 1.68-2.21.53-2.61q0-2.01-1.2-3.3t-3.19-2.24-4.54-1.71q-2.55-.75-5.21-1.65t-5.2-2.1q-2.55-1.2-4.54-3.05t-3.19-4.54q-1.21-2.69-1.21-6.49 0-3.53 1.4-6.72 1.4-3.2 4.12-5.58t6.78-3.8q4.06-1.43 9.38-1.43 5.93 0 10.8 1.96 4.88 1.96 8.12 5.15m36.46-7.11q6.38 0 11.62 2.07t8.96 5.88 5.74 9.3q2.02 5.48 2.02 12.26 0 6.83-2.02 12.32t-5.74 9.35q-3.72 3.87-8.96 5.94T867.99 792q-6.44 0-11.7-2.07-5.27-2.07-8.99-5.94-3.73-3.86-5.77-9.35t-2.04-12.32q0-6.78 2.04-12.26 2.04-5.49 5.77-9.3 3.72-3.81 8.99-5.88 5.26-2.07 11.7-2.07m0 48.55q7.17 0 10.61-4.82 3.45-4.81 3.45-14.11 0-9.29-3.45-14.17-3.44-4.87-10.61-4.87-7.28 0-10.78 4.9t-3.5 14.14 3.5 14.09q3.5 4.84 10.78 4.84m50.9-45.14.96 4.54q1.73-1.74 3.66-3.22 1.94-1.48 4.09-2.52 2.16-1.04 4.62-1.62 2.47-.59 5.38-.59 4.7 0 8.34 1.59 3.64 1.6 6.08 4.48 2.43 2.89 3.69 6.89 1.26 4.01 1.26 8.82v36.57h-13.83v-36.57q0-5.26-2.41-8.15-2.4-2.88-7.33-2.88-3.59 0-6.72 1.62-3.14 1.63-5.94 4.43v41.55h-13.83V733.7h8.46q2.68 0 3.52 2.52"/></svg>