<svg xmlns="http://www.w3.org/2000/svg" width="1200" height="900" viewBox="0 0 1200 900"><rect width="100%" height="100%" fill="#1f2937"/><path fill="#ffffff" d="M262.16 455.94q.56 0 1 .44l2.7 2.93q-2.24 2.78-5.52 4.26t-7.87 1.48q-4.1 0-7.38-1.4-3.28-1.41-5.6-3.91t-3.55-5.96q-1.24-3.47-1.24-7.58 0-4.15 1.32-7.61 1.33-3.45 3.74-5.95t5.75-3.89 7.4-1.39q4.02 0 7.15 1.32 3.12 1.33 5.32 3.47l-2.3 3.19q-.2.31-.52.54t-.88.23q-.38 0-.79-.22t-.9-.54q-.48-.32-1.12-.7-.63-.38-1.48-.7-.84-.32-1.95-.53-1.11-.22-2.56-.22-2.47 0-4.53.88-2.05.88-3.53 2.55t-2.29 4.08q-.82 2.41-.82 5.49 0 3.11.88 5.54.88 2.42 2.39 4.08 1.5 1.65 3.54 2.53t4.39.88q1.4 0 2.53-.15 1.14-.15 2.09-.48.96-.34 1.81-.86.86-.52 1.7-1.29.26-.23.54-.37t.58-.14m19-17.87q2.91 0 5.29.94 2.39.95 4.08 2.68 1.7 1.73 2.61 4.23.92 2.5.92 5.59 0 3.11-.92 5.61-.91 2.5-2.61 4.26-1.69 1.76-4.08 2.7-2.38.94-5.29.94-2.93 0-5.33-.94t-4.09-2.7q-1.7-1.76-2.63-4.26t-.93-5.61q0-3.09.93-5.59t2.63-4.23q1.69-1.73 4.09-2.68 2.4-.94 5.33-.94m0 22.11q3.26 0 4.83-2.2 1.57-2.19 1.57-6.42t-1.57-6.45-4.83-2.22q-3.32 0-4.91 2.23t-1.59 6.44 1.59 6.41q1.59 2.21 4.91 2.21m23.28-20.12.38 2.96q1.23-2.35 2.91-3.69t3.98-1.34q1.81 0 2.91.79l-.41 4.72q-.13.46-.37.65t-.65.19q-.38 0-1.14-.13-.75-.12-1.46-.12-1.05 0-1.86.3-.82.31-1.47.88-.65.58-1.15 1.39-.5.82-.93 1.86v16.12h-6.3v-26.16h3.7q.97 0 1.35.34.38.35.51 1.24m19.76 6.07v11.73q1.07 1.3 2.34 1.83 1.26.54 2.74.54 1.43 0 2.57-.54 1.15-.53 1.95-1.63.81-1.1 1.24-2.77t.43-3.94q0-2.29-.37-3.88-.36-1.6-1.05-2.59-.69-1-1.67-1.46-.99-.46-2.23-.46-1.97 0-3.35.83-1.37.83-2.6 2.34m-.84-6.51.51 2.43q1.61-1.81 3.65-2.94 2.04-1.12 4.79-1.12 2.14 0 3.92.89 1.77.9 3.06 2.59 1.28 1.7 1.99 4.19.7 2.48.7 5.69 0 2.94-.79 5.44-.79 2.49-2.26 4.33t-3.54 2.87q-2.08 1.03-4.66 1.03-2.19 0-3.75-.67-1.55-.68-2.78-1.88v10.71h-6.29v-34.7h3.85q1.22 0 1.6 1.14m35.09-1.55q2.91 0 5.29.94 2.39.95 4.08 2.68 1.7 1.73 2.62 4.23.91 2.5.91 5.59 0 3.11-.91 5.61-.92 2.5-2.62 4.26-1.69 1.76-4.08 2.7-2.38.94-5.29.94-2.93 0-5.33-.94t-4.09-2.7q-1.7-1.76-2.63-4.26t-.93-5.61q0-3.09.93-5.59t2.63-4.23q1.69-1.73 4.09-2.68 2.4-.94 5.33-.94m0 22.11q3.26 0 4.83-2.2 1.57-2.19 1.57-6.42t-1.57-6.45-4.83-2.22q-3.31 0-4.91 2.23-1.59 2.23-1.59 6.44t1.59 6.41q1.6 2.21 4.91 2.21m23.28-20.12.38 2.96q1.23-2.35 2.91-3.69t3.98-1.34q1.81 0 2.91.79l-.41 4.72q-.13.46-.37.65t-.65.19q-.38 0-1.14-.13-.75-.12-1.46-.12-1.05 0-1.86.3-.82.31-1.47.88-.65.58-1.15 1.39-.5.82-.93 1.86v16.12h-6.3v-26.16h3.7q.97 0 1.35.34.38.35.51 1.24m27.29 17.82v-4.41q-2.73.13-4.59.47-1.86.35-2.99.88-1.12.54-1.6 1.25-.49.72-.49 1.56 0 1.65.98 2.37.99.71 2.57.71 1.93 0 3.35-.7t2.77-2.13m-13.31-13.74-1.13-2.02q4.52-4.13 10.87-4.13 2.29 0 4.1.75 1.81.76 3.06 2.1 1.25 1.33 1.9 3.2.65 1.86.65 4.08v16.52h-2.85q-.9 0-1.38-.27-.49-.27-.77-1.08l-.56-1.89q-.99.89-1.93 1.57-.95.68-1.97 1.13-1.02.46-2.18.71-1.16.24-2.56.24-1.66 0-3.06-.45-1.4-.44-2.42-1.34-1.02-.89-1.58-2.22-.57-1.32-.57-3.08 0-1 .34-1.98.33-.98 1.08-1.87t1.95-1.68q1.2-.8 2.95-1.38 1.74-.59 4.06-.96t5.31-.44v-1.53q0-2.63-1.13-3.89-1.12-1.27-3.23-1.27-1.53 0-2.54.36t-1.77.81q-.77.44-1.39.8-.63.36-1.39.36-.67 0-1.12-.35-.46-.34-.74-.8m34.09 20.91q-3.42 0-5.24-1.93-1.82-1.92-1.82-5.31v-14.62h-2.68q-.51 0-.87-.33t-.36-.99v-2.5l4.21-.69 1.33-7.14q.13-.51.48-.79.36-.28.92-.28h3.26v8.24h6.99v4.48h-6.99v14.18q0 1.23.6 1.91.6.69 1.65.69.58 0 .98-.14t.69-.29.52-.29.46-.14q.28 0 .46.14t.38.42l1.89 3.06q-1.38 1.14-3.16 1.73-1.79.59-3.7.59m15.22-16.5h11.89q0-1.22-.35-2.31-.34-1.08-1.03-1.9-.69-.81-1.75-1.29-1.06-.47-2.46-.47-2.73 0-4.3 1.56-1.56 1.55-2 4.41m16.07 3.8H444.9q.15 2.01.71 3.48t1.48 2.42q.92.96 2.18 1.43t2.79.47 2.64-.36q1.11-.35 1.94-.79.83-.43 1.45-.79.63-.35 1.21-.35.79 0 1.18.58l1.81 2.3q-1.05 1.22-2.35 2.05t-2.72 1.33q-1.41.49-2.88.7-1.46.2-2.84.2-2.73 0-5.07-.9-2.35-.91-4.08-2.68-1.74-1.77-2.73-4.39-1-2.61-1-6.05 0-2.68.87-5.04t2.49-4.1q1.61-1.75 3.95-2.77 2.33-1.02 5.26-1.02 2.48 0 4.57.79t3.59 2.31q1.51 1.51 2.36 3.72.86 2.21.86 5.04 0 1.42-.31 1.92t-1.17.5m26.44-6.04h5.13q1.88 0 3.29-.48 1.4-.47 2.33-1.35t1.39-2.14.46-2.82q0-1.48-.46-2.68-.46-1.19-1.38-2.04-.92-.84-2.32-1.28-1.4-.45-3.31-.45h-5.13zm-6.86-18.54h11.99q3.69 0 6.4.86 2.7.87 4.46 2.43 1.76 1.55 2.61 3.72.86 2.17.86 4.74 0 2.68-.89 4.91-.9 2.23-2.68 3.84-1.79 1.61-4.48 2.5t-6.28.89h-5.13v12.98h-6.86zm36.14 12.29.38 2.96q1.22-2.35 2.9-3.69 1.69-1.34 3.98-1.34 1.81 0 2.91.79l-.41 4.72q-.13.46-.37.65t-.65.19q-.38 0-1.13-.13-.76-.12-1.47-.12-1.04 0-1.86.3-.82.31-1.47.88-.65.58-1.14 1.39-.5.82-.94 1.86v16.12h-6.29v-26.16h3.69q.97 0 1.36.34.38.35.51 1.24m25.04-1.99q2.9 0 5.29.94 2.38.95 4.08 2.68 1.69 1.73 2.61 4.23t.92 5.59q0 3.11-.92 5.61t-2.61 4.26q-1.7 1.76-4.08 2.7-2.39.94-5.29.94-2.94 0-5.33-.94-2.4-.94-4.1-2.7-1.69-1.76-2.62-4.26t-.93-5.61q0-3.09.93-5.59t2.62-4.23q1.7-1.73 4.1-2.68 2.39-.94 5.33-.94m0 22.11q3.26 0 4.83-2.2 1.57-2.19 1.57-6.42t-1.57-6.45-4.83-2.22q-3.32 0-4.91 2.23-1.6 2.23-1.6 6.44t1.6 6.41q1.59 2.21 4.91 2.21m26.44 4.87q-3.42 0-5.24-1.93-1.82-1.92-1.82-5.31v-14.62h-2.68q-.51 0-.87-.33t-.36-.99v-2.5l4.21-.69 1.33-7.14q.13-.51.48-.79.36-.28.92-.28h3.26v8.24h6.99v4.48h-6.99v14.18q0 1.23.6 1.91.6.69 1.65.69.59 0 .98-.14.4-.14.69-.29t.52-.29.46-.14q.28 0 .46.14t.38.42l1.89 3.06q-1.38 1.14-3.16 1.73-1.79.59-3.7.59m15.22-16.5h11.89q0-1.22-.35-2.31-.34-1.08-1.03-1.9-.69-.81-1.75-1.29-1.06-.47-2.46-.47-2.73 0-4.3 1.56-1.56 1.55-2 4.41m16.07 3.8h-16.19q.15 2.01.71 3.48t1.48 2.42q.92.96 2.18 1.43t2.79.47 2.64-.36q1.11-.35 1.94-.79.83-.43 1.45-.79.63-.35 1.21-.35.79 0 1.18.58l1.81 2.3q-1.05 1.22-2.35 2.05t-2.72 1.33q-1.41.49-2.88.7-1.46.2-2.84.2-2.73 0-5.07-.9-2.35-.91-4.08-2.68-1.74-1.77-2.73-4.39-1-2.61-1-6.05 0-2.68.87-5.04t2.49-4.1q1.62-1.75 3.95-2.77t5.26-1.02q2.48 0 4.57.79t3.59 2.31q1.51 1.51 2.36 3.72.86 2.21.86 5.04 0 1.42-.31 1.92-.3.5-1.17.5m26.59-10.63-1.65 2.29q-.28.36-.55.56-.27.21-.78.21-.48 0-.94-.3-.46-.29-1.1-.66t-1.52-.66q-.88-.3-2.18-.3-1.65 0-2.9.6t-2.08 1.72q-.83 1.13-1.24 2.72t-.41 3.61q0 2.09.45 3.72t1.29 2.74 2.04 1.68q1.2.58 2.7.58 1.51 0 2.44-.37t1.56-.82q.64-.44 1.11-.81.48-.37 1.06-.37.77 0 1.15.58l1.81 2.3q-1.05 1.22-2.27 2.05t-2.54 1.33q-1.31.49-2.7.7-1.39.2-2.77.2-2.42 0-4.56-.9-2.14-.91-3.75-2.64-1.61-1.74-2.54-4.25t-.93-5.72q0-2.88.83-5.34.83-2.47 2.44-4.26 1.6-1.8 3.97-2.82 2.38-1.02 5.46-1.02 2.93 0 5.14.94 2.21.95 3.96 2.71m12.91 23.33q-3.42 0-5.24-1.93-1.83-1.92-1.83-5.31v-14.62h-2.67q-.51 0-.87-.33t-.36-.99v-2.5l4.21-.69 1.33-7.14q.12-.51.48-.79t.92-.28h3.26v8.24h6.99v4.48h-6.99v14.18q0 1.23.6 1.91.6.69 1.65.69.58 0 .98-.14.39-.14.69-.29.29-.15.52-.29t.46-.14q.28 0 .46.14t.38.42l1.89 3.06q-1.38 1.14-3.16 1.73-1.79.59-3.7.59m10.45-26.57h6.33v26.16h-6.33zm7.19-7.63q0 .82-.33 1.53-.33.72-.88 1.25-.55.54-1.29.86-.73.31-1.58.31-.81 0-1.54-.31-.73-.32-1.26-.86-.54-.53-.86-1.25-.31-.71-.31-1.53 0-.84.31-1.58.32-.74.86-1.27.53-.54 1.26-.86t1.54-.32q.85 0 1.58.32.74.32 1.29.86.55.53.88 1.27t.33 1.58m17.14 7.22q2.91 0 5.29.94 2.39.95 4.08 2.68 1.7 1.73 2.61 4.23.92 2.5.92 5.59 0 3.11-.92 5.61-.91 2.5-2.61 4.26-1.69 1.76-4.08 2.7-2.38.94-5.29.94-2.93 0-5.33-.94t-4.09-2.7q-1.7-1.76-2.63-4.26t-.93-5.61q0-3.09.93-5.59t2.63-4.23q1.69-1.73 4.09-2.68 2.4-.94 5.33-.94m0 22.11q3.26 0 4.83-2.2 1.57-2.19 1.57-6.42t-1.57-6.45-4.83-2.22q-3.32 0-4.91 2.23t-1.59 6.44 1.59 6.41q1.59 2.21 4.91 2.21m23.18-20.56.43 2.07q.79-.79 1.67-1.47.88-.67 1.86-1.14.99-.48 2.11-.74 1.12-.27 2.45-.27 2.14 0 3.8.73 1.65.72 2.76 2.04 1.11 1.31 1.69 3.13.57 1.83.57 4.02v16.65h-6.3v-16.65q0-2.4-1.1-3.71-1.09-1.32-3.34-1.32-1.63 0-3.06.74-1.42.74-2.7 2.02v18.92h-6.3v-26.16h3.85q1.23 0 1.61 1.14m54.44 17.75-9.66-9.97q-2.04 1.33-2.97 3t-.93 3.58q0 1.4.48 2.53.48 1.12 1.31 1.9.83.77 1.94 1.19t2.36.42q2.24 0 4.11-.7 1.86-.7 3.36-1.95m7.17-.74 7.72 8.01h-6.17q-.97 0-1.57-.23-.59-.23-1.26-.97l-2.55-2.63q-2.42 1.99-5.43 3.12-3.01 1.12-6.5 1.12-2.12 0-4.17-.73t-3.66-2.1q-1.61-1.38-2.59-3.33t-.98-4.4q0-1.73.56-3.28.56-1.54 1.56-2.86.99-1.33 2.37-2.39 1.37-1.06 3.01-1.82-1.38-1.91-1.99-3.74-.61-1.82-.61-3.63 0-1.91.7-3.64.7-1.72 2.02-2.99 1.33-1.28 3.27-2.03t4.38-.75q2.25 0 4.02.69t3.03 1.83q1.27 1.15 1.99 2.63.73 1.48.86 3.06l-4.01.84q-1.12.23-1.63-.97-.23-.66-.6-1.26t-.88-1.05q-.51-.44-1.19-.71-.69-.27-1.59-.27-1.07 0-1.91.37t-1.41 1q-.58.62-.88 1.45-.31.83-.31 1.75 0 .76.15 1.48.16.71.51 1.42.36.72.93 1.47.58.75 1.42 1.62l9.79 10.17q.84-1.6 1.35-3.39.51-1.78.67-3.62.07-.58.4-.94.34-.36.92-.36h3.93q-.03 3.37-.97 6.43t-2.7 5.63m45.72-25.4-1.71 3.24q-.31.54-.65.78t-.85.24q-.54 0-1.16-.39-.63-.4-1.5-.88-.86-.49-2.02-.88-1.16-.4-2.74-.4-1.43 0-2.5.35-1.07.34-1.8.95-.73.62-1.09 1.47-.35.85-.35 1.87 0 1.3.72 2.17.73.87 1.93 1.48t2.73 1.1q1.53.48 3.13 1.03 1.61.55 3.14 1.28 1.53.72 2.73 1.83t1.93 2.72q.72 1.6.72 3.9 0 2.5-.85 4.68-.86 2.18-2.5 3.8-1.65 1.62-4.02 2.55t-5.43.93q-1.76 0-3.47-.35-1.71-.34-3.27-.98-1.57-.64-2.95-1.53t-2.45-1.99l2.02-3.29q.25-.35.66-.6.41-.24.87-.24.63 0 1.37.52.74.53 1.76 1.16 1.02.64 2.39 1.17 1.36.52 3.27.52 2.94 0 4.54-1.39 1.61-1.39 1.61-3.99 0-1.46-.73-2.37-.72-.92-1.92-1.55-1.2-.62-2.73-1.06-1.53-.43-3.11-.94t-3.11-1.22q-1.53-.72-2.73-1.86-1.2-1.15-1.93-2.87-.72-1.72-.72-4.25 0-2.01.8-3.93.8-1.91 2.33-3.39t3.78-2.37q2.24-.89 5.15-.89 3.26 0 6.02 1.02 2.75 1.02 4.69 2.85m10.61 17.32h11.88q0-1.22-.34-2.31-.35-1.08-1.04-1.9-.69-.81-1.74-1.29-1.06-.47-2.46-.47-2.73 0-4.3 1.56-1.57 1.55-2 4.41m16.06 3.8h-16.19q.15 2.01.71 3.48t1.48 2.42q.92.96 2.18 1.43t2.79.47 2.64-.36q1.11-.35 1.94-.79.83-.43 1.46-.79.62-.35 1.21-.35.79 0 1.17.58l1.81 2.3q-1.05 1.22-2.35 2.05t-2.71 1.33q-1.42.49-2.88.7-1.47.2-2.85.2-2.72 0-5.07-.9-2.35-.91-4.08-2.68t-2.73-4.39q-.99-2.61-.99-6.05 0-2.68.86-5.04.87-2.36 2.49-4.1 1.62-1.75 3.95-2.77 2.34-1.02 5.27-1.02 2.47 0 4.56.79t3.6 2.31q1.5 1.51 2.36 3.72.85 2.21.85 5.04 0 1.42-.31 1.92-.3.5-1.17.5m26.6-10.63-1.66 2.29q-.28.36-.55.56-.27.21-.78.21-.48 0-.94-.3-.46-.29-1.1-.66-.63-.37-1.51-.66-.88-.3-2.18-.3-1.66 0-2.91.6t-2.08 1.72q-.83 1.13-1.23 2.72-.41 1.59-.41 3.61 0 2.09.44 3.72.45 1.63 1.29 2.74t2.04 1.68q1.2.58 2.7.58 1.51 0 2.44-.37t1.57-.82q.64-.44 1.11-.81t1.06-.37q.76 0 1.14.58l1.81 2.3q-1.04 1.22-2.27 2.05-1.22.83-2.53 1.33-1.32.49-2.71.7-1.39.2-2.76.2-2.43 0-4.57-.9-2.14-.91-3.75-2.64-1.6-1.74-2.53-4.25t-.93-5.72q0-2.88.82-5.34.83-2.47 2.44-4.26 1.61-1.8 3.98-2.82t5.45-1.02q2.94 0 5.14.94 2.21.95 3.97 2.71m20.42-3.24h6.3v26.16h-3.85q-1.25 0-1.58-1.15l-.43-2.09q-1.61 1.63-3.55 2.64t-4.56 1.01q-2.14 0-3.79-.73-1.64-.73-2.77-2.05-1.12-1.33-1.69-3.15t-.57-4.02v-16.62h6.29v16.62q0 2.4 1.11 3.71 1.11 1.32 3.33 1.32 1.63 0 3.06-.73t2.7-2zm18.08 1.58.39 2.96q1.22-2.35 2.9-3.69 1.69-1.34 3.98-1.34 1.81 0 2.91.79l-.41 4.72q-.13.46-.37.65t-.65.19q-.38 0-1.13-.13-.76-.12-1.47-.12-1.05 0-1.86.3-.82.31-1.47.88-.65.58-1.15 1.39-.49.82-.93 1.86v16.12h-6.3v-26.16h3.7q.97 0 1.35.34.39.35.51 1.24m13.67-1.58h6.33v26.16h-6.33zm7.19-7.63q0 .82-.33 1.53-.33.72-.88 1.25-.55.54-1.29.86-.74.31-1.58.31-.81 0-1.54-.31-.73-.32-1.26-.86-.54-.53-.86-1.25-.32-.71-.32-1.53 0-.84.32-1.58t.86-1.27q.53-.54 1.26-.86t1.54-.32q.84 0 1.58.32t1.29.86q.55.53.88 1.27t.33 1.58m14.28 34.2q-3.41 0-5.24-1.93-1.82-1.92-1.82-5.31v-14.62h-2.68q-.51 0-.87-.33-.35-.33-.35-.99v-2.5l4.2-.69 1.33-7.14q.13-.51.49-.79.35-.28.91-.28h3.27v8.24h6.98v4.48h-6.98v14.18q0 1.23.6 1.91.6.69 1.64.69.59 0 .98-.14.4-.14.69-.29t.52-.29.46-.14q.28 0 .46.14t.38.42l1.89 3.06q-1.38 1.14-3.16 1.73-1.79.59-3.7.59m28.97-26.57h5.05l-14.26 33.35q-.28.66-.72 1.01-.45.34-1.37.34h-4.69l4.9-10.5-10.58-24.2h5.53q.74 0 1.16.35.42.36.62.82l5.56 13.57q.28.68.47 1.37.2.69.37 1.41.23-.72.46-1.42t.51-1.39l5.26-13.54q.2-.51.67-.84t1.06-.33"/></svg>