<svg xmlns="http://www.w3.org/2000/svg" width="1920" height="800" viewBox="0 0 1920 800"><rect width="100%" height="100%" fill="#1f2937"/><path fill="#ffffff" d="M394.745 393.27h8.64q3.18 0 5.55-.79 2.36-.8 3.93-2.28 1.57-1.49 2.35-3.61.77-2.13.77-4.76 0-2.49-.77-4.51-.78-2.02-2.33-3.44-1.54-1.42-3.91-2.17-2.36-.75-5.59-.75h-8.64zm-11.57-31.26h20.21q6.24 0 10.79 1.46 4.56 1.47 7.53 4.09t4.41 6.28q1.44 3.65 1.44 7.99 0 4.52-1.51 8.28-1.5 3.76-4.51 6.47t-7.55 4.22q-4.54 1.5-10.6 1.5h-8.64v21.89h-11.57zm60.93 20.73.65 4.99q2.06-3.96 4.9-6.22t6.71-2.26q3.05 0 4.9 1.34l-.69 7.95q-.21.78-.62 1.1t-1.1.32q-.64 0-1.91-.21-1.27-.22-2.47-.22-1.77 0-3.14.52-1.38.51-2.48 1.48-1.09.97-1.93 2.34-.84 1.38-1.57 3.14v27.18h-10.62v-44.12h6.23q1.64 0 2.28.58.65.58.86 2.09m42.23-3.36q4.9 0 8.92 1.59 4.02 1.6 6.88 4.52t4.41 7.14q1.55 4.21 1.55 9.41 0 5.25-1.55 9.46-1.55 4.22-4.41 7.19-2.86 2.96-6.88 4.55-4.02 1.6-8.92 1.6-4.95 0-8.99-1.6-4.04-1.59-6.9-4.55-2.86-2.97-4.43-7.19-1.57-4.21-1.57-9.46 0-5.2 1.57-9.41 1.57-4.22 4.43-7.14t6.9-4.52q4.04-1.59 8.99-1.59m0 37.28q5.5 0 8.15-3.69 2.64-3.7 2.64-10.84t-2.64-10.88q-2.65-3.74-8.15-3.74-5.59 0-8.28 3.76-2.69 3.77-2.69 10.86 0 7.1 2.69 10.82 2.69 3.71 8.28 3.71m43.6 7.53h-10.62v-36.12l-3.83-.6q-1.24-.26-2-.88-.75-.63-.75-1.79v-4.34h6.58v-3.27q0-3.78 1.14-6.79t3.27-5.12 5.18-3.23q3.05-1.11 6.88-1.11 3.05 0 5.67.81l-.21 5.34q-.04.6-.34.96-.31.37-.8.56-.49.2-1.14.26-.64.06-1.38.06-1.89 0-3.37.41t-2.52 1.42q-1.03 1.01-1.57 2.67-.53 1.65-.53 4.1v2.93h11.48v7.57h-11.14zm25.5-27.13h20.04q0-2.07-.58-3.89-.58-1.83-1.74-3.21-1.17-1.37-2.95-2.17t-4.15-.8q-4.6 0-7.24 2.63-2.65 2.62-3.38 7.44m27.09 6.4h-27.31q.26 3.4 1.21 5.87.94 2.48 2.49 4.09t3.68 2.41q2.13.79 4.71.79t4.45-.6 3.27-1.33q1.39-.73 2.45-1.34 1.05-.6 2.04-.6 1.33 0 1.98.99l3.05 3.87q-1.76 2.06-3.96 3.46-2.19 1.4-4.57 2.24-2.39.84-4.86 1.18-2.48.35-4.8.35-4.6 0-8.56-1.53-3.95-1.53-6.88-4.52-2.92-2.99-4.6-7.39-1.67-4.41-1.67-10.22 0-4.51 1.46-8.49t4.19-6.92q2.73-2.95 6.67-4.67 3.93-1.72 8.88-1.72 4.17 0 7.69 1.34 3.53 1.33 6.07 3.89 2.53 2.56 3.97 6.28t1.44 8.49q0 2.41-.51 3.25-.52.83-1.98.83m39.77-18.62-2.4 3.83q-.43.69-.91.97-.47.28-1.2.28-.77 0-1.66-.43-.88-.43-2.04-.97t-2.64-.97q-1.49-.43-3.51-.43-3.14 0-4.92 1.34-1.79 1.33-1.79 3.48 0 1.42.93 2.39.92.96 2.45 1.69 1.53.74 3.46 1.32 1.94.58 3.94 1.26 2 .69 3.93 1.57 1.94.89 3.46 2.24 1.53 1.35 2.45 3.25.93 1.89.93 4.55 0 3.19-1.14 5.87-1.14 2.69-3.38 4.65-2.23 1.95-5.52 3.05t-7.59 1.1q-2.28 0-4.45-.41t-4.17-1.14-3.7-1.72-2.99-2.15l2.45-4.04q.47-.73 1.12-1.12.64-.39 1.63-.39t1.87.56 2.05 1.21q1.16.64 2.73 1.2t3.97.56q1.9 0 3.25-.45t2.24-1.19q.88-.73 1.29-1.69.41-.97.41-2 0-1.55-.93-2.54-.92-.99-2.45-1.72t-3.48-1.31q-1.96-.58-4-1.27-2.05-.69-4-1.61-1.96-.93-3.48-2.35-1.53-1.42-2.46-3.48-.92-2.06-.92-4.99 0-2.71 1.07-5.16 1.08-2.45 3.17-4.28 2.08-1.82 5.2-2.92t7.2-1.1q4.56 0 8.3 1.51 3.74 1.5 6.23 3.95m37.8 0-2.41 3.83q-.43.69-.9.97t-1.2.28q-.78 0-1.66-.43t-2.04-.97-2.65-.97q-1.48-.43-3.5-.43-3.14 0-4.92 1.34-1.79 1.33-1.79 3.48 0 1.42.93 2.39.92.96 2.45 1.69 1.52.74 3.46 1.32 1.93.58 3.93 1.26 2 .69 3.94 1.57 1.93.89 3.46 2.24t2.45 3.25q.93 1.89.93 4.55 0 3.19-1.14 5.87-1.14 2.69-3.38 4.65-2.24 1.95-5.53 3.05-3.28 1.1-7.58 1.1-2.28 0-4.46-.41-2.17-.41-4.17-1.14t-3.69-1.72q-1.7-.99-2.99-2.15l2.45-4.04q.47-.73 1.12-1.12.64-.39 1.63-.39t1.87.56 2.04 1.21q1.16.64 2.73 1.2t3.98.56q1.89 0 3.25-.45 1.35-.45 2.23-1.19.89-.73 1.29-1.69.41-.97.41-2 0-1.55-.92-2.54-.93-.99-2.45-1.72-1.53-.73-3.49-1.31-1.95-.58-4-1.27-2.04-.69-3.99-1.61-1.96-.93-3.49-2.35-1.52-1.42-2.45-3.48-.92-2.06-.92-4.99 0-2.71 1.07-5.16 1.08-2.45 3.16-4.28 2.09-1.82 5.21-2.92 3.11-1.1 7.2-1.1 4.56 0 8.3 1.51 3.74 1.5 6.23 3.95m8.82-4.77h10.66v44.12h-10.66zm12.12-12.86q0 1.38-.56 2.58-.55 1.21-1.48 2.11-.92.9-2.17 1.44t-2.67.54q-1.37 0-2.6-.54-1.22-.54-2.13-1.44-.9-.9-1.44-2.11-.53-1.2-.53-2.58 0-1.41.53-2.66.54-1.25 1.44-2.15.91-.9 2.13-1.44 1.23-.54 2.6-.54 1.42 0 2.67.54t2.17 1.44q.93.9 1.48 2.15.56 1.25.56 2.66m28.9 12.17q4.9 0 8.92 1.59 4.02 1.6 6.88 4.52t4.41 7.14q1.55 4.21 1.55 9.41 0 5.25-1.55 9.46-1.55 4.22-4.41 7.19-2.86 2.96-6.88 4.55-4.02 1.6-8.92 1.6-4.95 0-8.99-1.6-4.04-1.59-6.9-4.55-2.86-2.97-4.43-7.19-1.57-4.21-1.57-9.46 0-5.2 1.57-9.41 1.57-4.22 4.43-7.14t6.9-4.52q4.04-1.59 8.99-1.59m0 37.28q5.5 0 8.15-3.69 2.64-3.7 2.64-10.84t-2.64-10.88q-2.65-3.74-8.15-3.74-5.59 0-8.28 3.76-2.69 3.77-2.69 10.86 0 7.1 2.69 10.82 2.69 3.71 8.28 3.71m39.09-34.65.73 3.48q1.33-1.33 2.81-2.47 1.49-1.14 3.14-1.94 1.66-.79 3.55-1.24 1.89-.46 4.13-.46 3.61 0 6.41 1.23 2.79 1.22 4.66 3.44 1.87 2.21 2.84 5.29.97 3.07.97 6.77v28.08h-10.62v-28.08q0-4.04-1.85-6.26-1.85-2.21-5.64-2.21-2.75 0-5.16 1.25-2.4 1.24-4.55 3.39v31.91h-10.63v-44.12h6.5q2.06 0 2.71 1.94m62.6 30.78v-7.43q-4.6.21-7.74.79-3.13.58-5.03 1.49-1.89.9-2.71 2.1-.81 1.21-.81 2.62 0 2.8 1.65 4 1.66 1.21 4.32 1.21 3.27 0 5.66-1.18 2.39-1.19 4.66-3.6m-22.44-23.17-1.89-3.4q7.61-6.97 18.31-6.97 3.87 0 6.93 1.27 3.05 1.27 5.16 3.53 2.1 2.26 3.2 5.4 1.1 3.13 1.1 6.88v27.86h-4.82q-1.5 0-2.32-.45t-1.29-1.83l-.95-3.18q-1.67 1.5-3.26 2.64-1.6 1.14-3.32 1.92-1.72.77-3.67 1.18-1.96.41-4.32.41-2.8 0-5.16-.75-2.37-.76-4.09-2.26-1.72-1.51-2.66-3.74-.95-2.24-.95-5.21 0-1.67.56-3.33.56-1.65 1.83-3.16 1.26-1.5 3.29-2.84 2.02-1.33 4.96-2.32 2.95-.99 6.86-1.61 3.91-.63 8.94-.75v-2.58q0-4.43-1.89-6.56t-5.46-2.13q-2.58 0-4.28.6t-2.99 1.36q-1.29.75-2.34 1.35t-2.34.6q-1.12 0-1.89-.58-.78-.58-1.25-1.35m42.91-29.33h10.62v63.9h-10.62zm86.52 49.24q.94 0 1.68.73l4.55 4.94q-3.78 4.69-9.31 7.18-5.52 2.5-13.26 2.5-6.92 0-12.45-2.37-5.53-2.36-9.44-6.58-3.91-4.21-6-10.06-2.08-5.85-2.08-12.77 0-7.01 2.23-12.83 2.24-5.83 6.3-10.05 4.07-4.21 9.7-6.55 5.63-2.35 12.47-2.35 6.79 0 12.06 2.24t8.97 5.85l-3.87 5.37q-.35.52-.89.91-.53.38-1.48.38-.64 0-1.33-.36-.69-.37-1.51-.91-.81-.53-1.89-1.18-1.07-.64-2.49-1.18t-3.29-.9q-1.87-.37-4.32-.37-4.17 0-7.64 1.48-3.46 1.49-5.95 4.3-2.5 2.82-3.87 6.88-1.38 4.07-1.38 9.27 0 5.25 1.49 9.33 1.48 4.09 4.02 6.88 2.53 2.8 5.97 4.28t7.4 1.48q2.36 0 4.28-.25 1.91-.26 3.52-.82 1.62-.56 3.06-1.44t2.86-2.17q.43-.39.9-.63.47-.23.99-.23m12.64-49.24h10.62v63.9h-10.62zm29.63 36.77h20.04q0-2.07-.59-3.89-.58-1.83-1.74-3.21-1.16-1.37-2.94-2.17-1.79-.8-4.15-.8-4.6 0-7.25 2.63-2.64 2.62-3.37 7.44m27.09 6.4h-27.31q.26 3.4 1.21 5.87.94 2.48 2.49 4.09t3.68 2.41q2.13.79 4.71.79t4.45-.6 3.26-1.33q1.4-.73 2.45-1.34 1.06-.6 2.05-.6 1.33 0 1.98.99l3.05 3.87q-1.76 2.06-3.96 3.46-2.19 1.4-4.58 2.24-2.38.84-4.86 1.18-2.47.35-4.79.35-4.6 0-8.56-1.53-3.95-1.53-6.88-4.52-2.92-2.99-4.6-7.39-1.68-4.41-1.68-10.22 0-4.51 1.47-8.49 1.46-3.98 4.19-6.92 2.73-2.95 6.66-4.67 3.94-1.72 8.88-1.72 4.17 0 7.7 1.34 3.53 1.33 6.06 3.89 2.54 2.56 3.98 6.28t1.44 8.49q0 2.41-.51 3.25-.52.83-1.98.83m33.75 9.33v-7.43q-4.6.21-7.74.79t-5.03 1.49q-1.89.9-2.71 2.1-.81 1.21-.81 2.62 0 2.8 1.65 4 1.66 1.21 4.32 1.21 3.27 0 5.66-1.18 2.38-1.19 4.66-3.6m-22.44-23.17-1.9-3.4q7.62-6.97 18.32-6.97 3.87 0 6.93 1.27 3.05 1.27 5.16 3.53 2.1 2.26 3.2 5.4 1.1 3.13 1.1 6.88v27.86h-4.82q-1.51 0-2.32-.45-.82-.45-1.29-1.83l-.95-3.18q-1.68 1.5-3.27 2.64t-3.31 1.92q-1.72.77-3.67 1.18-1.96.41-4.33.41-2.79 0-5.16-.75-2.36-.76-4.08-2.26-1.72-1.51-2.67-3.74-.94-2.24-.94-5.21 0-1.67.56-3.33.56-1.65 1.82-3.16 1.27-1.5 3.29-2.84 2.02-1.33 4.97-2.32t6.86-1.61q3.91-.63 8.94-.75v-2.58q0-4.43-1.89-6.56t-5.46-2.13q-2.58 0-4.28.6t-2.99 1.36q-1.29.75-2.34 1.35t-2.34.6q-1.12 0-1.9-.58-.77-.58-1.24-1.35m51.98-7.61.73 3.48q1.34-1.33 2.82-2.47t3.14-1.94q1.66-.79 3.55-1.24 1.89-.46 4.13-.46 3.61 0 6.4 1.23 2.8 1.22 4.67 3.44 1.87 2.21 2.84 5.29.96 3.07.96 6.77v28.08h-10.62v-28.08q0-4.04-1.85-6.26-1.85-2.21-5.63-2.21-2.75 0-5.16 1.25-2.41 1.24-4.56 3.39v31.91h-10.62v-44.12h6.49q2.07 0 2.71 1.94m39.65-1.94h10.66v44.12h-10.66zm12.13-12.86q0 1.38-.56 2.58-.56 1.21-1.49 2.11-.92.9-2.17 1.44t-2.66.54q-1.38 0-2.61-.54-1.22-.54-2.12-1.44-.91-.9-1.45-2.11-.53-1.2-.53-2.58 0-1.41.53-2.66.54-1.25 1.45-2.15.9-.9 2.12-1.44 1.23-.54 2.61-.54 1.41 0 2.66.54t2.17 1.44q.93.9 1.49 2.15t.56 2.66m18.57 14.8.73 3.48q1.34-1.33 2.82-2.47t3.14-1.94q1.65-.79 3.55-1.24 1.89-.46 4.12-.46 3.62 0 6.41 1.23 2.8 1.22 4.67 3.44 1.87 2.21 2.83 5.29.97 3.07.97 6.77v28.08h-10.62v-28.08q0-4.04-1.85-6.26-1.85-2.21-5.63-2.21-2.75 0-5.16 1.25-2.41 1.24-4.56 3.39v31.91h-10.62v-44.12h6.49q2.07 0 2.71 1.94m55.43 19.05q1.98 0 3.44-.54t2.43-1.49q.97-.94 1.46-2.27.49-1.34.49-2.93 0-3.27-1.95-5.18-1.96-1.91-5.87-1.91t-5.87 1.91-1.96 5.18q0 1.55.5 2.88.49 1.34 1.46 2.3.97.97 2.45 1.51t3.42.54m12 25.11q0-1.29-.78-2.11-.77-.82-2.11-1.27-1.33-.45-3.11-.66-1.79-.22-3.79-.33-2-.1-4.13-.19-2.12-.09-4.14-.34-1.77.98-2.86 2.32-1.1 1.33-1.1 3.09 0 1.17.58 2.18t1.85 1.74 3.29 1.14 4.94.41q2.97 0 5.12-.46 2.15-.45 3.55-1.24 1.4-.8 2.04-1.9.65-1.09.65-2.38m-2.11-44.59h12.68v3.95q0 1.89-2.28 2.32l-3.95.74q.9 2.27.9 4.98 0 3.27-1.31 5.92-1.31 2.64-3.63 4.49-2.33 1.85-5.49 2.86t-6.81 1.01q-1.29 0-2.5-.13-1.2-.13-2.36-.34-2.06 1.24-2.06 2.79 0 1.33 1.22 1.96 1.23.62 3.25.88t4.6.32q2.58.07 5.29.28 2.71.22 5.29.75 2.58.54 4.6 1.7t3.24 3.16q1.23 2 1.23 5.14 0 2.93-1.44 5.68t-4.17 4.9-6.71 3.46-9.05 1.31q-4.99 0-8.69-.96-3.7-.97-6.15-2.58-2.45-1.62-3.65-3.72-1.21-2.11-1.21-4.39 0-3.1 1.87-5.18 1.88-2.09 5.14-3.33-1.76-.91-2.79-2.41-1.03-1.51-1.03-3.96 0-.99.36-2.04.37-1.05 1.08-2.09.71-1.03 1.78-1.95 1.08-.93 2.54-1.66-3.36-1.8-5.27-4.81t-1.91-7.06q0-3.26 1.31-5.91 1.31-2.64 3.65-4.51 2.35-1.87 5.55-2.86t6.99-.99q2.84 0 5.33.58t4.56 1.7m77.96-13.72-2.88 5.46q-.52.9-1.1 1.31t-1.44.41q-.9 0-1.96-.67-1.05-.66-2.51-1.48t-3.42-1.48q-1.96-.67-4.62-.67-2.41 0-4.22.58-1.8.58-3.03 1.61-1.22 1.04-1.83 2.48-.6 1.44-.6 3.16 0 2.19 1.23 3.65 1.22 1.46 3.24 2.5 2.02 1.03 4.6 1.84 2.58.82 5.29 1.75 2.71.92 5.29 2.15 2.58 1.22 4.6 3.09t3.25 4.58 1.23 6.58q0 4.21-1.45 7.89-1.44 3.68-4.21 6.41t-6.77 4.3-9.16 1.57q-2.97 0-5.85-.58t-5.52-1.66q-2.65-1.07-4.97-2.58-2.32-1.5-4.13-3.35l3.4-5.55q.43-.6 1.12-1.01.68-.41 1.46-.41 1.07 0 2.32.88t2.97 1.96q1.72 1.07 4.02 1.96 2.3.88 5.52.88 4.95 0 7.66-2.35 2.71-2.34 2.71-6.73 0-2.45-1.23-3.99-1.22-1.55-3.25-2.61-2.02-1.05-4.6-1.78t-5.24-1.59q-2.67-.86-5.25-2.07-2.58-1.2-4.6-3.13-2.02-1.94-3.25-4.84-1.22-2.9-1.22-7.16 0-3.4 1.35-6.62 1.36-3.23 3.94-5.72 2.58-2.5 6.36-4 3.79-1.51 8.69-1.51 5.5 0 10.15 1.72 4.64 1.72 7.91 4.82m17.89 29.2h20.03q0-2.07-.58-3.89-.58-1.83-1.74-3.21-1.16-1.37-2.94-2.17-1.79-.8-4.15-.8-4.6 0-7.25 2.63-2.64 2.62-3.37 7.44m27.09 6.4h-27.31q.26 3.4 1.2 5.87.95 2.48 2.5 4.09t3.67 2.41q2.13.79 4.71.79t4.45-.6 3.27-1.33 2.45-1.34q1.06-.6 2.05-.6 1.33 0 1.97.99l3.06 3.87q-1.77 2.06-3.96 3.46t-4.58 2.24-4.86 1.18q-2.47.35-4.79.35-4.6 0-8.56-1.53t-6.88-4.52-4.6-7.39q-1.68-4.41-1.68-10.22 0-4.51 1.46-8.49 1.47-3.98 4.2-6.92 2.73-2.95 6.66-4.67 3.94-1.72 8.88-1.72 4.17 0 7.7 1.34 3.52 1.33 6.06 3.89t3.98 6.28 1.44 8.49q0 2.41-.52 3.25-.51.83-1.97.83m19.82-20.72.64 4.99q2.07-3.96 4.91-6.22 2.83-2.26 6.7-2.26 3.06 0 4.91 1.34l-.69 7.95q-.22.78-.63 1.1-.4.32-1.09.32-.65 0-1.92-.21-1.26-.22-2.47-.22-1.76 0-3.14.52-1.37.51-2.47 1.48t-1.94 2.34q-.83 1.38-1.56 3.14v27.18h-10.63v-44.12h6.24q1.63 0 2.28.58.64.58.86 2.09m54.09-2.67h8.39l-17.5 44.12h-9.64l-17.5-44.12h8.78q1.2 0 1.99.56.8.56 1.06 1.42l8.51 23.56q.69 2.07 1.21 4.05.51 1.97.9 3.95.43-1.98.95-3.95.51-1.98 1.24-4.05l8.69-23.56q.3-.86 1.07-1.42.78-.56 1.85-.56m14.36 0h10.67v44.12h-10.67zm12.13-12.86q0 1.38-.56 2.58-.56 1.21-1.48 2.11-.93.9-2.17 1.44-1.25.54-2.67.54-1.38 0-2.6-.54-1.23-.54-2.13-1.44t-1.44-2.11q-.54-1.2-.54-2.58 0-1.41.54-2.66t1.44-2.15 2.13-1.44q1.22-.54 2.6-.54 1.42 0 2.67.54 1.24.54 2.17 1.44.92.9 1.48 2.15t.56 2.66m43.77 18.32-2.79 3.87q-.47.6-.93.95-.45.34-1.31.34-.81 0-1.59-.49-.77-.5-1.85-1.12-1.07-.62-2.56-1.12-1.48-.49-3.67-.49-2.8 0-4.9 1.01-2.11 1.01-3.51 2.9t-2.08 4.58q-.69 2.69-.69 6.08 0 3.53.75 6.28t2.17 4.63q1.42 1.87 3.44 2.83 2.02.97 4.56.97t4.11-.62q1.57-.63 2.64-1.38 1.08-.75 1.87-1.37.8-.63 1.79-.63 1.29 0 1.93.99l3.05 3.87q-1.76 2.06-3.82 3.46-2.07 1.4-4.28 2.24-2.22.84-4.56 1.18-2.34.35-4.66.35-4.09 0-7.7-1.53t-6.32-4.45q-2.71-2.93-4.28-7.16-1.57-4.24-1.57-9.66 0-4.85 1.4-9 1.39-4.15 4.1-7.18 2.71-3.04 6.71-4.76t9.2-1.72q4.95 0 8.67 1.59 3.72 1.6 6.68 4.56m15.44 11.53h20.04q0-2.07-.58-3.89-.58-1.83-1.74-3.21-1.16-1.37-2.95-2.17-1.78-.8-4.15-.8-4.6 0-7.24 2.63-2.65 2.62-3.38 7.44m27.09 6.4h-27.3q.25 3.4 1.2 5.87.95 2.48 2.49 4.09 1.55 1.61 3.68 2.41 2.13.79 4.71.79t4.45-.6 3.27-1.33 2.45-1.34q1.05-.6 2.04-.6 1.33 0 1.98.99l3.05 3.87q-1.76 2.06-3.95 3.46-2.2 1.4-4.58 2.24-2.39.84-4.86 1.18-2.47.35-4.8.35-4.6 0-8.55-1.53-3.96-1.53-6.88-4.52-2.93-2.99-4.6-7.39-1.68-4.41-1.68-10.22 0-4.51 1.46-8.49t4.19-6.92q2.73-2.95 6.67-4.67 3.93-1.72 8.88-1.72 4.17 0 7.69 1.34 3.53 1.33 6.07 3.89 2.53 2.56 3.97 6.28 1.45 3.72 1.45 8.49 0 2.41-.52 3.25-.52.83-1.98.83m39.78-18.62-2.41 3.83q-.43.69-.9.97-.48.28-1.21.28-.77 0-1.65-.43-.89-.43-2.05-.97t-2.64-.97-3.51-.43q-3.13 0-4.92 1.34-1.78 1.33-1.78 3.48 0 1.42.92 2.39.93.96 2.45 1.69 1.53.74 3.46 1.32 1.94.58 3.94 1.26 2 .69 3.93 1.57 1.94.89 3.46 2.24 1.53 1.35 2.45 3.25.93 1.89.93 4.55 0 3.19-1.14 5.87-1.14 2.69-3.38 4.65-2.23 1.95-5.52 3.05t-7.59 1.1q-2.28 0-4.45-.41t-4.17-1.14-3.7-1.72-2.99-2.15l2.45-4.04q.48-.73 1.12-1.12.65-.39 1.63-.39.99 0 1.87.56.89.56 2.05 1.21 1.16.64 2.73 1.2t3.98.56q1.89 0 3.24-.45 1.36-.45 2.24-1.19.88-.73 1.29-1.69.41-.97.41-2 0-1.55-.93-2.54-.92-.99-2.45-1.72t-3.48-1.31q-1.96-.58-4-1.27t-4-1.61q-1.96-.93-3.48-2.35-1.53-1.42-2.45-3.48-.93-2.06-.93-4.99 0-2.71 1.08-5.16 1.07-2.45 3.16-4.28 2.08-1.82 5.2-2.92t7.2-1.1q4.56 0 8.3 1.51 3.74 1.5 6.24 3.95"/></svg>