<svg xmlns="http://www.w3.org/2000/svg" width="1920" height="800" viewBox="0 0 1920 800"><rect width="100%" height="100%" fill="#1f2937"/><path fill="#ffffff" d="m459.615 344.065-5.09 9.65q-.91 1.6-1.94 2.32-1.02.72-2.54.72-1.6 0-3.46-1.18-1.86-1.17-4.45-2.62-2.58-1.44-6.04-2.62t-8.17-1.18q-4.26 0-7.45 1.03-3.19 1.02-5.36 2.85-2.16 1.82-3.23 4.37-1.06 2.54-1.06 5.58 0 3.88 2.17 6.46 2.16 2.59 5.73 4.41 3.58 1.83 8.14 3.27t9.34 3.08q4.79 1.63 9.35 3.8 4.56 2.16 8.13 5.47 3.58 3.31 5.74 8.09 2.17 4.79 2.17 11.63 0 7.45-2.55 13.95-2.54 6.5-7.45 11.32-4.9 4.83-11.97 7.6-7.06 2.78-16.18 2.78-5.25 0-10.34-1.03t-9.77-2.93q-4.67-1.9-8.77-4.56-4.11-2.66-7.3-5.92l6-9.81q.76-1.06 1.98-1.78 1.22-.73 2.58-.73 1.9 0 4.11 1.56 2.2 1.56 5.24 3.46t7.11 3.46q4.06 1.56 9.76 1.56 8.74 0 13.53-4.15 4.79-4.14 4.79-11.89 0-4.33-2.17-7.07-2.16-2.73-5.73-4.6-3.58-1.86-8.14-3.15t-9.27-2.81-9.27-3.65-8.13-5.55-5.74-8.55-2.17-12.65q0-6.01 2.4-11.71 2.39-5.7 6.95-10.1 4.56-4.41 11.25-7.07t15.35-2.66q9.73 0 17.94 3.04t13.98 8.51m31.62 51.6h35.41q0-3.64-1.02-6.87-1.03-3.23-3.08-5.67-2.05-2.43-5.21-3.83-3.15-1.41-7.33-1.41-8.13 0-12.81 4.64-4.67 4.63-5.96 13.14m47.88 11.33h-48.26q.45 6 2.13 10.37 1.67 4.37 4.4 7.22 2.74 2.85 6.5 4.26 3.76 1.4 8.32 1.4t7.87-1.06 5.78-2.36q2.47-1.29 4.33-2.35 1.86-1.07 3.61-1.07 2.35 0 3.49 1.75l5.4 6.84q-3.12 3.65-6.99 6.12-3.88 2.47-8.1 3.95-4.21 1.48-8.58 2.09t-8.48.61q-8.13 0-15.12-2.7t-12.16-7.98-8.13-13.07q-2.97-7.79-2.97-18.05 0-7.98 2.59-15.01 2.58-7.03 7.41-12.24 4.82-5.2 11.78-8.24 6.95-3.04 15.69-3.04 7.37 0 13.6 2.35 6.24 2.36 10.72 6.88t7.03 11.1q2.55 6.57 2.55 15.01 0 4.25-.92 5.74-.91 1.48-3.49 1.48m79.27-31.69-4.94 6.84q-.84 1.06-1.64 1.67t-2.32.61q-1.44 0-2.81-.88-1.37-.87-3.27-1.97-1.9-1.11-4.52-1.98t-6.5-.87q-4.94 0-8.66 1.78-3.72 1.79-6.19 5.13-2.47 3.35-3.69 8.1t-1.22 10.75q0 6.23 1.33 11.1 1.33 4.86 3.84 8.17 2.51 3.3 6.08 5.01t8.06 1.71q4.48 0 7.26-1.1 2.77-1.1 4.67-2.43t3.31-2.43q1.4-1.11 3.15-1.11 2.28 0 3.42 1.75l5.4 6.84q-3.12 3.65-6.77 6.12t-7.56 3.95-8.06 2.09q-4.14.61-8.24.61-7.22 0-13.61-2.7-6.38-2.7-11.17-7.86-4.79-5.17-7.56-12.66-2.77-7.48-2.77-17.06 0-8.59 2.47-15.92 2.47-7.34 7.25-12.69 4.79-5.36 11.86-8.4t16.26-3.04q8.74 0 15.32 2.81 6.57 2.81 11.82 8.06m60.87-9.66h18.77v77.98h-11.47q-3.73 0-4.71-3.42l-1.3-6.23q-4.78 4.86-10.56 7.86-5.78 3.01-13.6 3.01-6.39 0-11.29-2.17t-8.25-6.12q-3.34-3.95-5.05-9.38-1.71-5.44-1.71-11.97v-49.56h18.77v49.56q0 7.14 3.31 11.05 3.3 3.92 9.92 3.92 4.86 0 9.12-2.17 4.25-2.16 8.05-5.96zm53.89 4.72 1.14 8.81q3.64-6.99 8.66-10.98t11.86-3.99q5.39 0 8.66 2.36l-1.22 14.06q-.38 1.36-1.1 1.93t-1.94.57q-1.14 0-3.38-.38t-4.37-.38q-3.11 0-5.55.92-2.43.91-4.37 2.62-1.93 1.71-3.42 4.14-1.48 2.43-2.77 5.55v48.03h-18.77v-77.98h11.02q2.89 0 4.03 1.03t1.52 3.69m40.73-4.72h18.85v77.98h-18.85zm21.43-22.72q0 2.43-.98 4.56-.99 2.13-2.63 3.72-1.63 1.6-3.83 2.55-2.21.95-4.72.95-2.43 0-4.59-.95-2.17-.95-3.77-2.55-1.59-1.59-2.54-3.72t-.95-4.56q0-2.51.95-4.71.95-2.21 2.54-3.8 1.6-1.6 3.77-2.55 2.16-.95 4.59-.95 2.51 0 4.72.95 2.2.95 3.83 2.55 1.64 1.59 2.63 3.8.98 2.2.98 4.71m42.56 101.92q-10.18 0-15.61-5.74-5.44-5.74-5.44-15.85v-43.55h-7.98q-1.52 0-2.58-.98-1.07-.99-1.07-2.97v-7.45l12.54-2.05 3.96-21.28q.38-1.52 1.44-2.35 1.06-.84 2.74-.84h9.72v24.55h20.83v13.37h-20.83v42.26q0 3.65 1.79 5.7t4.9 2.05q1.75 0 2.93-.42 1.18-.41 2.05-.87t1.56-.87q.68-.42 1.37-.42.83 0 1.36.42.54.41 1.14 1.25l5.63 9.12q-4.11 3.42-9.43 5.17t-11.02 1.75m86.34-79.2h15.05l-42.49 99.41q-.83 1.98-2.16 3-1.33 1.03-4.07 1.03h-13.98l14.59-31.31-31.54-72.13h16.49q2.21 0 3.46 1.07 1.25 1.06 1.86 2.43l16.57 40.43q.84 2.05 1.41 4.11.57 2.05 1.1 4.18.68-2.13 1.37-4.22.68-2.09 1.52-4.14l15.65-40.36q.61-1.52 2.02-2.51 1.4-.99 3.15-.99m127.91-21.58-5.09 9.65q-.92 1.6-1.94 2.32-1.03.72-2.55.72-1.59 0-3.46-1.18-1.86-1.17-4.44-2.62-2.59-1.44-6.04-2.62-3.46-1.18-8.17-1.18-4.26 0-7.45 1.03-3.19 1.02-5.36 2.85-2.17 1.82-3.23 4.37-1.06 2.54-1.06 5.58 0 3.88 2.16 6.46 2.17 2.59 5.74 4.41 3.57 1.83 8.13 3.27t9.35 3.08q4.79 1.63 9.35 3.8 4.56 2.16 8.13 5.47t5.74 8.09q2.16 4.79 2.16 11.63 0 7.45-2.54 13.95-2.55 6.5-7.45 11.32-4.9 4.83-11.97 7.6-7.07 2.78-16.19 2.78-5.24 0-10.33-1.03-5.1-1.03-9.77-2.93t-8.78-4.56q-4.1-2.66-7.29-5.92l6-9.81q.76-1.06 1.98-1.78 1.21-.73 2.58-.73 1.9 0 4.1 1.56 2.21 1.56 5.25 3.46t7.1 3.46q4.07 1.56 9.77 1.56 8.74 0 13.53-4.15 4.79-4.14 4.79-11.89 0-4.33-2.17-7.07-2.17-2.73-5.74-4.6-3.57-1.86-8.13-3.15t-9.27-2.81-9.27-3.65-8.14-5.55q-3.57-3.42-5.73-8.55-2.17-5.13-2.17-12.65 0-6.01 2.39-11.71 2.4-5.7 6.96-10.1 4.56-4.41 11.25-7.07 6.68-2.66 15.35-2.66 9.73 0 17.93 3.04 8.21 3.04 13.99 8.51m31.61 51.6h35.42q0-3.64-1.03-6.87-1.02-3.23-3.07-5.67-2.06-2.43-5.21-3.83-3.15-1.41-7.33-1.41-8.14 0-12.81 4.64-4.67 4.63-5.97 13.14m47.88 11.33h-48.26q.46 6 2.13 10.37t4.41 7.22 6.5 4.26q3.76 1.4 8.32 1.4t7.87-1.06q3.3-1.06 5.77-2.36 2.47-1.29 4.33-2.35 1.87-1.07 3.61-1.07 2.36 0 3.5 1.75l5.4 6.84q-3.12 3.65-7 6.12-3.87 2.47-8.09 3.95t-8.59 2.09-8.47.61q-8.13 0-15.13-2.7-6.99-2.7-12.16-7.98-5.16-5.28-8.13-13.07-2.96-7.79-2.96-18.05 0-7.98 2.58-15.01 2.59-7.03 7.41-12.24 4.83-5.2 11.78-8.24 6.96-3.04 15.7-3.04 7.37 0 13.6 2.35 6.23 2.36 10.72 6.88 4.48 4.52 7.03 11.1 2.54 6.57 2.54 15.01 0 4.25-.91 5.74-.91 1.48-3.5 1.48m35.04-36.63 1.14 8.81q3.65-6.99 8.66-10.98 5.02-3.99 11.86-3.99 5.4 0 8.66 2.36l-1.21 14.06q-.38 1.36-1.1 1.93-.73.57-1.94.57-1.14 0-3.38-.38-2.25-.38-4.37-.38-3.12 0-5.55.92-2.43.91-4.37 2.62t-3.42 4.14-2.78 5.55v48.03h-18.77v-77.98h11.02q2.89 0 4.03 1.03t1.52 3.69m95.61-4.72h14.82l-30.93 77.98h-17.03l-30.93-77.98h15.5q2.13 0 3.54.99 1.4.99 1.86 2.51l15.05 41.65q1.21 3.65 2.13 7.14.91 3.5 1.59 6.99.76-3.49 1.67-6.99.92-3.49 2.21-7.14l15.35-41.65q.53-1.52 1.9-2.51t3.27-.99m25.38 0h18.85v77.98h-18.85zm21.43-22.72q0 2.43-.98 4.56-.99 2.13-2.63 3.72-1.63 1.6-3.83 2.55-2.21.95-4.72.95-2.43 0-4.59-.95-2.17-.95-3.77-2.55-1.59-1.59-2.54-3.72t-.95-4.56q0-2.51.95-4.71.95-2.21 2.54-3.8 1.6-1.6 3.77-2.55 2.16-.95 4.59-.95 2.51 0 4.72.95 2.2.95 3.83 2.55 1.64 1.59 2.63 3.8.98 2.2.98 4.71m77.37 32.38-4.94 6.84q-.83 1.06-1.63 1.67t-2.32.61q-1.44 0-2.81-.88-1.37-.87-3.27-1.97-1.9-1.11-4.52-1.98t-6.5-.87q-4.94 0-8.66 1.78-3.73 1.79-6.2 5.13-2.47 3.35-3.68 8.1-1.22 4.75-1.22 10.75 0 6.23 1.33 11.1 1.33 4.86 3.84 8.17 2.51 3.3 6.08 5.01t8.05 1.71q4.49 0 7.26-1.1 2.78-1.1 4.68-2.43t3.3-2.43q1.41-1.11 3.16-1.11 2.28 0 3.42 1.75l5.39 6.84q-3.11 3.65-6.76 6.12t-7.56 3.95q-3.92 1.48-8.06 2.09t-8.25.61q-7.22 0-13.6-2.7t-11.17-7.86q-4.79-5.17-7.56-12.66-2.78-7.48-2.78-17.06 0-8.59 2.47-15.92 2.47-7.34 7.26-12.69 4.79-5.36 11.86-8.4 7.06-3.04 16.26-3.04 8.74 0 15.31 2.81 6.58 2.81 11.82 8.06m27.29 20.36h35.41q0-3.64-1.02-6.87-1.03-3.23-3.08-5.67-2.05-2.43-5.21-3.83-3.15-1.41-7.33-1.41-8.13 0-12.81 4.64-4.67 4.63-5.96 13.14m47.88 11.33h-48.26q.45 6 2.12 10.37 1.68 4.37 4.41 7.22 2.74 2.85 6.5 4.26 3.76 1.4 8.32 1.4t7.87-1.06q3.3-1.06 5.77-2.36 2.47-1.29 4.34-2.35 1.86-1.07 3.61-1.07 2.35 0 3.49 1.75l5.4 6.84q-3.12 3.65-6.99 6.12-3.88 2.47-8.1 3.95t-8.59 2.09-8.47.61q-8.13 0-15.12-2.7-7-2.7-12.16-7.98-5.17-5.28-8.14-13.07-2.96-7.79-2.96-18.05 0-7.98 2.58-15.01 2.59-7.03 7.41-12.24 4.83-5.2 11.78-8.24 6.96-3.04 15.7-3.04 7.37 0 13.6 2.35 6.23 2.36 10.72 6.88 4.48 4.52 7.03 11.1 2.54 6.57 2.54 15.01 0 4.25-.91 5.74-.91 1.48-3.49 1.48m70.3-32.91-4.26 6.76q-.76 1.22-1.6 1.71-.83.5-2.12.5-1.37 0-2.93-.76t-3.61-1.71-4.67-1.71q-2.63-.76-6.2-.76-5.55 0-8.7 2.35-3.15 2.36-3.15 6.16 0 2.51 1.63 4.22t4.33 3 6.12 2.32q3.42 1.02 6.95 2.24 3.54 1.22 6.96 2.77 3.42 1.56 6.12 3.96 2.69 2.39 4.33 5.73 1.63 3.35 1.63 8.06 0 5.62-2.01 10.37-2.02 4.75-5.97 8.21t-9.76 5.4q-5.82 1.94-13.42 1.94-4.03 0-7.86-.73-3.84-.72-7.38-2.01-3.53-1.29-6.53-3.04t-5.28-3.8l4.33-7.14q.83-1.3 1.97-1.98t2.89-.68 3.31.98q1.56.99 3.61 2.13t4.82 2.13q2.78.99 7.03.99 3.35 0 5.74-.8 2.4-.8 3.95-2.09 1.56-1.29 2.28-3 .73-1.71.73-3.54 0-2.73-1.64-4.48-1.63-1.75-4.33-3.04t-6.16-2.32q-3.45-1.02-7.06-2.24t-7.07-2.85-6.16-4.14-4.33-6.16-1.63-8.81q0-4.79 1.9-9.12 1.9-4.34 5.58-7.57 3.69-3.23 9.2-5.16 5.51-1.94 12.73-1.94 8.05 0 14.67 2.66 6.61 2.66 11.02 6.99"/></svg>