<svg xmlns="http://www.w3.org/2000/svg" width="1200" height="1500" viewBox="0 0 1200 1500"><rect width="100%" height="100%" fill="#1f2937"/><path fill="#ffffff" d="M293.835 698.095v68.04q0 8.9-2.19 16.06-2.19 7.15-6.53 12.19t-10.84 7.74-15.11 2.7q-3.94 0-7.74-.48-3.8-.47-7.96-1.49.22-2.92.51-5.84.3-2.92.51-5.84.22-1.61 1.28-2.59 1.06-.99 3.03-.99 1.24 0 3.25.51t5.07.51q4.17 0 7.38-1.2 3.21-1.21 5.36-3.83 2.16-2.63 3.25-6.83 1.1-4.2 1.1-10.18v-68.48zm52.78 29.49q8.32 0 15.15 2.71 6.83 2.7 11.68 7.66t7.48 12.12q2.63 7.15 2.63 15.99 0 8.9-2.63 16.05-2.63 7.16-7.48 12.2-4.85 5.03-11.68 7.73t-15.15 2.7q-8.39 0-15.26-2.7-6.86-2.7-11.71-7.73-4.86-5.04-7.52-12.2-2.66-7.15-2.66-16.05 0-8.84 2.66-15.99 2.66-7.16 7.52-12.12 4.85-4.96 11.71-7.66 6.87-2.71 15.26-2.71m0 63.3q9.35 0 13.84-6.28 4.48-6.28 4.48-18.4t-4.48-18.47q-4.49-6.35-13.84-6.35-9.49 0-14.05 6.39t-4.56 18.43q0 12.05 4.56 18.36 4.56 6.32 14.05 6.32m68.77-95.71v41.61q4.38-4.09 9.63-6.64 5.26-2.56 12.34-2.56 6.13 0 10.88 2.08 4.74 2.08 7.92 5.84 3.17 3.76 4.82 8.98 1.64 5.22 1.64 11.5v47.67h-18.03v-47.67q0-6.86-3.14-10.62t-9.56-3.76q-4.68 0-8.76 2.12-4.09 2.11-7.74 5.76v54.17h-18.03v-108.48zm79.93 36.87 1.24 5.91q2.27-2.26 4.79-4.2 2.51-1.93 5.32-3.28t6.03-2.12q3.21-.77 7-.77 6.14 0 10.88 2.08 4.75 2.08 7.92 5.84 3.18 3.76 4.82 8.98t1.64 11.5v47.67h-18.03v-47.67q0-6.86-3.14-10.62t-9.56-3.76q-4.67 0-8.76 2.12-4.09 2.11-7.74 5.76v54.17h-18.03v-74.9h11.02q3.51 0 4.6 3.29m166.15-24.02-4.89 9.27q-.88 1.53-1.86 2.23-.99.69-2.45.69-1.53 0-3.32-1.13t-4.27-2.52-5.8-2.52-7.85-1.13q-4.09 0-7.15.99-3.07.98-5.15 2.73-2.08 1.76-3.1 4.2-1.03 2.45-1.03 5.37 0 3.72 2.09 6.2 2.08 2.48 5.51 4.24 3.43 1.75 7.81 3.14 4.38 1.38 8.98 2.95t8.98 3.65 7.81 5.26q3.43 3.17 5.51 7.77t2.08 11.17q0 7.16-2.45 13.4-2.44 6.24-7.15 10.87-4.71 4.64-11.5 7.3-6.79 2.67-15.55 2.67-5.03 0-9.93-.99-4.89-.98-9.38-2.81-4.49-1.82-8.43-4.38-3.94-2.55-7.01-5.69l5.77-9.42q.73-1.02 1.9-1.71 1.17-.7 2.48-.7 1.83 0 3.94 1.5 2.12 1.49 5.04 3.32t6.83 3.32q3.9 1.5 9.38 1.5 8.39 0 12.99-3.98t4.6-11.42q0-4.17-2.08-6.79-2.08-2.63-5.51-4.42t-7.81-3.03-8.91-2.7-8.91-3.5q-4.38-2.05-7.81-5.33-3.43-3.29-5.51-8.22-2.08-4.92-2.08-12.15 0-5.77 2.3-11.24 2.3-5.48 6.68-9.71 4.38-4.24 10.8-6.79 6.43-2.56 14.75-2.56 9.34 0 17.23 2.92 7.88 2.92 13.43 8.18m34.16 95.63h-18.03v-74.9h11.03q3.5 0 4.6 3.29l1.16 5.55q1.97-2.19 4.13-4.02 2.15-1.83 4.6-3.14 2.44-1.31 5.25-2.08t6.17-.77q7.08 0 11.65 3.84 4.56 3.83 6.82 10.18 1.75-3.72 4.38-6.39 2.63-2.66 5.77-4.34t6.68-2.48q3.54-.81 7.11-.81 6.21 0 11.03 1.9t8.1 5.55q3.29 3.65 5 8.91 1.72 5.25 1.72 12.04v47.67h-18.03v-47.67q0-7.15-3.14-10.77-3.14-3.61-9.2-3.61-2.78 0-5.15.95t-4.16 2.74-2.81 4.49-1.02 6.2v47.67h-18.11v-47.67q0-7.52-3.02-10.95-3.03-3.43-8.87-3.43-3.95 0-7.34 1.93-3.4 1.94-6.32 5.3zm104.83-74.9h18.11v74.9h-18.11zm20.59-21.82q0 2.33-.95 4.38-.95 2.04-2.52 3.57-1.57 1.54-3.69 2.45-2.11.91-4.52.91-2.34 0-4.42-.91t-3.61-2.45q-1.53-1.53-2.45-3.57-.91-2.05-.91-4.38 0-2.41.91-4.53.92-2.12 2.45-3.65t3.61-2.45q2.08-.91 4.42-.91 2.41 0 4.52.91 2.12.92 3.69 2.45t2.52 3.65.95 4.53m40.88 97.89q-9.78 0-15-5.51t-5.22-15.22v-41.83h-7.67q-1.46 0-2.48-.95t-1.02-2.85v-7.15l12.04-1.97 3.8-20.44q.36-1.46 1.39-2.27 1.02-.8 2.62-.8h9.35v23.58h20v12.85h-20v40.59q0 3.5 1.71 5.47 1.72 1.97 4.71 1.97 1.68 0 2.81-.4t1.97-.84 1.5-.84 1.31-.4q.81 0 1.32.4t1.09 1.21l5.41 8.76q-3.95 3.28-9.06 4.96t-10.58 1.68m47.38-109.65v41.61q4.38-4.09 9.63-6.64 5.26-2.56 12.34-2.56 6.13 0 10.88 2.08 4.74 2.08 7.92 5.84 3.17 3.76 4.81 8.98 1.65 5.22 1.65 11.5v47.67h-18.03v-47.67q0-6.86-3.14-10.62t-9.57-3.76q-4.67 0-8.76 2.12-4.08 2.11-7.73 5.76v54.17h-18.04v-108.48z"/></svg>