<svg xmlns="http://www.w3.org/2000/svg" width="2400" height="900" viewBox="0 0 2400 900"><rect width="100%" height="100%" fill="#1f2937"/><path fill="#ffffff" d="M513.335 451.41h17.69q6.51 0 11.35-1.63t8.05-4.66q3.22-3.04 4.8-7.4 1.58-4.35 1.58-9.72 0-5.1-1.58-9.24t-4.75-7.04-8.01-4.44-11.44-1.54h-17.69zm-23.67-63.98h41.36q12.76 0 22.09 2.99 9.33 3 15.4 8.36 6.07 5.37 9.02 12.85t2.95 16.37q0 9.24-3.08 16.94t-9.24 13.24q-6.16 5.55-15.45 8.63-9.28 3.08-21.69 3.08h-17.69v44.79h-23.67zm124.7 42.42 1.32 10.21q4.22-8.1 10.03-12.72t13.73-4.62q6.24 0 10.03 2.73l-1.41 16.28q-.44 1.58-1.28 2.24-.83.66-2.24.66-1.32 0-3.92-.44-2.59-.44-5.06-.44-3.6 0-6.42 1.06-2.82 1.05-5.06 3.03t-3.96 4.8-3.21 6.42v55.62h-21.74v-90.29h12.76q3.35 0 4.67 1.19t1.76 4.27m86.41-6.87q10.03 0 18.26 3.26t14.08 9.24 9.02 14.61q3.17 8.62 3.17 19.27 0 10.74-3.17 19.36t-9.02 14.7q-5.85 6.07-14.08 9.32-8.23 3.26-18.26 3.26-10.12 0-18.39-3.26-8.27-3.25-14.12-9.32-5.86-6.08-9.07-14.7t-3.21-19.36q0-10.65 3.21-19.27 3.21-8.63 9.07-14.61 5.85-5.98 14.12-9.24t18.39-3.26m0 76.3q11.27 0 16.68-7.57t5.41-22.17q0-14.61-5.41-22.27-5.41-7.65-16.68-7.65-11.44 0-16.94 7.7t-5.5 22.22 5.5 22.13 16.94 7.61m89.23 15.4h-21.73v-73.92l-7.83-1.23q-2.56-.53-4.1-1.81-1.54-1.27-1.54-3.65v-8.89h13.47v-6.68q0-7.75 2.33-13.91t6.69-10.47q4.35-4.31 10.6-6.6t14.08-2.29q6.25 0 11.62 1.67l-.44 10.92q-.09 1.23-.71 1.98-.61.74-1.62 1.14-1.02.4-2.34.53t-2.81.13q-3.87 0-6.91.84-3.04.83-5.15 2.9t-3.21 5.46q-1.1 3.38-1.1 8.4v5.98h23.5v15.49h-22.8zm52.19-55.53h41.01q0-4.22-1.19-7.96t-3.57-6.56q-2.37-2.81-6.02-4.44-3.66-1.63-8.5-1.63-9.41 0-14.82 5.37-5.42 5.37-6.91 15.22m55.44 13.11h-55.88q.53 6.96 2.46 12.02 1.94 5.06 5.11 8.36 3.16 3.3 7.52 4.92 4.36 1.63 9.64 1.63t9.1-1.23q3.83-1.23 6.69-2.73 2.86-1.49 5.02-2.73 2.15-1.23 4.18-1.23 2.73 0 4.05 2.03l6.24 7.92q-3.6 4.22-8.09 7.08t-9.37 4.58q-4.89 1.71-9.95 2.42-5.06.7-9.81.7-9.42 0-17.51-3.12-8.1-3.13-14.08-9.24-5.99-6.12-9.42-15.14t-3.43-20.9q0-9.24 2.99-17.38t8.58-14.17 13.64-9.55 18.17-3.52q8.54 0 15.76 2.73 7.21 2.73 12.4 7.97 5.2 5.23 8.14 12.84 2.95 7.62 2.95 17.38 0 4.93-1.05 6.65-1.06 1.71-4.05 1.71m81.4-38.1-4.93 7.83q-.88 1.41-1.85 1.98t-2.46.57q-1.59 0-3.39-.88t-4.18-1.98-5.41-1.98q-3.04-.88-7.17-.88-6.43 0-10.08 2.73t-3.65 7.13q0 2.9 1.89 4.88t5.02 3.48q3.12 1.5 7.08 2.68 3.96 1.19 8.05 2.6t8.05 3.21q3.96 1.81 7.09 4.58 3.12 2.77 5.01 6.64 1.9 3.87 1.9 9.33 0 6.51-2.34 12.01-2.33 5.5-6.9 9.51-4.58 4-11.31 6.24-6.73 2.25-15.53 2.25-4.67 0-9.11-.84-4.45-.83-8.54-2.33t-7.57-3.52q-3.47-2.02-6.11-4.4l5.01-8.27q.97-1.5 2.29-2.29t3.35-.79q2.02 0 3.82 1.14 1.81 1.15 4.18 2.47 2.38 1.32 5.59 2.46t8.14 1.14q3.87 0 6.65-.92 2.77-.92 4.57-2.42 1.81-1.5 2.64-3.48.84-1.98.84-4.09 0-3.17-1.89-5.19-1.9-2.02-5.02-3.52t-7.13-2.68q-4-1.19-8.18-2.6t-8.19-3.3q-4-1.89-7.12-4.8-3.13-2.9-5.02-7.12-1.89-4.23-1.89-10.21 0-5.55 2.2-10.56 2.2-5.02 6.47-8.76 4.26-3.74 10.64-5.98 6.38-2.25 14.74-2.25 9.33 0 16.99 3.08 7.65 3.08 12.76 8.1m77.35 0-4.93 7.83q-.88 1.41-1.85 1.98-.96.57-2.46.57-1.58 0-3.39-.88-1.8-.88-4.18-1.98-2.37-1.1-5.41-1.98t-7.17-.88q-6.43 0-10.08 2.73t-3.65 7.13q0 2.9 1.89 4.88t5.02 3.48q3.12 1.5 7.08 2.68 3.96 1.19 8.05 2.6 4.1 1.41 8.06 3.21 3.96 1.81 7.08 4.58t5.02 6.64q1.89 3.87 1.89 9.33 0 6.51-2.33 12.01-2.34 5.5-6.91 9.51-4.58 4-11.31 6.24-6.73 2.25-15.53 2.25-4.67 0-9.11-.84-4.44-.83-8.54-2.33-4.09-1.5-7.56-3.52-3.48-2.02-6.12-4.4l5.02-8.27q.96-1.5 2.28-2.29t3.35-.79q2.02 0 3.83 1.14 1.8 1.15 4.18 2.47 2.37 1.32 5.58 2.46 3.22 1.14 8.14 1.14 3.88 0 6.65-.92t4.57-2.42q1.81-1.5 2.64-3.48.84-1.98.84-4.09 0-3.17-1.89-5.19t-5.02-3.52q-3.12-1.5-7.13-2.68-4-1.19-8.18-2.6t-8.18-3.3q-4.01-1.89-7.13-4.8-3.13-2.9-5.02-7.12-1.89-4.23-1.89-10.21 0-5.55 2.2-10.56 2.2-5.02 6.47-8.76t10.65-5.98q6.38-2.25 14.74-2.25 9.32 0 16.98 3.08t12.76 8.1m18.04-9.77h21.82v90.29h-21.82zm24.82-26.31q0 2.82-1.15 5.28-1.14 2.46-3.03 4.31-1.9 1.85-4.45 2.95t-5.45 1.1q-2.82 0-5.33-1.1t-4.35-2.95q-1.85-1.85-2.95-4.31t-1.1-5.28q0-2.9 1.1-5.46 1.1-2.55 2.95-4.4 1.84-1.84 4.35-2.94t5.33-1.1q2.9 0 5.45 1.1t4.45 2.94q1.89 1.85 3.03 4.4 1.15 2.56 1.15 5.46m59.13 24.9q10.03 0 18.26 3.26t14.08 9.24 9.02 14.61q3.17 8.62 3.17 19.27 0 10.74-3.17 19.36t-9.02 14.7q-5.85 6.07-14.08 9.32-8.23 3.26-18.26 3.26-10.12 0-18.39-3.26-8.27-3.25-14.12-9.32-5.86-6.08-9.07-14.7t-3.21-19.36q0-10.65 3.21-19.27 3.21-8.63 9.07-14.61 5.85-5.98 14.12-9.24t18.39-3.26m0 76.3q11.27 0 16.68-7.57t5.41-22.17q0-14.61-5.41-22.27-5.41-7.65-16.68-7.65-11.44 0-16.94 7.7t-5.5 22.22 5.5 22.13 16.94 7.61m79.99-70.93 1.5 7.13q2.73-2.73 5.76-5.06 3.04-2.33 6.43-3.96t7.26-2.55q3.87-.93 8.45-.93 7.39 0 13.11 2.51t9.55 7.04q3.82 4.53 5.8 10.83 1.98 6.29 1.98 13.86v57.46h-21.73v-57.46q0-8.28-3.79-12.81-3.78-4.53-11.52-4.53-5.64 0-10.56 2.55-4.93 2.55-9.33 6.95v65.3h-21.74v-90.29h13.29q4.22 0 5.54 3.96m128.13 63.01v-15.22q-9.41.44-15.84 1.62-6.42 1.19-10.29 3.04-3.88 1.85-5.55 4.31-1.67 2.47-1.67 5.37 0 5.72 3.39 8.18 3.39 2.47 8.84 2.47 6.69 0 11.57-2.42 4.89-2.42 9.55-7.35m-45.93-47.43-3.88-6.95q15.58-14.26 37.49-14.26 7.92 0 14.17 2.6 6.25 2.59 10.56 7.21t6.56 11.05q2.24 6.42 2.24 14.08v57.02h-9.86q-3.08 0-4.75-.92-1.67-.93-2.64-3.74l-1.93-6.52q-3.44 3.08-6.69 5.42-3.26 2.33-6.78 3.91-3.52 1.59-7.52 2.42-4.01.84-8.85.84-5.72 0-10.56-1.54t-8.36-4.62-5.45-7.66q-1.94-4.57-1.94-10.65 0-3.43 1.15-6.82 1.14-3.38 3.74-6.46 2.59-3.08 6.73-5.81 4.13-2.73 10.16-4.75 6.03-2.03 14.04-3.3 8.01-1.28 18.3-1.54v-5.28q0-9.07-3.87-13.42-3.87-4.36-11.18-4.36-5.28 0-8.75 1.23-3.48 1.23-6.12 2.77t-4.79 2.78q-2.16 1.23-4.8 1.23-2.29 0-3.87-1.19-1.59-1.19-2.55-2.77m87.82-60.02h21.74v130.77h-21.74zm178.55 3.52v19.45h-38.37v107.8h-23.67v-107.8h-38.37v-19.45zm30.45 71.72h41.01q0-4.22-1.19-7.96t-3.56-6.56q-2.38-2.81-6.03-4.44t-8.49-1.63q-9.42 0-14.83 5.37t-6.91 15.22m55.44 13.11h-55.88q.53 6.96 2.46 12.02 1.94 5.06 5.11 8.36t7.52 4.92q4.36 1.63 9.64 1.63t9.11-1.23q3.82-1.23 6.68-2.73 2.86-1.49 5.02-2.73 2.16-1.23 4.18-1.23 2.73 0 4.05 2.03l6.25 7.92q-3.61 4.22-8.1 7.08t-9.37 4.58q-4.89 1.71-9.95 2.42-5.06.7-9.81.7-9.41 0-17.51-3.12-8.1-3.13-14.08-9.24-5.98-6.12-9.42-15.14-3.43-9.02-3.43-20.9 0-9.24 2.99-17.38 3-8.14 8.58-14.17 5.59-6.03 13.64-9.55 8.06-3.52 18.18-3.52 8.53 0 15.75 2.73 7.21 2.73 12.41 7.97 5.19 5.23 8.14 12.84 2.94 7.62 2.94 17.38 0 4.93-1.05 6.65-1.06 1.71-4.05 1.71m69.08 19.1v-15.22q-9.42.44-15.84 1.62-6.42 1.19-10.3 3.04-3.87 1.85-5.54 4.31-1.67 2.47-1.67 5.37 0 5.72 3.39 8.18 3.38 2.47 8.84 2.47 6.69 0 11.57-2.42 4.89-2.42 9.55-7.35m-45.94-47.43-3.87-6.95q15.58-14.26 37.49-14.26 7.92 0 14.17 2.6 6.25 2.59 10.56 7.21t6.55 11.05q2.25 6.42 2.25 14.08v57.02h-9.86q-3.08 0-4.75-.92-1.67-.93-2.64-3.74l-1.94-6.52q-3.43 3.08-6.68 5.42-3.26 2.33-6.78 3.91-3.52 1.59-7.52 2.42-4.01.84-8.85.84-5.72 0-10.56-1.54t-8.36-4.62-5.45-7.66q-1.94-4.57-1.94-10.65 0-3.43 1.14-6.82 1.15-3.38 3.74-6.46 2.6-3.08 6.74-5.81 4.13-2.73 10.16-4.75 6.03-2.03 14.04-3.3 8-1.28 18.3-1.54v-5.28q0-9.07-3.87-13.42-3.87-4.36-11.18-4.36-5.28 0-8.75 1.23-3.48 1.23-6.12 2.77t-4.8 2.78q-2.15 1.23-4.79 1.23-2.29 0-3.87-1.19-1.59-1.19-2.56-2.77m109.3 70.75h-21.74v-90.29h13.29q4.23 0 5.55 3.96l1.4 6.69q2.38-2.64 4.98-4.84 2.59-2.2 5.54-3.78 2.95-1.59 6.34-2.51 3.38-.93 7.43-.93 8.54 0 14.04 4.62t8.23 12.28q2.11-4.49 5.28-7.7 3.16-3.21 6.95-5.24 3.78-2.02 8.05-2.99t8.58-.97q7.48 0 13.29 2.29t9.77 6.69 6.02 10.74q2.07 6.33 2.07 14.52v57.46h-21.73v-57.46q0-8.63-3.79-12.98-3.78-4.36-11.09-4.36-3.34 0-6.2 1.14-2.86 1.15-5.02 3.3-2.15 2.16-3.38 5.42-1.24 3.25-1.24 7.48v57.46h-21.82v-57.46q0-9.07-3.65-13.2-3.65-4.14-10.69-4.14-4.76 0-8.85 2.33t-7.61 6.38z"/></svg>