<svg xmlns="http://www.w3.org/2000/svg" width="1200" height="900" viewBox="0 0 1200 900"><rect width="100%" height="100%" fill="#1f2937"/><path fill="#ffffff" d="M252.135 423.885v43.38h-8.1v-43.38zm15.93 43.38h-7.41v-30.78h4.53q1.44 0 1.89 1.35l.48 2.28q.81-.9 1.7-1.65.88-.75 1.89-1.29 1-.54 2.16-.86 1.15-.31 2.53-.31 2.91 0 4.79 1.58 1.87 1.57 2.8 4.18.72-1.53 1.8-2.63 1.08-1.09 2.37-1.78t2.75-1.02q1.45-.33 2.92-.33 2.55 0 4.53.78t3.33 2.28 2.06 3.66q.7 2.16.7 4.95v19.59h-7.41v-19.59q0-2.94-1.29-4.43-1.29-1.48-3.78-1.48-1.14 0-2.11.39-.98.39-1.71 1.13-.74.73-1.16 1.84t-.42 2.55v19.59h-7.44v-19.59q0-3.09-1.24-4.5-1.25-1.41-3.65-1.41-1.62 0-3.01.8-1.4.79-2.6 2.17zm50.25 0h-7.41v-30.78h4.53q1.44 0 1.89 1.35l.48 2.28q.81-.9 1.7-1.65.88-.75 1.89-1.29 1-.54 2.16-.86 1.15-.31 2.53-.31 2.91 0 4.79 1.58 1.87 1.57 2.8 4.18.72-1.53 1.8-2.63 1.08-1.09 2.37-1.78t2.75-1.02q1.45-.33 2.92-.33 2.55 0 4.53.78t3.33 2.28 2.06 3.66q.7 2.16.7 4.95v19.59h-7.41v-19.59q0-2.94-1.29-4.43-1.29-1.48-3.78-1.48-1.14 0-2.11.39-.98.39-1.71 1.13-.74.73-1.16 1.84t-.42 2.55v19.59h-7.44v-19.59q0-3.09-1.24-4.5-1.25-1.41-3.65-1.41-1.62 0-3.01.8-1.4.79-2.6 2.17zm48.69-18.93h13.98q0-1.44-.4-2.71-.41-1.28-1.22-2.24t-2.05-1.51q-1.25-.56-2.9-.56-3.21 0-5.05 1.83-1.85 1.83-2.36 5.19m18.9 4.47h-19.05q.18 2.37.84 4.09.66 1.73 1.74 2.86 1.08 1.12 2.57 1.68 1.48.55 3.28.55t3.11-.42q1.3-.42 2.28-.93.97-.51 1.71-.93.73-.42 1.42-.42.93 0 1.38.69l2.13 2.7q-1.23 1.44-2.76 2.42-1.53.97-3.19 1.56-1.67.58-3.39.82-1.73.24-3.35.24-3.21 0-5.97-1.06-2.76-1.07-4.8-3.15-2.04-2.09-3.21-5.16-1.17-3.08-1.17-7.13 0-3.15 1.02-5.92 1.02-2.78 2.93-4.83 1.9-2.06 4.65-3.26 2.74-1.2 6.19-1.2 2.91 0 5.37.93t4.23 2.72q1.77 1.78 2.78 4.38 1 2.59 1 5.92 0 1.68-.36 2.27-.36.58-1.38.58m26.61 5.34v-13.8q-1.26-1.53-2.74-2.16-1.49-.63-3.2-.63-1.68 0-3.03.63t-2.31 1.9q-.96 1.28-1.47 3.25-.51 1.96-.51 4.63 0 2.7.44 4.58.43 1.87 1.24 3.05.81 1.19 1.98 1.71 1.17.53 2.61.53 2.31 0 3.93-.96t3.06-2.73m0-35.46h7.41v44.58h-4.53q-1.47 0-1.86-1.35l-.63-2.97q-1.86 2.13-4.27 3.45-2.42 1.32-5.63 1.32-2.52 0-4.62-1.05t-3.61-3.05q-1.52-1.99-2.34-4.93-.83-2.94-.83-6.72 0-3.42.93-6.36t2.67-5.1 4.17-3.37q2.43-1.22 5.46-1.22 2.58 0 4.41.81t3.27 2.19zm14.97 13.8h7.44v30.78h-7.44zm8.46-8.97q0 .96-.39 1.8t-1.03 1.47q-.65.63-1.52 1-.87.38-1.86.38-.96 0-1.81-.38-.86-.37-1.49-1t-1-1.47q-.38-.84-.38-1.8 0-.99.38-1.86.37-.87 1-1.5t1.49-1q.85-.38 1.81-.38.99 0 1.86.38.87.37 1.52 1 .64.63 1.03 1.5t.39 1.86m22.8 31.8v-5.19q-3.21.15-5.4.56-2.19.4-3.51 1.03t-1.89 1.47-.57 1.83q0 1.95 1.16 2.79 1.15.84 3.01.84 2.28 0 3.95-.82 1.66-.83 3.25-2.51m-15.66-16.17-1.32-2.37q5.31-4.86 12.78-4.86 2.7 0 4.83.89 2.13.88 3.6 2.46 1.47 1.57 2.24 3.76.76 2.19.76 4.8v19.44h-3.36q-1.05 0-1.62-.32-.57-.31-.9-1.27l-.66-2.22q-1.17 1.05-2.28 1.85-1.11.79-2.31 1.33t-2.56.83q-1.37.28-3.02.28-1.95 0-3.6-.52-1.65-.53-2.85-1.58t-1.86-2.61-.66-3.63q0-1.17.39-2.33.39-1.15 1.28-2.2.88-1.05 2.29-1.98t3.47-1.62q2.05-.69 4.78-1.12 2.73-.44 6.24-.53v-1.8q0-3.09-1.32-4.58-1.32-1.48-3.81-1.48-1.8 0-2.98.42-1.19.42-2.09.95l-1.63.94q-.74.42-1.64.42-.78 0-1.32-.41-.54-.4-.87-.94m40.11 24.6q-4.02 0-6.16-2.26-2.15-2.27-2.15-6.26v-17.19h-3.15q-.6 0-1.02-.39t-.42-1.17v-2.94l4.95-.81 1.56-8.4q.15-.6.57-.93t1.08-.33h3.84v9.69h8.22v5.28h-8.22v16.68q0 1.44.71 2.25.7.81 1.93.81.69 0 1.16-.16.46-.17.81-.35.34-.18.61-.34.27-.17.54-.17.33 0 .54.17.21.16.45.49l2.22 3.6q-1.62 1.35-3.72 2.04t-4.35.69m17.91-19.41h13.98q0-1.44-.4-2.71-.41-1.28-1.22-2.24t-2.05-1.51q-1.25-.56-2.9-.56-3.21 0-5.05 1.83-1.85 1.83-2.36 5.19m18.9 4.47h-19.05q.18 2.37.84 4.09.66 1.73 1.74 2.86 1.08 1.12 2.57 1.68 1.48.55 3.28.55t3.11-.42q1.3-.42 2.28-.93.97-.51 1.71-.93.73-.42 1.42-.42.93 0 1.38.69l2.13 2.7q-1.23 1.44-2.76 2.42-1.53.97-3.19 1.56-1.67.58-3.39.82-1.73.24-3.35.24-3.21 0-5.97-1.06-2.76-1.07-4.8-3.15-2.04-2.09-3.21-5.16-1.17-3.08-1.17-7.13 0-3.15 1.02-5.92 1.02-2.78 2.93-4.83 1.9-2.06 4.65-3.26 2.74-1.2 6.19-1.2 2.91 0 5.37.93t4.23 2.72q1.77 1.78 2.78 4.38 1 2.59 1 5.92 0 1.68-.36 2.27-.36.58-1.38.58m31.11-8.28h5.04q2.28 0 3.98-.57 1.69-.57 2.79-1.57 1.09-1.01 1.63-2.39t.54-3.03q0-3.3-2.17-5.07-2.18-1.77-6.65-1.77h-5.16zm14.94 6.72 10.86 16.02h-7.29q-2.07 0-3-1.62l-9.12-13.89q-.51-.78-1.12-1.11-.62-.33-1.82-.33h-3.45v16.95h-8.07v-43.38h13.23q4.41 0 7.58.92 3.16.91 5.19 2.56 2.02 1.65 2.98 3.95.96 2.29.96 5.05 0 2.19-.64 4.14-.65 1.95-1.86 3.54-1.22 1.59-3 2.79-1.79 1.2-4.07 1.89.78.45 1.44 1.07.66.61 1.2 1.45m20.25-2.91h13.98q0-1.44-.4-2.71-.41-1.28-1.22-2.24t-2.05-1.51q-1.25-.56-2.9-.56-3.21 0-5.05 1.83-1.85 1.83-2.36 5.19m18.9 4.47h-19.05q.18 2.37.84 4.09.66 1.73 1.74 2.86 1.08 1.12 2.57 1.68 1.48.55 3.28.55t3.11-.42q1.3-.42 2.28-.93.97-.51 1.71-.93.73-.42 1.42-.42.93 0 1.38.69l2.13 2.7q-1.23 1.44-2.76 2.42-1.53.97-3.19 1.56-1.67.58-3.39.82-1.73.24-3.35.24-3.21 0-5.97-1.06-2.76-1.07-4.8-3.15-2.04-2.09-3.21-5.16-1.17-3.08-1.17-7.13 0-3.15 1.02-5.92 1.02-2.78 2.93-4.83 1.9-2.06 4.65-3.26 2.74-1.2 6.19-1.2 2.91 0 5.37.93t4.23 2.72q1.77 1.78 2.78 4.38 1 2.59 1 5.92 0 1.68-.36 2.27-.36.58-1.38.58m27.75-12.99-1.68 2.67q-.3.48-.63.67-.33.2-.84.2-.54 0-1.15-.3-.62-.3-1.43-.67-.81-.38-1.84-.68-1.04-.3-2.45-.3-2.19 0-3.43.93-1.25.93-1.25 2.43 0 .99.65 1.66.64.68 1.71 1.19 1.06.51 2.41.92 1.35.4 2.75.88 1.39.48 2.74 1.1 1.35.61 2.42 1.55 1.06.95 1.71 2.27.64 1.32.64 3.18 0 2.22-.79 4.1-.8 1.87-2.36 3.23-1.56 1.37-3.85 2.14-2.3.76-5.3.76-1.59 0-3.1-.28-1.52-.29-2.91-.8-1.4-.51-2.58-1.2-1.19-.69-2.09-1.5l1.71-2.82q.33-.51.78-.78t1.14-.27 1.31.39q.61.39 1.42.84t1.91.84q1.09.39 2.77.39 1.32 0 2.27-.31.94-.32 1.56-.83.61-.51.9-1.19.28-.67.28-1.39 0-1.08-.64-1.77-.65-.69-1.71-1.2-1.07-.51-2.43-.91-1.37-.41-2.79-.89-1.43-.48-2.79-1.12-1.37-.65-2.43-1.64-1.07-.99-1.71-2.43-.65-1.44-.65-3.48 0-1.89.75-3.6t2.21-2.98q1.45-1.28 3.63-2.04 2.17-.77 5.02-.77 3.18 0 5.79 1.05t4.35 2.76m13.32 5.67v13.8q1.26 1.53 2.75 2.16 1.48.63 3.22.63 1.68 0 3.03-.63t2.3-1.92q.94-1.29 1.45-3.25.51-1.97.51-4.64 0-2.7-.43-4.57-.44-1.88-1.25-3.05t-1.96-1.71q-1.16-.54-2.63-.54-2.31 0-3.93.98-1.62.97-3.06 2.74m-.99-7.65.6 2.85q1.89-2.13 4.29-3.45t5.64-1.32q2.52 0 4.61 1.05 2.08 1.05 3.6 3.05 1.51 1.99 2.34 4.91.82 2.93.82 6.71 0 3.45-.93 6.39t-2.65 5.1q-1.73 2.16-4.17 3.37-2.45 1.22-5.48 1.22-2.58 0-4.41-.79-1.83-.8-3.27-2.21v12.6h-7.41v-40.83h4.53q1.44 0 1.89 1.35m41.28-1.83q3.42 0 6.23 1.11 2.8 1.11 4.8 3.15 1.99 2.04 3.07 4.98t1.08 6.57q0 3.66-1.08 6.6t-3.07 5.01q-2 2.07-4.8 3.18-2.81 1.11-6.23 1.11-3.45 0-6.27-1.11t-4.81-3.18q-2-2.07-3.09-5.01-1.1-2.94-1.1-6.6 0-3.63 1.1-6.57 1.09-2.94 3.09-4.98 1.99-2.04 4.81-3.15t6.27-1.11m0 26.01q3.84 0 5.69-2.58 1.84-2.58 1.84-7.56t-1.84-7.59q-1.85-2.61-5.69-2.61-3.9 0-5.77 2.63-1.88 2.62-1.88 7.57t1.88 7.55q1.87 2.59 5.77 2.59m27.27-24.18.51 2.43q.93-.93 1.97-1.72 1.03-.8 2.19-1.35 1.15-.56 2.47-.88 1.32-.31 2.88-.31 2.52 0 4.47.86 1.95.85 3.26 2.4 1.3 1.54 1.98 3.69.67 2.14.67 4.72v19.59h-7.41v-19.59q0-2.82-1.29-4.36-1.29-1.55-3.93-1.55-1.92 0-3.6.87t-3.18 2.37v22.26h-7.41v-30.78h4.53q1.44 0 1.89 1.35m47.88 1.98-1.68 2.67q-.3.48-.63.67-.33.2-.84.2-.54 0-1.15-.3-.62-.3-1.43-.67-.81-.38-1.84-.68-1.04-.3-2.45-.3-2.19 0-3.43.93-1.25.93-1.25 2.43 0 .99.65 1.66.64.68 1.71 1.19 1.06.51 2.41.92 1.35.4 2.75.88 1.39.48 2.74 1.1 1.35.61 2.42 1.55 1.06.95 1.71 2.27.64 1.32.64 3.18 0 2.22-.79 4.1-.8 1.87-2.36 3.23-1.56 1.37-3.85 2.14-2.3.76-5.3.76-1.59 0-3.1-.28-1.52-.29-2.91-.8-1.4-.51-2.58-1.2-1.19-.69-2.09-1.5l1.71-2.82q.33-.51.78-.78t1.14-.27 1.31.39q.61.39 1.42.84t1.9.84q1.1.39 2.78.39 1.32 0 2.27-.31.94-.32 1.56-.83.61-.51.89-1.19.29-.67.29-1.39 0-1.08-.64-1.77-.65-.69-1.71-1.2-1.07-.51-2.44-.91-1.36-.41-2.78-.89-1.43-.48-2.79-1.12-1.37-.65-2.43-1.64-1.07-.99-1.72-2.43-.64-1.44-.64-3.48 0-1.89.75-3.6t2.21-2.98q1.45-1.28 3.63-2.04 2.17-.77 5.02-.77 3.18 0 5.79 1.05t4.35 2.76m11.76 8.52h13.98q0-1.44-.4-2.71-.41-1.28-1.22-2.24t-2.05-1.51q-1.25-.56-2.9-.56-3.21 0-5.05 1.83-1.85 1.83-2.36 5.19m18.9 4.47h-19.05q.18 2.37.84 4.09.66 1.73 1.74 2.86 1.08 1.12 2.57 1.68 1.48.55 3.28.55t3.11-.42q1.3-.42 2.28-.93.97-.51 1.71-.93.73-.42 1.42-.42.93 0 1.38.69l2.13 2.7q-1.23 1.44-2.76 2.42-1.53.97-3.19 1.56-1.67.58-3.39.82-1.73.24-3.35.24-3.21 0-5.97-1.06-2.76-1.07-4.8-3.15-2.04-2.09-3.21-5.16-1.17-3.08-1.17-7.13 0-3.15 1.02-5.92 1.02-2.78 2.93-4.83 1.9-2.06 4.65-3.26 2.74-1.2 6.19-1.2 2.91 0 5.37.93t4.23 2.72q1.77 1.78 2.78 4.38 1 2.59 1 5.92 0 1.68-.36 2.27-.36.58-1.38.58m53.34-28.92v6.63h-13.08v36.75h-8.07v-36.75h-13.08v-6.63zm10.38 24.45h13.98q0-1.44-.4-2.71-.41-1.28-1.22-2.24t-2.06-1.51q-1.24-.56-2.89-.56-3.21 0-5.05 1.83-1.85 1.83-2.36 5.19m18.9 4.47h-19.05q.18 2.37.84 4.09.66 1.73 1.74 2.86 1.08 1.12 2.57 1.68 1.48.55 3.28.55t3.11-.42q1.3-.42 2.28-.93.97-.51 1.71-.93.73-.42 1.42-.42.93 0 1.38.69l2.13 2.7q-1.23 1.44-2.76 2.42-1.53.97-3.19 1.56-1.67.58-3.39.82-1.73.24-3.35.24-3.21 0-5.97-1.06-2.76-1.07-4.8-3.15-2.04-2.09-3.21-5.16-1.17-3.08-1.17-7.13 0-3.15 1.02-5.92 1.02-2.78 2.93-4.83 1.9-2.06 4.65-3.26 2.74-1.2 6.19-1.2 2.91 0 5.37.93t4.23 2.72q1.77 1.78 2.78 4.38 1 2.59 1 5.92 0 1.68-.36 2.27-.36.58-1.38.58m23.55 6.51v-5.19q-3.21.15-5.4.56-2.19.4-3.51 1.03t-1.89 1.47-.57 1.83q0 1.95 1.15 2.79 1.16.84 3.02.84 2.28 0 3.95-.82 1.66-.83 3.25-2.51m-15.66-16.17-1.32-2.37q5.31-4.86 12.78-4.86 2.7 0 4.83.89 2.13.88 3.6 2.46 1.47 1.57 2.24 3.76.76 2.19.76 4.8v19.44h-3.36q-1.05 0-1.62-.32-.57-.31-.9-1.27l-.66-2.22q-1.17 1.05-2.28 1.85-1.11.79-2.31 1.33t-2.57.83q-1.36.28-3.01.28-1.95 0-3.6-.52-1.65-.53-2.85-1.58t-1.86-2.61-.66-3.63q0-1.17.39-2.33.39-1.15 1.28-2.2.88-1.05 2.29-1.98t3.46-1.62q2.06-.69 4.79-1.12 2.73-.44 6.24-.53v-1.8q0-3.09-1.32-4.58-1.32-1.48-3.81-1.48-1.8 0-2.98.42-1.19.42-2.09.95-.9.52-1.64.94-.73.42-1.63.42-.78 0-1.32-.41-.54-.4-.87-.94m37.26 24.12h-7.41v-30.78h4.53q1.44 0 1.89 1.35l.48 2.28q.81-.9 1.69-1.65.89-.75 1.89-1.29 1.01-.54 2.17-.86 1.15-.31 2.53-.31 2.91 0 4.79 1.58 1.87 1.57 2.8 4.18.72-1.53 1.8-2.63 1.08-1.09 2.37-1.78t2.74-1.02q1.46-.33 2.93-.33 2.55 0 4.53.78t3.33 2.28 2.06 3.66q.7 2.16.7 4.95v19.59h-7.41v-19.59q0-2.94-1.29-4.43-1.29-1.48-3.78-1.48-1.14 0-2.11.39-.98.39-1.72 1.13-.73.73-1.15 1.84t-.42 2.55v19.59h-7.44v-19.59q0-3.09-1.25-4.5-1.24-1.41-3.64-1.41-1.62 0-3.01.8-1.4.79-2.6 2.17z"/></svg>