<svg xmlns="http://www.w3.org/2000/svg" width="1920" height="800" viewBox="0 0 1920 800"><rect width="100%" height="100%" fill="#1f2937"/><path fill="#ffffff" d="M516.02 444.5q2.56 0 4.54 1.98l12.35 13.4q-10.25 12.7-25.22 19.46-14.97 6.75-35.94 6.75-18.76 0-33.73-6.4-14.97-6.41-25.57-17.83T396.2 434.6t-5.65-34.6q0-18.99 6.05-34.77 6.06-15.79 17.07-27.21 11.01-11.41 26.27-17.76t33.79-6.35q18.4 0 32.67 6.05 14.28 6.06 24.29 15.85l-10.48 14.56q-.93 1.4-2.39 2.45-1.45 1.05-4.02 1.05-1.75 0-3.61-.99t-4.08-2.45q-2.21-1.46-5.12-3.2-2.92-1.75-6.76-3.21-3.84-1.45-8.91-2.44t-11.71-.99q-11.3 0-20.68 4.01-9.38 4.02-16.13 11.65-6.76 7.64-10.49 18.64-3.73 11.01-3.73 25.11 0 14.21 4.02 25.28t10.89 18.64q6.88 7.57 16.2 11.59t20.04 4.02q6.4 0 11.59-.7 5.18-.7 9.55-2.21 4.37-1.52 8.27-3.9 3.91-2.39 7.75-5.89 1.16-1.05 2.45-1.69 1.28-.64 2.68-.64m86.79-81.66q13.28 0 24.17 4.31t18.64 12.23 11.94 19.34q4.2 11.42 4.2 25.51 0 14.22-4.2 25.63-4.19 11.42-11.94 19.46t-18.64 12.35-24.17 4.31q-13.4 0-24.35-4.31t-18.7-12.35-12-19.46q-4.25-11.41-4.25-25.63 0-14.09 4.25-25.51t12-19.34 18.7-12.23 24.35-4.31m0 101q14.91 0 22.07-10.02 7.17-10.02 7.17-29.35 0-19.34-7.17-29.48-7.16-10.13-22.07-10.13-15.15 0-22.43 10.19t-7.28 29.42q0 19.22 7.28 29.3 7.28 10.07 22.43 10.07m105.9-93.9 1.98 9.44q3.61-3.61 7.63-6.7t8.5-5.24q4.49-2.16 9.61-3.38 5.13-1.22 11.19-1.22 9.78 0 17.36 3.32 7.57 3.32 12.64 9.32 5.06 6 7.69 14.33 2.62 8.33 2.62 18.35v76.07h-28.78v-76.07q0-10.96-5.01-16.96t-15.26-6q-7.46 0-13.98 3.38t-12.35 9.21v86.44h-28.77V364.7h17.59q5.59 0 7.34 5.24m146.32 116.15q-15.61 0-23.94-8.79-8.33-8.8-8.33-24.29v-66.76h-12.23q-2.33 0-3.96-1.51-1.63-1.52-1.63-4.54v-11.42l19.22-3.15 6.06-32.62q.58-2.33 2.21-3.61t4.19-1.28h14.92v37.63h31.92v20.5h-31.92v64.78q0 5.59 2.73 8.74 2.74 3.14 7.52 3.14 2.68 0 4.48-.64 1.81-.64 3.15-1.34t2.39-1.34 2.09-.64q1.29 0 2.1.64.82.64 1.75 1.92l8.62 13.98q-6.29 5.24-14.45 7.92-8.15 2.68-16.89 2.68m109.98-32.73V433.2q-12.47.59-20.97 2.16-8.51 1.57-13.63 4.02-5.13 2.44-7.34 5.71-2.22 3.26-2.22 7.1 0 7.58 4.49 10.84 4.48 3.26 11.71 3.26 8.85 0 15.32-3.2 6.46-3.21 12.64-9.73m-60.82-62.8-5.12-9.2q20.62-18.87 49.63-18.87 10.48 0 18.75 3.43 8.27 3.44 13.98 9.56 5.71 6.11 8.68 14.62 2.97 8.5 2.97 18.64v75.49h-13.04q-4.08 0-6.3-1.22-2.21-1.23-3.49-4.95l-2.56-8.63q-4.55 4.08-8.86 7.17t-8.97 5.18q-4.66 2.1-9.96 3.21-5.3 1.1-11.71 1.1-7.57 0-13.98-2.03-6.4-2.04-11.06-6.12t-7.23-10.14q-2.56-6.05-2.56-14.09 0-4.55 1.51-9.03 1.52-4.49 4.96-8.56 3.43-4.08 8.91-7.69 5.47-3.62 13.45-6.29 7.98-2.68 18.58-4.37 10.61-1.69 24.24-2.04v-6.99q0-12-5.13-17.77t-14.79-5.77q-6.99 0-11.6 1.64-4.6 1.63-8.09 3.67-3.5 2.03-6.35 3.67-2.86 1.63-6.35 1.63-3.03 0-5.13-1.58-2.09-1.57-3.38-3.67m209.12-11.06-7.57 10.48q-1.28 1.63-2.51 2.56-1.22.94-3.55.94-2.21 0-4.31-1.34t-5.01-3.03-6.93-3.03-9.96-1.34q-7.57 0-13.28 2.74-5.71 2.73-9.5 7.86-3.78 5.13-5.65 12.41-1.86 7.28-1.86 16.48 0 9.56 2.04 17.01 2.04 7.46 5.88 12.53 3.84 5.06 9.32 7.68 5.48 2.63 12.35 2.63t11.13-1.69q4.25-1.69 7.16-3.73t5.07-3.73q2.15-1.69 4.83-1.69 3.5 0 5.24 2.68l8.28 10.49q-4.78 5.59-10.37 9.37-5.59 3.79-11.59 6.06t-12.35 3.21q-6.35.93-12.64.93-11.07 0-20.86-4.14-9.78-4.13-17.12-12.06-7.34-7.92-11.59-19.39-4.26-11.48-4.26-26.16 0-13.16 3.79-24.4 3.79-11.25 11.13-19.46t18.17-12.87 24.93-4.66q13.4 0 23.48 4.31 10.07 4.31 18.11 12.35m58.95 106.59q-15.61 0-23.94-8.79-8.33-8.8-8.33-24.29v-66.76h-12.23q-2.33 0-3.96-1.51-1.63-1.52-1.63-4.54v-11.42l19.22-3.15 6.06-32.62q.58-2.33 2.21-3.61t4.19-1.28h14.92v37.63h31.92v20.5h-31.92v64.78q0 5.59 2.73 8.74 2.74 3.14 7.52 3.14 2.68 0 4.48-.64 1.81-.64 3.15-1.34t2.39-1.34q1.04-.64 2.09-.64 1.28 0 2.1.64t1.75 1.92l8.62 13.98q-6.29 5.24-14.45 7.92-8.15 2.68-16.89 2.68m175.8-27.14q9.09 0 16.25-3.03 7.17-3.03 12.06-8.5 4.89-5.48 7.51-13.29 2.62-7.8 2.62-17.47V315.77h31.34v100.89q0 15.03-4.83 27.79-4.84 12.75-13.87 22.01-9.02 9.27-21.96 14.45-12.93 5.18-29.12 5.18-16.31 0-29.24-5.18t-21.96-14.45q-9.03-9.26-13.87-22.01-4.83-12.76-4.83-27.79V315.77h31.34v100.77q0 9.67 2.62 17.48 2.62 7.8 7.57 13.34 4.95 5.53 12.12 8.56 7.16 3.03 16.25 3.03m180.11-81.32-6.53 10.37q-1.16 1.86-2.44 2.62t-3.26.76q-2.1 0-4.49-1.17-2.39-1.16-5.53-2.62-3.15-1.45-7.17-2.62-4.02-1.16-9.49-1.16-8.51 0-13.34 3.61-4.84 3.61-4.84 9.43 0 3.85 2.51 6.47 2.5 2.62 6.64 4.6 4.13 1.98 9.38 3.56 5.24 1.57 10.66 3.43 5.41 1.87 10.66 4.25 5.24 2.39 9.37 6.06 4.14 3.67 6.64 8.8 2.51 5.12 2.51 12.35 0 8.62-3.09 15.9t-9.14 12.58q-6.06 5.3-14.97 8.27-8.92 2.97-20.57 2.97-6.17 0-12.05-1.1-5.89-1.11-11.3-3.09-5.42-1.98-10.02-4.66t-8.1-5.83l6.64-10.95q1.28-1.98 3.03-3.03 1.75-1.04 4.43-1.04t5.06 1.51q2.39 1.52 5.54 3.26 3.14 1.75 7.4 3.27 4.25 1.51 10.77 1.51 5.13 0 8.8-1.22 3.67-1.23 6.06-3.21 2.38-1.98 3.49-4.6t1.11-5.42q0-4.19-2.51-6.87-2.5-2.68-6.64-4.66-4.13-1.98-9.43-3.55-5.3-1.58-10.84-3.44-5.53-1.86-10.83-4.37-5.3-2.5-9.44-6.35-4.14-3.84-6.64-9.43-2.5-5.6-2.5-13.52 0-7.34 2.91-13.98t8.56-11.59 14.1-7.92q8.44-2.97 19.51-2.97 12.35 0 22.49 4.07 10.13 4.08 16.89 10.72"/></svg>