<svg xmlns="http://www.w3.org/2000/svg" width="2400" height="900" viewBox="0 0 2400 900"><rect width="100%" height="100%" fill="#1f2937"/><path fill="#ffffff" d="M522.43 489.065h31.96q8.82 0 14.81-2.11 5.99-2.12 9.58-5.64 3.58-3.53 5.17-8.23 1.58-4.7 1.58-9.98 0-5.53-1.76-9.93-1.76-4.41-5.52-7.52t-9.7-4.76q-5.93-1.65-14.27-1.65h-31.85zm26.91-120.79h-26.91v49.12h25.15q16.21 0 24.5-5.88 8.28-5.87 8.28-18.68 0-13.28-7.52-18.92t-23.5-5.64m-58.51-24.44h58.51q16.69 0 28.55 3.18 11.87 3.17 19.45 9.04 7.58 5.88 11.1 14.22 3.53 8.34 3.53 18.8 0 5.99-1.76 11.46-1.77 5.46-5.47 10.22t-9.4 8.64q-5.7 3.87-13.57 6.58 35.02 7.87 35.02 37.83 0 10.81-4.12 19.98-4.11 9.16-11.98 15.8t-19.39 10.4q-11.51 3.76-26.32 3.76h-64.15zm213.85 138.77v-20.33q-12.58.59-21.15 2.18-8.58 1.58-13.75 4.05t-7.4 5.76q-2.24 3.29-2.24 7.17 0 7.63 4.53 10.92 4.52 3.29 11.81 3.29 8.93 0 15.45-3.23t12.75-9.81m-61.34-63.33-5.17-9.28q20.8-19.04 50.06-19.04 10.57 0 18.91 3.47 8.35 3.46 14.1 9.63 5.76 6.17 8.76 14.75 2.99 8.58 2.99 18.8v76.14h-13.16q-4.11 0-6.34-1.23-2.23-1.24-3.53-5l-2.58-8.69q-4.58 4.11-8.93 7.22-4.35 3.12-9.05 5.23-4.7 2.12-10.04 3.23-5.35 1.12-11.81 1.12-7.64 0-14.1-2.06-6.47-2.05-11.17-6.17-4.7-4.11-7.28-10.22-2.59-6.11-2.59-14.22 0-4.58 1.53-9.1 1.53-4.53 4.99-8.64 3.47-4.11 8.99-7.75 5.53-3.65 13.57-6.35 8.05-2.7 18.75-4.4 10.69-1.71 24.44-2.06v-7.05q0-12.1-5.17-17.92t-14.93-5.82q-7.05 0-11.69 1.65-4.64 1.64-8.16 3.7-3.53 2.06-6.41 3.7-2.88 1.65-6.4 1.65-3.06 0-5.17-1.59-2.12-1.59-3.41-3.7m142.06-20.8 2 9.52q3.64-3.64 7.69-6.76 4.06-3.11 8.58-5.28 4.52-2.18 9.69-3.41 5.17-1.24 11.28-1.24 9.87 0 17.51 3.35t12.75 9.4 7.75 14.46q2.65 8.4 2.65 18.5v76.73h-29.02v-76.73q0-11.04-5.06-17.09-5.05-6.06-15.39-6.06-7.52 0-14.1 3.41t-12.45 9.28v87.19h-29.03v-120.56H778q5.64 0 7.4 5.29m132.54 0 2 9.52q3.64-3.64 7.69-6.76 4.06-3.11 8.58-5.28 4.52-2.18 9.69-3.41 5.17-1.24 11.28-1.24 9.87 0 17.51 3.35t12.75 9.4 7.76 14.46q2.64 8.4 2.64 18.5v76.73h-29.02v-76.73q0-11.04-5.06-17.09-5.05-6.06-15.39-6.06-7.52 0-14.1 3.41t-12.45 9.28v87.19h-29.03v-120.56h17.75q5.64 0 7.4 5.29m130.31 41.13H1103q0-5.64-1.58-10.64-1.59-4.99-4.76-8.75-3.18-3.76-8.05-5.93-4.88-2.18-11.34-2.18-12.57 0-19.8 7.17t-9.22 20.33m74.02 17.5h-74.61q.7 9.29 3.29 16.04 2.58 6.76 6.81 11.17 4.23 4.4 10.05 6.58 5.82 2.17 12.87 2.17t12.16-1.65q5.11-1.64 8.93-3.64t6.7-3.64q2.87-1.65 5.58-1.65 3.64 0 5.4 2.71l8.34 10.57q-4.81 5.64-10.81 9.46-5.99 3.82-12.51 6.11t-13.28 3.23q-6.75.94-13.1.94-12.57 0-23.38-4.17t-18.8-12.34q-7.99-8.16-12.57-20.21-4.59-12.04-4.59-27.9 0-12.34 4-23.21 3.99-10.87 11.46-18.92 7.46-8.05 18.21-12.75t24.26-4.7q11.4 0 21.03 3.65 9.64 3.64 16.57 10.63t10.87 17.16q3.94 10.16 3.94 23.2 0 6.58-1.41 8.87t-5.41 2.29m54.17-56.63 1.76 13.63q5.64-10.81 13.4-16.98 7.75-6.17 18.33-6.17 8.34 0 13.39 3.64l-1.88 21.74q-.59 2.12-1.7 3-1.12.88-3 .88-1.76 0-5.23-.59-3.46-.59-6.75-.59-4.82 0-8.58 1.41t-6.76 4.06q-2.99 2.64-5.28 6.4-2.3 3.76-4.29 8.58v74.26h-29.03v-120.56h17.04q4.47 0 6.23 1.59t2.35 5.7m155.45-56.64v169.91h-31.72v-169.91zm62.39 169.91h-29.02v-120.56H1383q5.64 0 7.41 5.29l1.88 8.93q3.17-3.52 6.64-6.46 3.46-2.94 7.4-5.05 3.93-2.12 8.46-3.35 4.52-1.24 9.93-1.24 11.39 0 18.74 6.17 7.34 6.17 10.98 16.39 2.82-5.99 7.05-10.28t9.29-6.99q5.05-2.7 10.75-3.99 5.7-1.3 11.45-1.3 9.99 0 17.75 3.06 7.75 3.05 13.04 8.93 5.29 5.87 8.05 14.33t2.76 19.39v76.73h-29.02v-76.73q0-11.51-5.06-17.33-5.05-5.82-14.8-5.82-4.47 0-8.28 1.53-3.82 1.53-6.7 4.41t-4.53 7.22q-1.64 4.35-1.64 9.99v76.73h-29.14v-76.73q0-12.1-4.88-17.62-4.87-5.53-14.27-5.53-6.35 0-11.81 3.12-5.47 3.11-10.17 8.52zm231.48-31.14v-20.33q-12.57.59-21.15 2.18-8.58 1.58-13.75 4.05t-7.4 5.76-2.23 7.17q0 7.63 4.52 10.92t11.81 3.29q8.93 0 15.45-3.23t12.75-9.81m-61.34-63.33-5.17-9.28q20.8-19.04 50.06-19.04 10.57 0 18.92 3.47 8.34 3.46 14.1 9.63 5.75 6.17 8.75 14.75t3 18.8v76.14h-13.16q-4.12 0-6.35-1.23-2.23-1.24-3.52-5l-2.59-8.69q-4.58 4.11-8.93 7.22-4.35 3.12-9.05 5.23-4.7 2.12-10.04 3.23-5.35 1.12-11.81 1.12-7.64 0-14.1-2.06-6.46-2.05-11.16-6.17-4.7-4.11-7.29-10.22-2.58-6.11-2.58-14.22 0-4.58 1.52-9.1 1.53-4.53 5-8.64 3.46-4.11 8.99-7.75 5.52-3.65 13.57-6.35t18.74-4.4q10.69-1.71 24.44-2.06v-7.05q0-12.1-5.17-17.92t-14.92-5.82q-7.05 0-11.69 1.65-4.65 1.64-8.17 3.7-3.53 2.06-6.4 3.7-2.88 1.65-6.41 1.65-3.05 0-5.17-1.59-2.11-1.59-3.41-3.7m160.98 31.25q5.4 0 9.4-1.46 3.99-1.47 6.64-4.06 2.64-2.58 3.99-6.23 1.35-3.64 1.35-7.98 0-8.94-5.34-14.16-5.35-5.23-16.04-5.23t-16.04 5.23q-5.35 5.22-5.35 14.16 0 4.22 1.36 7.87 1.35 3.64 3.99 6.28 2.64 2.65 6.7 4.12 4.05 1.46 9.34 1.46m32.78 68.63q0-3.53-2.11-5.76-2.12-2.23-5.76-3.47-3.64-1.23-8.52-1.82t-10.34-.88q-5.46-.3-11.28-.53-5.82-.24-11.34-.94-4.82 2.7-7.81 6.34-3 3.65-3 8.47 0 3.17 1.59 5.93 1.58 2.76 5.05 4.76t8.99 3.11q5.52 1.12 13.51 1.12 8.11 0 13.98-1.24 5.88-1.23 9.7-3.4 3.82-2.18 5.58-5.17 1.76-3 1.76-6.52m-5.76-121.85h34.67v10.81q0 5.17-6.23 6.34l-10.81 2q2.47 6.23 2.47 13.63 0 8.93-3.59 16.16-3.58 7.22-9.93 12.27-6.34 5.06-14.98 7.82-8.63 2.76-18.62 2.76-3.53 0-6.82-.35-3.29-.36-6.46-.94-5.64 3.4-5.64 7.64 0 3.64 3.35 5.34t8.87 2.41q5.52.7 12.57.88t14.46.76q7.4.59 14.45 2.06t12.57 4.64 8.87 8.64q3.35 5.46 3.35 14.04 0 7.99-3.93 15.51-3.94 7.52-11.4 13.4-7.46 5.87-18.33 9.45-10.87 3.59-24.74 3.59-13.63 0-23.73-2.65-10.11-2.64-16.8-7.05-6.7-4.4-9.99-10.16t-3.29-11.98q0-8.46 5.11-14.16t14.04-9.11q-4.82-2.47-7.64-6.58t-2.82-10.81q0-2.7 1-5.58t2.94-5.7 4.88-5.35q2.93-2.52 6.93-4.52-9.17-4.94-14.4-13.16-5.22-8.23-5.22-19.27 0-8.93 3.58-16.16 3.58-7.22 9.99-12.33 6.4-5.12 15.16-7.82 8.75-2.7 19.09-2.7 7.75 0 14.57 1.59 6.81 1.58 12.45 4.64m75.91 42.3h54.75q0-5.64-1.58-10.64-1.59-4.99-4.76-8.75t-8.05-5.93q-4.88-2.18-11.34-2.18-12.57 0-19.8 7.17-7.22 7.17-9.22 20.33m74.02 17.5h-74.61q.71 9.29 3.29 16.04 2.59 6.76 6.82 11.17 4.23 4.4 10.04 6.58 5.82 2.17 12.87 2.17t12.16-1.65q5.11-1.64 8.93-3.64t6.7-3.64q2.88-1.65 5.58-1.65 3.64 0 5.4 2.71l8.35 10.57q-4.82 5.64-10.81 9.46-6 3.82-12.52 6.11t-13.27 3.23q-6.76.94-13.11.94-12.57 0-23.38-4.17t-18.8-12.34q-7.99-8.16-12.57-20.21-4.58-12.04-4.58-27.9 0-12.34 3.99-23.21 4-10.87 11.46-18.92t18.21-12.75 24.26-4.7q11.4 0 21.04 3.65 9.63 3.64 16.56 10.63 6.94 6.99 10.87 17.16 3.94 10.16 3.94 23.2 0 6.58-1.41 8.87t-5.41 2.29"/></svg>