<svg xmlns="http://www.w3.org/2000/svg" width="1920" height="800" viewBox="0 0 1920 800"><rect width="100%" height="100%" fill="#1f2937"/><path fill="#ffffff" d="M410.86 409.83h23.92l-9.16-25.01q-.67-1.67-1.4-3.96-.73-2.28-1.46-4.94-.67 2.66-1.4 4.97t-1.4 4.03zm19.08-46.8 29.54 75.19h-10.82q-1.82 0-2.96-.91-1.15-.91-1.72-2.26l-5.62-15.34h-31.14l-5.62 15.34q-.42 1.19-1.61 2.18-1.2.99-2.97.99H386.1l29.59-75.19zm48.15 37.44v23.92q2.19 2.65 4.76 3.74t5.43 1.09q2.97 0 5.33-1.06 2.37-1.07 4.03-3.33 1.67-2.26 2.55-5.77.89-3.51.89-8.4 0-8.79-2.92-12.71-2.91-3.93-8.37-3.93-3.69 0-6.45 1.69-2.75 1.69-5.25 4.76m0-39.52v30.47q3.23-3.38 7.15-5.38 3.93-2 8.97-2 4.63 0 8.35 1.82t6.34 5.22q2.63 3.41 4.03 8.24 1.41 4.84 1.41 10.87 0 6.5-1.62 11.81-1.61 5.3-4.6 9.07t-7.2 5.85-9.36 2.08q-2.5 0-4.52-.49-2.03-.5-3.75-1.38-1.71-.89-3.14-2.16t-2.73-2.83l-.58 3.58q-.31 1.36-1.06 1.93-.76.57-2.06.57h-8.47v-77.27zm69.79 23.09q5.92 0 10.79 1.92 4.86 1.92 8.32 5.46 3.45 3.54 5.33 8.63 1.87 5.1 1.87 11.39 0 6.34-1.87 11.44-1.88 5.1-5.33 8.68-3.46 3.59-8.32 5.52-4.87 1.92-10.79 1.92-5.98 0-10.87-1.92-4.89-1.93-8.35-5.52-3.46-3.58-5.35-8.68-1.9-5.1-1.9-11.44 0-6.29 1.9-11.39 1.89-5.09 5.35-8.63t8.35-5.46 10.87-1.92m0 45.08q6.65 0 9.85-4.47t3.2-13.11q0-8.63-3.2-13.15-3.2-4.53-9.85-4.53-6.76 0-10.01 4.55t-3.25 13.13 3.25 13.08 10.01 4.5m69.26-44.25h12.84v53.35h-7.85q-2.55 0-3.22-2.34l-.89-4.26q-3.27 3.32-7.22 5.38-3.96 2.05-9.31 2.05-4.37 0-7.72-1.48-3.36-1.48-5.65-4.19-2.28-2.7-3.45-6.42t-1.17-8.19v-33.9h12.84v33.9q0 4.89 2.26 7.57t6.79 2.68q3.33 0 6.24-1.49 2.91-1.48 5.51-4.08zm43.32 54.18q-6.97 0-10.69-3.92-3.72-3.93-3.72-10.85v-29.79h-5.46q-1.04 0-1.77-.68-.72-.67-.72-2.03v-5.09l8.58-1.41 2.7-14.56q.26-1.04.99-1.61t1.87-.57h6.66v16.8h14.24v9.15H658.9v28.91q0 2.5 1.22 3.9t3.35 1.4q1.2 0 2-.28.81-.29 1.41-.6t1.06-.6q.47-.28.94-.28.57 0 .94.28.36.29.78.86l3.84 6.24q-2.8 2.34-6.44 3.54-3.64 1.19-7.54 1.19m62.19-38.22h10.45q3.85 0 6.71-.96t4.76-2.76q1.89-1.79 2.83-4.36.94-2.58.94-5.75 0-3.02-.94-5.46t-2.81-4.16-4.73-2.63-6.76-.91h-10.45zm-13.99-37.8h24.44q7.54 0 13.05 1.77 5.51 1.76 9.1 4.94 3.59 3.17 5.33 7.59t1.74 9.67q0 5.46-1.82 10.01t-5.46 7.83q-3.64 3.27-9.12 5.09-5.49 1.82-12.82 1.82h-10.45v26.47h-13.99zm101.4 37.49h24.96v30.42q-5.72 4.21-12.19 6.16-6.48 1.95-13.86 1.95-9.21 0-16.67-2.86t-12.74-7.95q-5.28-5.1-8.14-12.17t-2.86-15.45q0-8.47 2.76-15.54 2.76-7.08 7.83-12.17 5.07-5.1 12.29-7.91 7.23-2.8 16.23-2.8 4.57 0 8.55.72 3.98.73 7.39 2.01 3.4 1.27 6.21 3.09t5.15 4l-4.01 6.35q-.93 1.51-2.44 1.84-1.51.34-3.28-.75-1.71-.99-3.43-1.98-1.71-.98-3.82-1.71t-4.73-1.2q-2.63-.47-6.06-.47-5.56 0-10.06 1.88-4.5 1.87-7.67 5.35-3.17 3.49-4.89 8.37-1.72 4.89-1.72 10.92 0 6.45 1.85 11.52t5.2 8.58 8.09 5.36q4.73 1.84 10.55 1.84 4.16 0 7.44-.88 3.27-.88 6.39-2.39v-13.63h-9.46q-1.35 0-2.11-.75-.75-.75-.75-1.85zm82-30.42-3.48 6.6q-.62 1.1-1.33 1.59-.7.49-1.74.49-1.09 0-2.36-.8-1.28-.81-3.05-1.8-1.76-.98-4.13-1.79t-5.59-.81q-2.91 0-5.1.71-2.18.7-3.66 1.95-1.48 1.24-2.21 2.99-.73 1.74-.73 3.82 0 2.65 1.48 4.42t3.93 3.01q2.44 1.25 5.56 2.24t6.4 2.11q3.27 1.11 6.39 2.6 3.12 1.48 5.57 3.74 2.44 2.26 3.92 5.54 1.49 3.27 1.49 7.95 0 5.1-1.75 9.55-1.74 4.44-5.09 7.74-3.36 3.31-8.19 5.2-4.84 1.9-11.08 1.9-3.59 0-7.07-.7t-6.68-2-6.01-3.12-4.99-4.06l4.11-6.71q.52-.72 1.35-1.22.83-.49 1.77-.49 1.3 0 2.81 1.06 1.5 1.07 3.58 2.37t4.87 2.37q2.78 1.06 6.68 1.06 5.98 0 9.25-2.83 3.28-2.84 3.28-8.14 0-2.96-1.48-4.84-1.48-1.87-3.93-3.14-2.44-1.28-5.56-2.16t-6.35-1.92q-3.22-1.04-6.34-2.5t-5.56-3.8q-2.45-2.34-3.93-5.85t-1.48-8.65q0-4.11 1.64-8.01 1.63-3.9 4.75-6.92 3.12-3.01 7.7-4.83t10.5-1.82q6.66 0 12.28 2.08 5.61 2.08 9.56 5.82m86.22 4.06H944.9v22.25h28.18v11.18H944.9v30.63h-14.04v-75.19h47.42zm82.42-11.13h10.56v75.19h-12.33v-48.57q0-2.91.31-6.29l-22.72 42.69q-1.61 3.07-4.94 3.07h-1.98q-3.32 0-4.94-3.07l-22.98-42.85q.16 1.72.26 3.38.1 1.67.1 3.07v48.57h-12.32v-75.19h10.56q.93 0 1.61.05.67.05 1.22.26t.99.68q.44.46.86 1.24l22.51 41.76q.89 1.66 1.64 3.43t1.48 3.64q.73-1.92 1.51-3.72.78-1.79 1.66-3.45l22.21-41.66q.41-.78.88-1.24.47-.47 1.02-.68.54-.21 1.22-.26.67-.05 1.61-.05m66.56 63.65h30.06v11.54h-44.05v-75.19h13.99zm55.8 12.37q-6.97 0-10.69-3.92-3.72-3.93-3.72-10.85v-29.79h-5.46q-1.04 0-1.77-.68-.72-.67-.72-2.03v-5.09l8.58-1.41 2.7-14.56q.26-1.04.99-1.61t1.87-.57h6.66v16.8h14.24v9.15h-14.24v28.91q0 2.5 1.22 3.9t3.35 1.4q1.2 0 2-.28.81-.29 1.41-.6t1.06-.6q.47-.28.94-.28.57 0 .94.28.36.29.78.86l3.84 6.24q-2.8 2.34-6.44 3.54-3.64 1.19-7.54 1.19m54.39-16.64v-23.92q-2.19-2.65-4.76-3.74t-5.54-1.09q-2.91 0-5.25 1.09t-4 3.3q-1.67 2.21-2.55 5.62-.89 3.4-.89 8.03 0 4.68.76 7.93.75 3.25 2.16 5.3 1.4 2.06 3.43 2.97t4.52.91q4.01 0 6.81-1.67 2.81-1.66 5.31-4.73m0-61.46h12.84v77.27h-7.85q-2.55 0-3.22-2.34l-1.1-5.15q-3.22 3.69-7.41 5.98-4.18 2.29-9.75 2.29-4.36 0-8-1.82t-6.27-5.28-4.06-8.55q-1.43-5.1-1.43-11.65 0-5.93 1.62-11.02 1.61-5.1 4.62-8.84 3.02-3.75 7.23-5.85 4.21-2.11 9.47-2.11 4.47 0 7.64 1.4 3.17 1.41 5.67 3.8zm105.35 2.08v11.49h-22.67v63.7h-13.99v-63.7h-22.67v-11.49zm17.99 42.38h24.23q0-2.5-.7-4.71t-2.1-3.87q-1.41-1.67-3.57-2.63-2.15-.96-5.01-.96-5.57 0-8.77 3.17-3.19 3.17-4.08 9m32.76 7.75h-33.02q.31 4.1 1.46 7.09 1.14 2.99 3.01 4.94 1.88 1.95 4.45 2.92 2.57.96 5.69.96t5.39-.73q2.26-.73 3.95-1.61 1.69-.89 2.96-1.61 1.28-.73 2.47-.73 1.61 0 2.39 1.19l3.7 4.68q-2.14 2.5-4.79 4.19t-5.54 2.7q-2.88 1.02-5.87 1.43-2.99.42-5.8.42-5.56 0-10.35-1.85-4.78-1.84-8.32-5.46-3.53-3.61-5.56-8.94t-2.03-12.35q0-5.46 1.77-10.27t5.07-8.37 8.06-5.64 10.74-2.08q5.04 0 9.3 1.61 4.27 1.61 7.34 4.7 3.06 3.1 4.81 7.6 1.74 4.49 1.74 10.27 0 2.91-.63 3.92-.62 1.02-2.39 1.02m40.82 11.28v-9q-5.56.26-9.36.97-3.79.7-6.08 1.79t-3.28 2.55q-.99 1.45-.99 3.17 0 3.38 2.01 4.84 2 1.45 5.22 1.45 3.95 0 6.84-1.43t5.64-4.34m-27.14-28.03-2.29-4.11q9.2-8.42 22.15-8.42 4.68 0 8.37 1.53 3.7 1.54 6.24 4.27 2.55 2.73 3.88 6.52 1.32 3.8 1.32 8.32v33.7h-5.82q-1.82 0-2.81-.55-.99-.54-1.56-2.21l-1.14-3.84q-2.03 1.82-3.95 3.19-1.93 1.38-4.01 2.32-2.08.93-4.44 1.43-2.37.49-5.23.49-3.38 0-6.24-.91t-4.94-2.73-3.22-4.52q-1.15-2.71-1.15-6.29 0-2.03.68-4.03.67-2.01 2.21-3.83 1.53-1.82 3.98-3.43 2.44-1.61 6-2.81 3.56-1.19 8.3-1.95 4.73-.75 10.81-.91v-3.12q0-5.35-2.29-7.93-2.28-2.57-6.6-2.57-3.12 0-5.17.73-2.06.73-3.62 1.64t-2.83 1.63q-1.28.73-2.84.73-1.35 0-2.28-.7-.94-.7-1.51-1.64m64.58 41.81h-12.84v-53.35h7.85q2.5 0 3.28 2.34l.83 3.95q1.4-1.56 2.94-2.86 1.53-1.3 3.27-2.24 1.74-.93 3.75-1.48 2-.54 4.39-.54 5.04 0 8.29 2.73t4.87 7.25q1.24-2.65 3.12-4.55 1.87-1.9 4.1-3.09 2.24-1.2 4.76-1.77t5.07-.57q4.42 0 7.85 1.35 3.44 1.35 5.78 3.95t3.56 6.34q1.22 3.75 1.22 8.58v33.96h-12.84v-33.96q0-5.09-2.24-7.67-2.24-2.57-6.55-2.57-1.98 0-3.67.68-1.69.67-2.96 1.95-1.28 1.27-2 3.19-.73 1.93-.73 4.42v33.96h-12.9v-33.96q0-5.35-2.16-7.8-2.15-2.44-6.31-2.44-2.81 0-5.23 1.38t-4.5 3.77z"/></svg>