<svg xmlns="http://www.w3.org/2000/svg" width="1920" height="800" viewBox="0 0 1920 800"><rect width="100%" height="100%" fill="#1f2937"/><path fill="#ffffff" d="M398.35 393.115H408q3.55 0 6.19-.89t4.39-2.54q1.75-1.66 2.62-4.04.86-2.37.86-5.3 0-2.78-.86-5.04-.87-2.26-2.6-3.84-1.72-1.58-4.36-2.42t-6.24-.84h-9.65zm-12.91-34.9H408q6.96 0 12.04 1.63 5.09 1.64 8.4 4.56 3.32 2.93 4.92 7.01 1.61 4.08 1.61 8.93 0 5.04-1.68 9.24t-5.04 7.22q-3.36 3.03-8.42 4.71-5.07 1.68-11.83 1.68h-9.65v24.43h-12.91zm68.01 23.14.72 5.57q2.31-4.42 5.47-6.94 3.17-2.52 7.49-2.52 3.41 0 5.47 1.49l-.76 8.88q-.24.86-.7 1.22t-1.22.36q-.72 0-2.14-.24t-2.76-.24q-1.97 0-3.5.58-1.54.57-2.76 1.65-1.23 1.08-2.16 2.62-.94 1.54-1.76 3.5v30.34h-11.85v-49.25h6.96q1.82 0 2.54.65t.96 2.33m47.14-3.75q5.47 0 9.96 1.78t7.68 5.04 4.92 7.97q1.73 4.7 1.73 10.51 0 5.86-1.73 10.56t-4.92 8.02q-3.19 3.31-7.68 5.08-4.49 1.78-9.96 1.78-5.52 0-10.03-1.78-4.52-1.77-7.71-5.08-3.19-3.32-4.94-8.02t-1.75-10.56q0-5.81 1.75-10.51 1.75-4.71 4.94-7.97t7.71-5.04q4.51-1.78 10.03-1.78m0 41.62q6.14 0 9.09-4.13 2.96-4.13 2.96-12.09 0-7.97-2.96-12.15-2.95-4.17-9.09-4.17-6.24 0-9.24 4.2t-3 12.12 3 12.07 9.24 4.15m48.67 8.4H537.4v-40.32l-4.27-.67q-1.39-.29-2.23-.99-.84-.69-.84-1.99v-4.85h7.34v-3.64q0-4.23 1.28-7.59 1.27-3.36 3.64-5.71 2.38-2.35 5.79-3.6t7.68-1.25q3.41 0 6.33.91l-.24 5.96q-.04.67-.38 1.08-.34.4-.89.62t-1.27.29-1.54.07q-2.11 0-3.76.46-1.66.45-2.81 1.58t-1.75 2.98q-.6 1.84-.6 4.58v3.26h12.81v8.45h-12.43zm28.46-30.29h22.37q0-2.3-.65-4.34-.64-2.04-1.94-3.58-1.3-1.53-3.29-2.42t-4.63-.89q-5.14 0-8.09 2.93t-3.77 8.3m30.24 7.15h-30.48q.29 3.8 1.35 6.56 1.05 2.76 2.78 4.56t4.11 2.68q2.37.89 5.25.89t4.97-.67 3.65-1.49q1.56-.81 2.73-1.49 1.18-.67 2.28-.67 1.49 0 2.21 1.11l3.41 4.32q-1.97 2.3-4.42 3.86-2.44 1.56-5.11 2.5-2.66.93-5.42 1.32-2.76.38-5.35.38-5.14 0-9.56-1.7-4.41-1.71-7.68-5.04-3.26-3.34-5.13-8.26t-1.87-11.4q0-5.04 1.63-9.48t4.68-7.73 7.44-5.21 9.91-1.92q4.66 0 8.59 1.49 3.94 1.49 6.77 4.35 2.83 2.85 4.44 7 1.61 4.16 1.61 9.48 0 2.69-.58 3.63-.57.93-2.21.93m44.4-20.78-2.68 4.27q-.48.77-1.01 1.08t-1.35.31q-.86 0-1.84-.48-.99-.48-2.28-1.08-1.3-.6-2.96-1.08-1.65-.48-3.91-.48-3.5 0-5.49 1.49-2 1.49-2 3.89 0 1.58 1.04 2.66 1.03 1.08 2.73 1.9 1.71.82 3.87 1.46 2.16.65 4.39 1.42t4.39 1.75q2.16.99 3.86 2.5 1.71 1.51 2.74 3.62t1.03 5.09q0 3.55-1.27 6.55t-3.77 5.19q-2.49 2.18-6.17 3.4-3.67 1.23-8.47 1.23-2.54 0-4.97-.46-2.42-.45-4.65-1.27t-4.13-1.92-3.34-2.4l2.74-4.51q.53-.82 1.25-1.25t1.82-.43q1.11 0 2.09.62.98.63 2.28 1.35t3.05 1.34 4.44.62q2.11 0 3.62-.5t2.5-1.32q.98-.82 1.44-1.9.45-1.08.45-2.23 0-1.73-1.03-2.83t-2.73-1.92q-1.71-.82-3.89-1.46-2.19-.65-4.47-1.42t-4.46-1.8-3.89-2.62q-1.7-1.58-2.73-3.88-1.04-2.31-1.04-5.57 0-3.03 1.2-5.76 1.2-2.74 3.53-4.78t5.81-3.26q3.48-1.23 8.04-1.23 5.09 0 9.26 1.68 4.18 1.68 6.96 4.42m42.2 0-2.69 4.27q-.48.77-1.01 1.08t-1.34.31q-.87 0-1.85-.48-.99-.48-2.28-1.08-1.3-.6-2.95-1.08-1.66-.48-3.92-.48-3.5 0-5.49 1.49t-1.99 3.89q0 1.58 1.03 2.66t2.73 1.9q1.71.82 3.87 1.46 2.16.65 4.39 1.42t4.39 1.75q2.16.99 3.87 2.5 1.7 1.51 2.73 3.62t1.03 5.09q0 3.55-1.27 6.55t-3.77 5.19q-2.49 2.18-6.16 3.4-3.68 1.23-8.48 1.23-2.54 0-4.96-.46-2.43-.45-4.66-1.27t-4.13-1.92q-1.89-1.1-3.33-2.4l2.73-4.51q.53-.82 1.25-1.25t1.82-.43q1.11 0 2.09.62.99.63 2.28 1.35 1.3.72 3.05 1.34t4.44.62q2.11 0 3.62-.5 1.52-.5 2.5-1.32t1.44-1.9.46-2.23q0-1.73-1.04-2.83-1.03-1.1-2.73-1.92-1.71-.82-3.89-1.46-2.18-.65-4.46-1.42t-4.47-1.8q-2.18-1.03-3.89-2.62-1.7-1.58-2.73-3.88-1.03-2.31-1.03-5.57 0-3.03 1.2-5.76 1.2-2.74 3.52-4.78 2.33-2.04 5.81-3.26 3.48-1.23 8.04-1.23 5.09 0 9.27 1.68 4.17 1.68 6.96 4.42m9.84-5.33h11.9v49.25h-11.9zm13.53-14.35q0 1.54-.62 2.88-.63 1.34-1.66 2.35t-2.42 1.61-2.98.6q-1.53 0-2.9-.6t-2.38-1.61-1.61-2.35-.6-2.88q0-1.58.6-2.98.6-1.39 1.61-2.4 1.01-1 2.38-1.6t2.9-.6q1.59 0 2.98.6t2.42 1.6q1.03 1.01 1.66 2.4.62 1.4.62 2.98m32.26 13.58q5.47 0 9.96 1.78t7.68 5.04 4.92 7.97q1.73 4.7 1.73 10.51 0 5.86-1.73 10.56t-4.92 8.02q-3.19 3.31-7.68 5.08-4.49 1.78-9.96 1.78-5.52 0-10.03-1.78-4.52-1.77-7.71-5.08-3.19-3.32-4.94-8.02t-1.75-10.56q0-5.81 1.75-10.51 1.75-4.71 4.94-7.97t7.71-5.04q4.51-1.78 10.03-1.78m0 41.62q6.14 0 9.09-4.13 2.96-4.13 2.96-12.09 0-7.97-2.96-12.15-2.95-4.17-9.09-4.17-6.24 0-9.24 4.2t-3 12.12 3 12.07 9.24 4.15m43.63-38.69.82 3.89q1.48-1.49 3.14-2.76t3.5-2.16q1.85-.89 3.96-1.39 2.12-.51 4.61-.51 4.03 0 7.15 1.37t5.21 3.84 3.17 5.91q1.08 3.43 1.08 7.56v31.34H814.6v-31.34q0-4.52-2.06-6.99t-6.29-2.47q-3.07 0-5.76 1.39t-5.09 3.79v35.62h-11.85v-49.25h7.25q2.3 0 3.02 2.16m69.89 34.37v-8.3q-5.14.24-8.64.88-3.51.65-5.62 1.66t-3.02 2.35q-.91 1.35-.91 2.93 0 3.12 1.84 4.46 1.85 1.35 4.83 1.35 3.65 0 6.31-1.32t5.21-4.01m-25.06-25.87-2.11-3.79q8.5-7.78 20.45-7.78 4.32 0 7.73 1.42 3.4 1.41 5.76 3.93 2.35 2.52 3.57 6.03 1.23 3.5 1.23 7.68v31.1h-5.38q-1.68 0-2.59-.5-.91-.51-1.44-2.04l-1.06-3.56q-1.87 1.68-3.65 2.96-1.77 1.27-3.69 2.13-1.92.87-4.11 1.32-2.18.46-4.82.46-3.12 0-5.76-.84t-4.56-2.52-2.98-4.18q-1.05-2.49-1.05-5.81 0-1.87.62-3.72.63-1.84 2.04-3.52 1.42-1.68 3.67-3.17 2.26-1.49 5.55-2.59 3.29-1.11 7.65-1.8 4.37-.7 9.99-.84v-2.88q0-4.95-2.11-7.32-2.12-2.38-6.1-2.38-2.88 0-4.78.67-1.89.67-3.33 1.51t-2.62 1.52q-1.17.67-2.61.67-1.25 0-2.12-.65-.86-.65-1.39-1.51m47.91-32.74h11.85v71.33h-11.85zm89.08 8.45-3.21 6.1q-.58 1-1.23 1.46-.64.46-1.6.46-1.01 0-2.19-.75-1.17-.74-2.81-1.65-1.63-.92-3.81-1.66-2.19-.74-5.16-.74-2.69 0-4.71.64-2.01.65-3.38 1.8-1.37 1.16-2.04 2.76-.67 1.61-.67 3.53 0 2.45 1.37 4.08 1.36 1.63 3.62 2.79 2.26 1.15 5.14 2.06t5.9 1.94q3.02 1.04 5.9 2.4 2.88 1.37 5.14 3.46t3.62 5.11q1.37 3.03 1.37 7.35 0 4.7-1.61 8.8-1.6 4.11-4.7 7.16-3.1 3.04-7.56 4.8-4.46 1.75-10.22 1.75-3.32 0-6.53-.65-3.22-.65-6.17-1.85t-5.54-2.88q-2.6-1.68-4.61-3.74l3.79-6.19q.48-.68 1.25-1.13.77-.46 1.63-.46 1.2 0 2.59.99 1.39.98 3.31 2.18t4.49 2.18q2.57.99 6.17.99 5.52 0 8.54-2.62 3.03-2.61 3.03-7.51 0-2.74-1.37-4.46-1.37-1.73-3.62-2.91-2.26-1.17-5.14-1.99t-5.86-1.78q-2.97-.96-5.85-2.3t-5.14-3.5q-2.25-2.16-3.62-5.4t-1.37-8q0-3.79 1.51-7.39t4.39-6.38q2.88-2.79 7.11-4.47 4.22-1.68 9.69-1.68 6.15 0 11.33 1.92 5.19 1.92 8.83 5.38m19.97 32.59h22.37q0-2.3-.65-4.34t-1.94-3.58q-1.3-1.53-3.29-2.42t-4.63-.89q-5.14 0-8.09 2.93t-3.77 8.3m30.24 7.15h-30.48q.29 3.8 1.35 6.56 1.05 2.76 2.78 4.56t4.1 2.68q2.38.89 5.26.89t4.97-.67 3.65-1.49q1.56-.81 2.73-1.49 1.18-.67 2.28-.67 1.49 0 2.21 1.11l3.41 4.32q-1.97 2.3-4.42 3.86t-5.11 2.5q-2.66.93-5.42 1.32-2.76.38-5.36.38-5.13 0-9.55-1.7-4.41-1.71-7.68-5.04-3.26-3.34-5.13-8.26-1.88-4.92-1.88-11.4 0-5.04 1.64-9.48 1.63-4.44 4.68-7.73 3.04-3.29 7.44-5.21 4.39-1.92 9.91-1.92 4.65 0 8.59 1.49t6.77 4.35q2.83 2.85 4.44 7 1.61 4.16 1.61 9.48 0 2.69-.58 3.63-.58.93-2.21.93m50.07-20.01-3.12 4.32q-.53.67-1.04 1.05-.5.39-1.46.39-.91 0-1.78-.55-.86-.56-2.06-1.25-1.2-.7-2.86-1.25-1.65-.55-4.1-.55-3.12 0-5.47 1.13-2.35 1.12-3.91 3.24-1.56 2.11-2.33 5.11t-.77 6.79q0 3.94.84 7.01t2.42 5.16q1.59 2.09 3.84 3.17 2.26 1.08 5.09 1.08t4.59-.7q1.75-.7 2.95-1.54t2.09-1.53q.88-.7 1.99-.7 1.44 0 2.16 1.11l3.41 4.32q-1.97 2.3-4.28 3.86-2.3 1.56-4.77 2.5-2.47.93-5.09 1.32-2.62.38-5.21.38-4.56 0-8.59-1.7-4.03-1.71-7.06-4.97-3.02-3.27-4.77-7.99-1.75-4.73-1.75-10.78 0-5.42 1.56-10.06 1.56-4.63 4.58-8.01 3.02-3.39 7.49-5.31 4.46-1.92 10.27-1.92 5.52 0 9.67 1.78t7.47 5.09m38.44-6.1h11.86v49.25h-7.25q-2.35 0-2.97-2.16l-.82-3.94q-3.02 3.08-6.67 4.97-3.65 1.9-8.59 1.9-4.04 0-7.13-1.37-3.1-1.37-5.21-3.86-2.11-2.5-3.19-5.93t-1.08-7.56v-31.3h11.85v31.3q0 4.51 2.09 6.98t6.27 2.47q3.07 0 5.76-1.36 2.68-1.37 5.08-3.77zm34.04 2.98.72 5.57q2.3-4.42 5.47-6.94t7.49-2.52q3.4 0 5.47 1.49l-.77 8.88q-.24.86-.7 1.22-.45.36-1.22.36-.72 0-2.14-.24-1.41-.24-2.76-.24-1.96 0-3.5.58-1.54.57-2.76 1.65t-2.16 2.62-1.75 3.5v30.34h-11.86v-49.25h6.96q1.83 0 2.55.65t.96 2.33m25.72-2.98h11.91v49.25h-11.91zm13.54-14.35q0 1.54-.62 2.88-.63 1.34-1.66 2.35t-2.42 1.61q-1.4.6-2.98.6-1.54 0-2.9-.6-1.37-.6-2.38-1.61t-1.61-2.35-.6-2.88q0-1.58.6-2.98.6-1.39 1.61-2.4 1.01-1 2.38-1.6 1.36-.6 2.9-.6 1.58 0 2.98.6 1.39.6 2.42 1.6 1.03 1.01 1.66 2.4.62 1.4.62 2.98m26.88 64.37q-6.43 0-9.86-3.63-3.44-3.62-3.44-10v-27.51h-5.04q-.96 0-1.63-.62-.67-.63-.67-1.87v-4.71l7.92-1.29 2.5-13.44q.24-.96.91-1.49t1.73-.53h6.14v15.5h13.15v8.45h-13.15v26.69q0 2.3 1.13 3.6t3.09 1.3q1.11 0 1.85-.27.75-.26 1.3-.55t.98-.55q.43-.27.87-.27.52 0 .86.27.34.26.72.79l3.55 5.76q-2.59 2.16-5.95 3.26-3.36 1.11-6.96 1.11m54.53-50.02h9.5l-26.83 62.79q-.53 1.24-1.37 1.89t-2.57.65h-8.83l9.22-19.78-19.92-45.55h10.41q1.4 0 2.19.67.79.68 1.17 1.54l10.47 25.54q.53 1.29.89 2.59.36 1.29.69 2.64.43-1.35.87-2.67.43-1.32.96-2.61l9.88-25.49q.39-.96 1.28-1.58.88-.63 1.99-.63m89.09-20.16v10.61h-20.93v58.8h-12.91v-58.8h-20.93v-10.61zm16.6 39.12h22.37q0-2.3-.65-4.34-.64-2.04-1.94-3.58-1.3-1.53-3.29-2.42t-4.63-.89q-5.14 0-8.09 2.93t-3.77 8.3m30.24 7.15h-30.48q.29 3.8 1.35 6.56 1.05 2.76 2.78 4.56t4.11 2.68q2.37.89 5.25.89t4.97-.67 3.65-1.49q1.56-.81 2.73-1.49 1.18-.67 2.28-.67 1.49 0 2.21 1.11l3.41 4.32q-1.97 2.3-4.42 3.86-2.44 1.56-5.11 2.5-2.66.93-5.42 1.32-2.76.38-5.35.38-5.14 0-9.56-1.7-4.41-1.71-7.68-5.04-3.26-3.34-5.13-8.26t-1.87-11.4q0-5.04 1.63-9.48t4.68-7.73 7.44-5.21 9.91-1.92q4.66 0 8.59 1.49 3.94 1.49 6.77 4.35 2.83 2.85 4.44 7 1.61 4.16 1.61 9.48 0 2.69-.58 3.63-.57.93-2.21.93m37.68 10.42v-8.3q-5.13.24-8.64.88-3.5.65-5.61 1.66t-3.03 2.35q-.91 1.35-.91 2.93 0 3.12 1.85 4.46 1.85 1.35 4.82 1.35 3.65 0 6.32-1.32 2.66-1.32 5.2-4.01m-25.05-25.87-2.11-3.79q8.49-7.78 20.44-7.78 4.32 0 7.73 1.42 3.41 1.41 5.76 3.93t3.58 6.03q1.22 3.5 1.22 7.68v31.1h-5.37q-1.68 0-2.6-.5-.91-.51-1.44-2.04l-1.05-3.56q-1.87 1.68-3.65 2.96-1.78 1.27-3.7 2.13-1.92.87-4.1 1.32-2.18.46-4.82.46-3.12 0-5.76-.84t-4.56-2.52-2.98-4.18q-1.06-2.49-1.06-5.81 0-1.87.63-3.72.62-1.84 2.04-3.52 1.41-1.68 3.67-3.17t5.54-2.59q3.29-1.11 7.66-1.8 4.37-.7 9.98-.84v-2.88q0-4.95-2.11-7.32-2.11-2.38-6.09-2.38-2.88 0-4.78.67t-3.34 1.51-2.61 1.52q-1.18.67-2.62.67-1.25 0-2.11-.65t-1.39-1.51m59.61 38.59h-11.85v-49.25h7.25q2.3 0 3.02 2.16l.77 3.65q1.29-1.44 2.71-2.64t3.02-2.06q1.61-.87 3.46-1.37 1.85-.51 4.06-.51 4.65 0 7.65 2.52t4.49 6.7q1.15-2.45 2.88-4.2t3.79-2.86q2.07-1.1 4.39-1.63 2.33-.53 4.68-.53 4.08 0 7.25 1.25t5.33 3.65 3.29 5.86q1.13 3.45 1.13 7.92v31.34h-11.86v-31.34q0-4.71-2.06-7.08-2.07-2.38-6.05-2.38-1.83 0-3.39.62-1.56.63-2.73 1.8-1.18 1.18-1.85 2.96-.67 1.77-.67 4.08v31.34h-11.91v-31.34q0-4.95-1.99-7.2-1.99-2.26-5.83-2.26-2.59 0-4.82 1.27-2.24 1.27-4.16 3.48z"/></svg>