<svg xmlns="http://www.w3.org/2000/svg" width="2400" height="900" viewBox="0 0 2400 900"><rect width="100%" height="100%" fill="#1f2937"/><path fill="#ffffff" d="M564.215 378.62h22.14v118.57h-22.14v-51.82h-55.68v51.82h-22.14V378.62h22.14v51h55.68zm82.57 33.13q9.35 0 17.02 3.03t13.12 8.61 8.4 13.61q2.96 8.04 2.96 17.96 0 10-2.96 18.04-2.95 8.04-8.4 13.69-5.45 5.66-13.12 8.7-7.67 3.03-17.02 3.03-9.43 0-17.13-3.03-7.71-3.04-13.17-8.7-5.45-5.65-8.44-13.69t-2.99-18.04q0-9.92 2.99-17.96 2.99-8.03 8.44-13.61 5.46-5.58 13.17-8.61 7.7-3.03 17.13-3.03m0 71.09q10.5 0 15.54-7.05 5.05-7.05 5.05-20.67 0-13.61-5.05-20.74-5.04-7.14-15.54-7.14-10.66 0-15.78 7.18-5.13 7.17-5.13 20.7t5.13 20.63q5.12 7.09 15.78 7.09m112.92-60.68-4.59 7.3q-.82 1.31-1.73 1.84-.9.54-2.29.54-1.48 0-3.16-.82t-3.89-1.85q-2.22-1.02-5.05-1.84t-6.68-.82q-5.99 0-9.39 2.54t-3.4 6.64q0 2.71 1.76 4.55 1.76 1.85 4.67 3.24 2.92 1.39 6.61 2.5t7.5 2.42 7.5 2.99 6.6 4.27q2.91 2.58 4.68 6.19 1.76 3.61 1.76 8.69 0 6.07-2.17 11.19-2.18 5.13-6.44 8.86t-10.54 5.82q-6.27 2.09-14.47 2.09-4.35 0-8.49-.78t-7.95-2.17-7.05-3.28-5.7-4.1l4.67-7.71q.9-1.39 2.13-2.13t3.12-.74 3.57 1.07q1.68 1.06 3.89 2.29 2.22 1.23 5.21 2.3t7.58 1.07q3.61 0 6.19-.87 2.59-.86 4.27-2.25t2.46-3.24q.78-1.84.78-3.81 0-2.95-1.77-4.84-1.76-1.89-4.67-3.28t-6.64-2.5-7.63-2.42q-3.89-1.31-7.62-3.08-3.73-1.76-6.65-4.46-2.91-2.71-4.67-6.65-1.76-3.93-1.76-9.51 0-5.16 2.05-9.84 2.05-4.67 6.02-8.16 3.98-3.48 9.93-5.57 5.94-2.09 13.73-2.09 8.69 0 15.83 2.87 7.13 2.87 11.89 7.54m36.41 15.5v37.72q3.44 4.18 7.5 5.9t8.81 1.72q4.6 0 8.29-1.72t6.27-5.25q2.58-3.52 3.98-8.89 1.39-5.37 1.39-12.67 0-7.38-1.19-12.51-1.19-5.12-3.4-8.32-2.22-3.2-5.37-4.67-3.16-1.48-7.18-1.48-6.31 0-10.74 2.67-4.43 2.66-8.36 7.5m-2.71-20.91 1.64 7.79q5.17-5.82 11.73-9.43t15.41-3.61q6.89 0 12.59 2.87t9.84 8.32q4.14 5.46 6.39 13.45 2.26 8 2.26 18.33 0 9.43-2.54 17.46-2.54 8.04-7.26 13.94-4.71 5.91-11.4 9.23-6.68 3.32-14.96 3.32-7.05 0-12.06-2.17-5-2.18-8.93-6.03v34.44h-20.26v-111.6h12.38q3.94 0 5.17 3.69m76.26-3.69h20.34v84.13h-20.34zm23.12-24.52q0 2.62-1.06 4.92-1.07 2.3-2.83 4.02t-4.14 2.74q-2.38 1.03-5.09 1.03-2.62 0-4.96-1.03-2.33-1.02-4.06-2.74-1.72-1.72-2.74-4.02-1.03-2.3-1.03-4.92 0-2.71 1.03-5.08 1.02-2.38 2.74-4.1 1.73-1.73 4.06-2.75 2.34-1.03 4.96-1.03 2.71 0 5.09 1.03 2.38 1.02 4.14 2.75 1.76 1.72 2.83 4.1 1.06 2.37 1.06 5.08m45.92 109.96q-10.98 0-16.85-6.19-5.86-6.19-5.86-17.1v-46.98h-8.61q-1.64 0-2.79-1.07-1.15-1.06-1.15-3.2v-8.03l13.53-2.22 4.27-22.96q.41-1.64 1.56-2.54 1.14-.9 2.95-.9h10.49v26.49h22.47v14.43h-22.47v45.59q0 3.94 1.93 6.15t5.29 2.21q1.89 0 3.16-.45t2.21-.94 1.68-.94 1.48-.45q.9 0 1.47.45.58.45 1.23 1.35l6.07 9.84q-4.43 3.69-10.17 5.58-5.74 1.88-11.89 1.88m77.41-23.04v-14.19q-8.77.41-14.76 1.52-5.98 1.11-9.59 2.83t-5.17 4.02q-1.56 2.29-1.56 5 0 5.33 3.16 7.63 3.16 2.29 8.24 2.29 6.23 0 10.78-2.25 4.56-2.26 8.9-6.85m-42.8-44.2-3.61-6.48q14.51-13.28 34.93-13.28 7.38 0 13.2 2.42 5.83 2.42 9.84 6.72 4.02 4.31 6.11 10.29 2.09 5.99 2.09 13.12v53.14h-9.18q-2.87 0-4.43-.86t-2.46-3.49l-1.8-6.06q-3.2 2.87-6.23 5.04-3.04 2.17-6.32 3.65-3.28 1.47-7.01 2.25t-8.24.78q-5.33 0-9.84-1.43-4.51-1.44-7.79-4.31t-5.08-7.13q-1.81-4.27-1.81-9.92 0-3.2 1.07-6.36 1.06-3.16 3.48-6.03t6.28-5.41q3.85-2.54 9.47-4.43 5.61-1.88 13.08-3.07 7.46-1.19 17.05-1.44v-4.92q0-8.44-3.61-12.5-3.6-4.06-10.41-4.06-4.92 0-8.16 1.15t-5.7 2.58q-2.46 1.44-4.47 2.58-2.01 1.15-4.47 1.15-2.13 0-3.6-1.11-1.48-1.1-2.38-2.58m81.83-55.92h20.26v121.85h-20.26zm96.44 46.82-4.6 7.3q-.82 1.31-1.72 1.84-.9.54-2.29.54-1.48 0-3.16-.82t-3.9-1.85q-2.21-1.02-5.04-1.84t-6.68-.82q-5.99 0-9.39 2.54t-3.4 6.64q0 2.71 1.76 4.55 1.76 1.85 4.67 3.24t6.6 2.5 7.51 2.42q3.81 1.31 7.5 2.99t6.6 4.27q2.91 2.58 4.67 6.19 1.77 3.61 1.77 8.69 0 6.07-2.18 11.19-2.17 5.13-6.43 8.86-4.27 3.73-10.54 5.82t-14.47 2.09q-4.35 0-8.49-.78t-7.95-2.17q-3.82-1.39-7.06-3.28-3.23-1.89-5.69-4.1l4.67-7.71q.9-1.39 2.13-2.13t3.12-.74q1.88 0 3.56 1.07 1.69 1.06 3.9 2.29t5.21 2.3q2.99 1.07 7.58 1.07 3.61 0 6.19-.87 2.59-.86 4.27-2.25t2.46-3.24q.78-1.84.78-3.81 0-2.95-1.77-4.84-1.76-1.89-4.67-3.28t-6.64-2.5-7.63-2.42q-3.89-1.31-7.63-3.08-3.73-1.76-6.64-4.46-2.91-2.71-4.67-6.65-1.76-3.93-1.76-9.51 0-5.16 2.05-9.84 2.05-4.67 6.02-8.16 3.98-3.48 9.92-5.57 5.95-2.09 13.74-2.09 8.69 0 15.83 2.87 7.13 2.87 11.89 7.54m116.27 51.66-31.08-32.06q-6.56 4.26-9.55 9.63t-2.99 11.52q0 4.51 1.56 8.12 1.55 3.61 4.22 6.11 2.66 2.5 6.23 3.85 3.57 1.36 7.59 1.36 7.21 0 13.2-2.26 5.98-2.25 10.82-6.27m23.04-2.38 24.85 25.75h-19.84q-3.12 0-5.05-.74-1.92-.74-4.06-3.11l-8.2-8.45q-7.79 6.4-17.46 10-9.68 3.61-20.91 3.61-6.81 0-13.41-2.34-6.6-2.33-11.77-6.76-5.16-4.43-8.32-10.7t-3.16-14.15q0-5.57 1.81-10.53 1.8-4.96 5-9.23 3.2-4.26 7.63-7.67 4.42-3.4 9.67-5.86-4.43-6.15-6.39-12.01-1.97-5.86-1.97-11.69 0-6.15 2.25-11.68 2.26-5.54 6.52-9.64 4.27-4.1 10.5-6.52 6.23-2.41 14.1-2.41 7.22 0 12.92 2.21t9.75 5.9q4.06 3.69 6.4 8.45t2.75 9.84l-12.88 2.71q-3.6.73-5.24-3.12-.74-2.13-1.93-4.06t-2.83-3.36q-1.64-1.44-3.85-2.3-2.22-.86-5.09-.86-3.44 0-6.15 1.19-2.7 1.19-4.55 3.2-1.84 2.01-2.83 4.67-.98 2.67-.98 5.62 0 2.46.49 4.76.49 2.29 1.64 4.59 1.15 2.29 2.99 4.71 1.85 2.42 4.55 5.21l31.49 32.72q2.71-5.17 4.35-10.91t2.13-11.64q.25-1.89 1.31-3.04 1.07-1.14 2.95-1.14h12.63q-.08 10.82-3.11 20.66-3.04 9.84-8.7 18.12m147.03-81.67-5.49 10.41q-.99 1.73-2.1 2.5-1.1.78-2.74.78-1.72 0-3.73-1.27t-4.8-2.83q-2.79-1.55-6.52-2.83-3.73-1.27-8.81-1.27-4.6 0-8.04 1.11t-5.78 3.08q-2.34 1.96-3.49 4.71-1.14 2.75-1.14 6.03 0 4.18 2.33 6.97 2.34 2.79 6.19 4.75 3.86 1.97 8.78 3.53t10.08 3.32q5.17 1.76 10.09 4.1t8.77 5.9q3.86 3.57 6.19 8.74 2.34 5.16 2.34 12.54 0 8.04-2.75 15.05-2.74 7.01-8.03 12.22t-12.92 8.2q-7.62 2.99-17.46 2.99-5.66 0-11.15-1.1-5.5-1.11-10.54-3.16t-9.47-4.92-7.87-6.4l6.47-10.58q.82-1.14 2.14-1.92 1.31-.78 2.78-.78 2.05 0 4.43 1.68t5.66 3.73 7.67 3.73q4.38 1.68 10.53 1.68 9.43 0 14.6-4.47t5.17-12.83q0-4.67-2.34-7.63-2.34-2.95-6.19-4.96-3.86-2.01-8.78-3.4t-10-3.03-10-3.94-8.78-5.99q-3.85-3.69-6.19-9.22-2.34-5.54-2.34-13.65 0-6.48 2.59-12.63 2.58-6.15 7.5-10.91 4.92-4.75 12.14-7.62 7.21-2.87 16.56-2.87 10.5 0 19.35 3.28 8.86 3.28 15.09 9.18m83.72 33.7-5.33 7.38q-.9 1.15-1.76 1.81-.86.65-2.5.65-1.56 0-3.04-.94-1.47-.94-3.52-2.13t-4.88-2.14q-2.83-.94-7.01-.94-5.33 0-9.35 1.93t-6.68 5.53q-2.67 3.61-3.98 8.74-1.31 5.12-1.31 11.6 0 6.72 1.43 11.97 1.44 5.25 4.14 8.82 2.71 3.56 6.56 5.41 3.86 1.84 8.7 1.84 4.83 0 7.83-1.19 2.99-1.18 5.04-2.62 2.05-1.43 3.57-2.62 1.51-1.19 3.4-1.19 2.46 0 3.69 1.88l5.82 7.38q-3.36 3.94-7.3 6.6-3.93 2.67-8.15 4.27-4.23 1.6-8.7 2.25-4.47.66-8.89.66-7.79 0-14.68-2.91t-12.06-8.49q-5.16-5.57-8.16-13.65-2.99-8.08-2.99-18.41 0-9.27 2.67-17.18 2.66-7.91 7.83-13.69 5.16-5.78 12.79-9.06t17.55-3.28q9.43 0 16.52 3.03t12.75 8.69m33.7-48.13v46.74q4.92-4.59 10.83-7.46 5.9-2.87 13.86-2.87 6.88 0 12.21 2.33 5.33 2.34 8.9 6.56 3.57 4.23 5.41 10.09 1.85 5.86 1.85 12.91v53.55h-20.26v-53.55q0-7.7-3.52-11.93-3.53-4.22-10.74-4.22-5.25 0-9.84 2.38-4.6 2.38-8.7 6.48v60.84h-20.25V375.34zm109.47 36.41q9.35 0 17.02 3.03t13.12 8.61 8.4 13.61q2.96 8.04 2.96 17.96 0 10-2.96 18.04-2.95 8.04-8.4 13.69-5.45 5.66-13.12 8.7-7.67 3.03-17.02 3.03-9.43 0-17.13-3.03-7.71-3.04-13.16-8.7-5.46-5.65-8.45-13.69t-2.99-18.04q0-9.92 2.99-17.96 2.99-8.03 8.45-13.61 5.45-5.58 13.16-8.61 7.7-3.03 17.13-3.03m0 71.09q10.5 0 15.54-7.05 5.05-7.05 5.05-20.67 0-13.61-5.05-20.74-5.04-7.14-15.54-7.14-10.66 0-15.78 7.18-5.13 7.17-5.13 20.7t5.13 20.63q5.12 7.09 15.78 7.09m94.22-71.09q9.35 0 17.02 3.03 7.66 3.03 13.12 8.61 5.45 5.58 8.4 13.61 2.95 8.04 2.95 17.96 0 10-2.95 18.04t-8.4 13.69q-5.46 5.66-13.12 8.7-7.67 3.03-17.02 3.03-9.43 0-17.14-3.03-7.7-3.04-13.16-8.7-5.45-5.65-8.44-13.69-3-8.04-3-18.04 0-9.92 3-17.96 2.99-8.03 8.44-13.61 5.46-5.58 13.16-8.61 7.71-3.03 17.14-3.03m0 71.09q10.5 0 15.54-7.05t5.04-20.67q0-13.61-5.04-20.74-5.04-7.14-15.54-7.14-10.66 0-15.78 7.18-5.13 7.17-5.13 20.7t5.13 20.63q5.12 7.09 15.78 7.09m57.24-107.5h20.25v121.85h-20.25zm96.43 46.82-4.59 7.3q-.82 1.31-1.72 1.84-.91.54-2.3.54-1.48 0-3.16-.82t-3.89-1.85q-2.22-1.02-5.05-1.84-2.82-.82-6.68-.82-5.98 0-9.39 2.54-3.4 2.54-3.4 6.64 0 2.71 1.76 4.55 1.77 1.85 4.68 3.24t6.6 2.5 7.5 2.42 7.5 2.99 6.6 4.27q2.92 2.58 4.68 6.19t1.76 8.69q0 6.07-2.17 11.19-2.17 5.13-6.44 8.86-4.26 3.73-10.54 5.82-6.27 2.09-14.47 2.09-4.34 0-8.49-.78-4.14-.78-7.95-2.17t-7.05-3.28-5.7-4.1l4.67-7.71q.91-1.39 2.14-2.13t3.11-.74q1.89 0 3.57 1.07 1.68 1.06 3.89 2.29 2.22 1.23 5.21 2.3t7.59 1.07q3.6 0 6.19-.87 2.58-.86 4.26-2.25t2.46-3.24q.78-1.84.78-3.81 0-2.95-1.76-4.84-1.77-1.89-4.68-3.28t-6.64-2.5-7.63-2.42q-3.89-1.31-7.62-3.08-3.73-1.76-6.64-4.46-2.91-2.71-4.68-6.65-1.76-3.93-1.76-9.51 0-5.16 2.05-9.84 2.05-4.67 6.03-8.16 3.97-3.48 9.92-5.57 5.94-2.09 13.73-2.09 8.7 0 15.83 2.87t11.89 7.54"/></svg>