<svg xmlns="http://www.w3.org/2000/svg" width="2400" height="900" viewBox="0 0 2400 900"><rect width="100%" height="100%" fill="#1f2937"/><path fill="#ffffff" d="M645.505 505.575q3.2 0 5.67 2.48l15.42 16.73q-12.8 15.86-31.5 24.3-18.69 8.44-44.88 8.44-23.43 0-42.13-8-18.69-8.01-31.93-22.27t-20.3-34.04q-7.06-19.79-7.06-43.22 0-23.71 7.57-43.43 7.56-19.71 21.31-33.97t32.81-22.19 42.2-7.93q22.99 0 40.81 7.57 17.83 7.56 30.34 19.78l-13.1 18.19q-1.16 1.75-2.98 3.06t-5.02 1.31q-2.18 0-4.51-1.24t-5.09-3.06q-2.77-1.82-6.4-4-3.64-2.18-8.44-4t-11.13-3.05q-6.33-1.24-14.63-1.24-14.11 0-25.82 5.02-11.72 5.02-20.15 14.55-8.44 9.53-13.1 23.28t-4.66 31.35q0 17.75 5.02 31.58 5.02 13.82 13.61 23.28 8.58 9.45 20.22 14.47t25.03 5.02q8 0 14.48-.87 6.47-.87 11.93-2.76 5.45-1.9 10.33-4.88 4.87-2.98 9.67-7.35 1.46-1.3 3.06-2.11 1.6-.8 3.35-.8m108.39-101.99q16.59 0 30.19 5.38 13.61 5.39 23.28 15.28 9.68 9.89 14.92 24.15t5.24 31.87q0 17.75-5.24 32.01t-14.92 24.3q-9.67 10.04-23.28 15.42-13.6 5.38-30.19 5.38-16.73 0-30.41-5.38-13.67-5.38-23.35-15.42t-14.99-24.3-5.31-32.01q0-17.61 5.31-31.87t14.99-24.15 23.35-15.28q13.68-5.38 30.41-5.38m0 126.15q18.63 0 27.58-12.52 8.94-12.51 8.94-36.66t-8.94-36.81q-8.95-12.66-27.58-12.66-18.91 0-28.01 12.73-9.09 12.73-9.09 36.74t9.09 36.59q9.1 12.59 28.01 12.59m132.26-117.28 2.48 11.79q4.51-4.51 9.53-8.37 5.02-3.85 10.62-6.54 5.6-2.7 12-4.22 6.4-1.53 13.97-1.53 12.22 0 21.68 4.15 9.46 4.14 15.79 11.64 6.32 7.49 9.6 17.89 3.27 10.41 3.27 22.92v95.01h-35.94v-95.01q0-13.68-6.25-21.17-6.26-7.49-19.06-7.49-9.32 0-17.46 4.21-8.15 4.22-15.43 11.5v107.96h-35.93v-149.28h21.97q6.98 0 9.16 6.54m182.75 145.07q-19.5 0-29.9-10.99-10.4-10.98-10.4-30.33v-83.38h-15.28q-2.91 0-4.95-1.89-2.03-1.89-2.03-5.67v-14.26l24-3.93 7.57-40.74q.73-2.91 2.76-4.51 2.04-1.6 5.24-1.6h18.63v47h39.86v25.6h-39.86v80.9q0 6.99 3.41 10.92 3.42 3.92 9.39 3.92 3.35 0 5.6-.8 2.26-.8 3.93-1.67t2.98-1.67 2.62-.8q1.6 0 2.62.8t2.18 2.4l10.77 17.46q-7.86 6.55-18.04 9.89-10.19 3.35-21.1 3.35m137.35-40.89v-25.17q-15.57.73-26.19 2.69-10.62 1.97-17.02 5.02-6.4 3.06-9.17 7.13-2.76 4.08-2.76 8.88 0 9.46 5.6 13.53t14.62 4.07q11.06 0 19.14-4 8.07-4 15.78-12.15m-75.95-78.42-6.4-11.5q25.75-23.57 61.98-23.57 13.1 0 23.43 4.29 10.33 4.3 17.46 11.94 7.13 7.63 10.84 18.26 3.71 10.62 3.71 23.28v94.28h-16.3q-5.09 0-7.86-1.53-2.76-1.53-4.36-6.18l-3.2-10.77q-5.68 5.09-11.06 8.95t-11.2 6.47q-5.82 2.62-12.44 4.01-6.62 1.38-14.63 1.38-9.45 0-17.46-2.55-8-2.54-13.82-7.64-5.82-5.09-9.02-12.66-3.2-7.56-3.2-17.6 0-5.68 1.89-11.28t6.18-10.69q4.3-5.09 11.14-9.6 6.83-4.51 16.8-7.86t23.21-5.46 30.26-2.54v-8.73q0-14.99-6.4-22.19t-18.48-7.2q-8.73 0-14.48 2.03-5.74 2.04-10.11 4.59-4.36 2.54-7.93 4.58-3.56 2.04-7.93 2.04-3.78 0-6.4-1.97-2.62-1.96-4.22-4.58m261.17-13.82-9.45 13.09q-1.6 2.04-3.13 3.2-1.53 1.17-4.44 1.17-2.76 0-5.38-1.68-2.62-1.67-6.26-3.78t-8.66-3.78q-5.02-1.68-12.44-1.68-9.45 0-16.58 3.42t-11.86 9.82q-4.73 6.41-7.06 15.5t-2.33 20.59q0 11.93 2.55 21.24t7.35 15.64 11.64 9.6q6.84 3.28 15.42 3.28t13.89-2.11q5.32-2.11 8.95-4.66 3.64-2.54 6.33-4.65t6.04-2.11q4.37 0 6.55 3.34l10.33 13.1q-5.97 6.98-12.95 11.71t-14.48 7.57q-7.49 2.83-15.42 4-7.93 1.16-15.79 1.16-13.82 0-26.04-5.16-12.22-5.17-21.39-15.06-9.17-9.9-14.48-24.23t-5.31-32.66q0-16.44 4.73-30.48 4.73-14.05 13.9-24.3 9.16-10.26 22.69-16.08t31.14-5.82q16.73 0 29.32 5.38 12.58 5.39 22.62 15.43m73.63 133.13q-19.5 0-29.9-10.99-10.41-10.98-10.41-30.33v-83.38h-15.27q-2.91 0-4.95-1.89t-2.04-5.67v-14.26l24.01-3.93 7.57-40.74q.72-2.91 2.76-4.51t5.24-1.6h18.62v47h39.87v25.6h-39.87v80.9q0 6.99 3.42 10.92 3.42 3.92 9.39 3.92 3.34 0 5.6-.8 2.25-.8 3.93-1.67 1.67-.87 2.98-1.67t2.62-.8q1.6 0 2.62.8t2.18 2.4l10.77 17.46q-7.86 6.55-18.05 9.89-10.18 3.35-21.09 3.35m219.56-33.9q11.35 0 20.29-3.79 8.95-3.78 15.06-10.62t9.39-16.58q3.27-9.75 3.27-21.83v-126h39.14v126q0 18.77-6.04 34.7t-17.31 27.5q-11.28 11.57-27.43 18.04-16.15 6.48-36.37 6.48-20.37 0-36.52-6.48-16.15-6.47-27.43-18.04t-17.32-27.5q-6.03-15.93-6.03-34.7v-126h39.14v125.85q0 12.08 3.27 21.83t9.46 16.66q6.18 6.91 15.13 10.69 8.95 3.79 20.3 3.79m224.94-101.56-8.15 12.95q-1.45 2.33-3.05 3.27-1.6.95-4.08.95-2.62 0-5.6-1.46-2.98-1.45-6.91-3.27t-8.95-3.28q-5.02-1.45-11.86-1.45-10.62 0-16.66 4.51t-6.04 11.79q0 4.8 3.13 8.07t8.3 5.75q5.16 2.47 11.71 4.44 6.55 1.96 13.31 4.29 6.77 2.33 13.32 5.31 6.54 2.98 11.71 7.56 5.16 4.59 8.29 10.99t3.13 15.42q0 10.77-3.86 19.86-3.85 9.1-11.42 15.72-7.56 6.62-18.69 10.33-11.14 3.71-25.69 3.71-7.71 0-15.05-1.38-7.35-1.39-14.12-3.86-6.76-2.47-12.51-5.82t-10.11-7.27l8.29-13.68q1.6-2.48 3.78-3.78 2.19-1.31 5.53-1.31 3.35 0 6.33 1.89t6.91 4.07 9.24 4.08q5.31 1.89 13.46 1.89 6.4 0 10.99-1.53 4.58-1.53 7.56-4 2.98-2.48 4.37-5.75 1.38-3.27 1.38-6.77 0-5.23-3.13-8.58t-8.29-5.82q-5.17-2.47-11.79-4.44-6.62-1.96-13.53-4.29t-13.53-5.46q-6.62-3.12-11.79-7.93-5.16-4.8-8.29-11.78-3.13-6.99-3.13-16.88 0-9.17 3.64-17.46t10.69-14.48q7.06-6.18 17.61-9.89t24.37-3.71q15.42 0 28.08 5.09t21.1 13.39"/></svg>