<svg xmlns="http://www.w3.org/2000/svg" width="2400" height="900" viewBox="0 0 2400 900"><rect width="100%" height="100%" fill="#1f2937"/><path fill="#ffffff" d="M642.445 371.075h22.53v160.51h-26.3v-103.67q0-6.22.66-13.44l-48.5 91.14q-3.45 6.54-10.55 6.54h-4.22q-7.1 0-10.54-6.54l-49.06-91.47q.33 3.66.55 7.22.22 3.55.22 6.55v103.67h-26.3v-160.51h22.53q2 0 3.44.11 1.44.12 2.61.56 1.16.44 2.11 1.44.94 1 1.83 2.67l48.06 89.13q1.89 3.55 3.5 7.33 1.61 3.77 3.16 7.77 1.56-4.11 3.22-7.94 1.67-3.83 3.55-7.38l47.4-88.91q.89-1.67 1.89-2.67t2.16-1.44q1.17-.44 2.61-.56 1.44-.11 3.44-.11m104.34 44.85q12.65 0 23.03 4.1 10.38 4.11 17.76 11.66t11.38 18.43q4 10.87 4 24.31 0 13.54-4 24.42-4 10.87-11.38 18.53t-17.76 11.77-23.03 4.11q-12.76 0-23.2-4.11-10.43-4.11-17.81-11.77-7.39-7.66-11.44-18.53-4.05-10.88-4.05-24.42 0-13.44 4.05-24.31 4.05-10.88 11.44-18.43 7.38-7.55 17.81-11.66 10.44-4.1 23.2-4.1m0 96.23q14.21 0 21.04-9.54 6.82-9.55 6.82-27.97 0-18.43-6.82-28.09-6.83-9.65-21.04-9.65-14.43 0-21.37 9.71-6.93 9.71-6.93 28.03 0 18.31 6.93 27.91 6.94 9.6 21.37 9.6m104.56-61.16v51.06q4.66 5.66 10.16 8 5.49 2.33 11.6 2.33 6.33 0 11.38-2.28 5.05-2.27 8.6-7.1t5.44-12.32q1.88-7.5 1.88-17.93 0-18.76-6.21-27.14-6.22-8.38-17.87-8.38-7.88 0-13.77 3.61-5.88 3.6-11.21 10.15m0-84.36v65.05q6.88-7.21 15.27-11.49 8.38-4.27 19.14-4.27 9.88 0 17.82 3.88 7.93 3.89 13.54 11.16t8.6 17.59q3 10.33 3 23.2 0 13.88-3.44 25.2t-9.82 19.37q-6.39 8.05-15.38 12.49t-19.98 4.44q-5.33 0-9.66-1.06-4.32-1.05-7.99-2.94-3.66-1.89-6.71-4.61-3.06-2.72-5.83-6.05l-1.22 7.66q-.67 2.89-2.28 4.11t-4.38 1.22h-18.09v-164.95zm99.46 51.06h27.53v113.89h-27.53zm31.3-33.18q0 3.55-1.44 6.66-1.45 3.1-3.83 5.43-2.39 2.33-5.61 3.72t-6.88 1.39q-3.55 0-6.71-1.39-3.17-1.39-5.5-3.72t-3.72-5.43q-1.39-3.11-1.39-6.66 0-3.67 1.39-6.89t3.72-5.55 5.5-3.72q3.16-1.38 6.71-1.38 3.66 0 6.88 1.38 3.22 1.39 5.61 3.72 2.38 2.33 3.83 5.55 1.44 3.22 1.44 6.89m24.53-17.88h27.42v164.95h-27.42zm76.48 94.91h51.73q0-5.33-1.5-10.05-1.5-4.71-4.5-8.27-2.99-3.55-7.6-5.6-4.61-2.06-10.71-2.06-11.88 0-18.71 6.78-6.82 6.77-8.71 19.2m69.93 16.54h-70.48q.66 8.77 3.1 15.15 2.45 6.38 6.44 10.54 4 4.17 9.49 6.22 5.5 2.05 12.16 2.05t11.49-1.55q4.82-1.55 8.43-3.44t6.33-3.44q2.72-1.56 5.27-1.56 3.44 0 5.11 2.56l7.88 9.99q-4.55 5.33-10.21 8.93-5.67 3.61-11.83 5.77-6.16 2.17-12.54 3.06t-12.38.89q-11.87 0-22.08-3.95-10.22-3.94-17.76-11.65-7.55-7.71-11.88-19.09t-4.33-26.36q0-11.66 3.77-21.93 3.78-10.27 10.83-17.87 7.04-7.6 17.2-12.04t22.92-4.44q10.77 0 19.87 3.44t15.65 10.04q6.55 6.61 10.27 16.21t3.72 21.92q0 6.22-1.33 8.38-1.34 2.17-5.11 2.17m115.11-26.31h22.31q8.21 0 14.32-2.05 6.1-2.06 10.15-5.89 4.06-3.83 6.05-9.32 2-5.49 2-12.27 0-6.43-2-11.65-1.99-5.22-5.99-8.88t-10.1-5.61q-6.11-1.94-14.43-1.94h-22.31zm-29.86-80.7h52.17q16.09 0 27.86 3.78 11.77 3.77 19.42 10.54 7.66 6.77 11.38 16.21 3.72 9.43 3.72 20.64 0 11.66-3.88 21.37-3.89 9.72-11.66 16.71t-19.48 10.88q-11.71 3.88-27.36 3.88h-22.31v56.5h-29.86zm193.25 131.1v-19.21q-11.88.56-19.98 2.06-8.1 1.49-12.99 3.83-4.88 2.33-6.99 5.43-2.11 3.11-2.11 6.77 0 7.22 4.27 10.33 4.28 3.11 11.16 3.11 8.44 0 14.6-3.06 6.16-3.05 12.04-9.26m-57.94-59.83-4.89-8.77q19.65-17.99 47.29-17.99 9.99 0 17.87 3.28 7.88 3.27 13.32 9.1t8.27 13.93 2.83 17.76v71.93h-12.43q-3.89 0-6-1.17-2.1-1.16-3.33-4.71l-2.44-8.22q-4.33 3.89-8.43 6.83-4.11 2.94-8.55 4.94t-9.49 3.05q-5.05 1.06-11.16 1.06-7.21 0-13.32-1.95-6.1-1.94-10.54-5.82-4.44-3.89-6.88-9.66-2.45-5.77-2.45-13.43 0-4.33 1.45-8.6 1.44-4.28 4.72-8.16 3.27-3.89 8.49-7.33 5.21-3.44 12.82-5.99 7.6-2.56 17.7-4.17t23.09-1.94v-6.66q0-11.43-4.88-16.93-4.89-5.49-14.1-5.49-6.66 0-11.05 1.55-4.38 1.56-7.71 3.5t-6.05 3.5q-2.72 1.55-6.05 1.55-2.89 0-4.88-1.5-2-1.5-3.22-3.49m148.4 91.02q-14.87 0-22.81-8.38-7.93-8.38-7.93-23.15v-63.6h-11.66q-2.22 0-3.77-1.44-1.56-1.45-1.56-4.33v-10.88l18.32-3 5.77-31.08q.56-2.22 2.11-3.44t4-1.22h14.2v35.85h30.42v19.54h-30.42v61.71q0 5.33 2.61 8.33t7.16 3q2.56 0 4.28-.61t2.99-1.28q1.28-.67 2.28-1.28t2-.61q1.22 0 1.99.61.78.61 1.67 1.84l8.21 13.32q-5.99 4.99-13.76 7.54-7.77 2.56-16.1 2.56m68.82-108.78 1.67 12.87q5.33-10.21 12.65-16.04 7.33-5.83 17.32-5.83 7.88 0 12.65 3.45l-1.77 20.53q-.56 2-1.61 2.83-1.06.83-2.83.83-1.67 0-4.94-.55-3.28-.56-6.38-.56-4.56 0-8.11 1.34-3.55 1.33-6.38 3.83-2.83 2.49-4.99 6.05-2.17 3.55-4.06 8.1v70.15h-27.41v-113.89h16.09q4.22 0 5.88 1.5 1.67 1.5 2.22 5.39m109.01-8.66q12.65 0 23.03 4.1 10.38 4.11 17.76 11.66t11.38 18.43q3.99 10.87 3.99 24.31 0 13.54-3.99 24.42-4 10.87-11.38 18.53t-17.76 11.77-23.03 4.11q-12.77 0-23.2-4.11-10.44-4.11-17.82-11.77t-11.43-18.53q-4.05-10.88-4.05-24.42 0-13.44 4.05-24.31 4.05-10.88 11.43-18.43t17.82-11.66q10.43-4.1 23.2-4.1m0 96.23q14.2 0 21.03-9.54 6.83-9.55 6.83-27.97 0-18.43-6.83-28.09-6.83-9.65-21.03-9.65-14.43 0-21.37 9.71t-6.94 28.03q0 18.31 6.94 27.91t21.37 9.6m77.47-145.52h27.42v164.95h-27.42zm130.54 63.39-6.22 9.87q-1.11 1.78-2.33 2.5t-3.1.72q-2 0-4.28-1.11-2.27-1.11-5.27-2.49-3-1.39-6.83-2.5t-9.04-1.11q-8.11 0-12.71 3.44-4.61 3.44-4.61 8.99 0 3.66 2.39 6.16 2.38 2.5 6.32 4.39 3.94 1.88 8.94 3.38 4.99 1.5 10.16 3.27 5.16 1.78 10.15 4.06 5 2.27 8.94 5.77 3.94 3.49 6.33 8.38 2.38 4.88 2.38 11.76 0 8.22-2.94 15.16-2.94 6.93-8.71 11.98-5.78 5.05-14.27 7.89-8.49 2.83-19.59 2.83-5.88 0-11.49-1.06-5.6-1.05-10.76-2.94-5.17-1.89-9.55-4.44t-7.71-5.55l6.32-10.43q1.22-1.89 2.89-2.89 1.66-1 4.22-1 2.55 0 4.83 1.44 2.27 1.45 5.27 3.11 2.99 1.67 7.05 3.11 4.05 1.44 10.26 1.44 4.89 0 8.38-1.16 3.5-1.17 5.78-3.05 2.27-1.89 3.33-4.39 1.05-2.5 1.05-5.16 0-4-2.39-6.55-2.38-2.55-6.32-4.44t-8.99-3.39q-5.05-1.49-10.33-3.27-5.27-1.78-10.32-4.16-5.05-2.39-8.99-6.05-3.94-3.67-6.33-8.99-2.38-5.33-2.38-12.88 0-6.99 2.77-13.32 2.78-6.33 8.16-11.04 5.38-4.72 13.43-7.55t18.59-2.83q11.77 0 21.43 3.88 9.65 3.89 16.09 10.22"/></svg>