<svg xmlns="http://www.w3.org/2000/svg" width="2400" height="900" viewBox="0 0 2400 900"><rect width="100%" height="100%" fill="#1f2937"/><path fill="#ffffff" d="M571.51 468.055q1.8 0 3.18 1.38l8.64 9.38q-7.17 8.88-17.64 13.61-10.48 4.72-25.15 4.72-13.12 0-23.59-4.48t-17.89-12.47-11.37-19.07-3.95-24.2q0-13.29 4.23-24.33 4.24-11.05 11.94-19.03 7.71-7.99 18.38-12.43 10.68-4.44 23.64-4.44 12.87 0 22.86 4.23 9.98 4.24 16.99 11.09l-7.33 10.19q-.66.97-1.67 1.71-1.02.73-2.82.73-1.22 0-2.52-.69-1.31-.69-2.86-1.71-1.54-1.02-3.58-2.24-2.04-1.23-4.73-2.25-2.69-1.01-6.23-1.71-3.55-.69-8.19-.69-7.91 0-14.47 2.81t-11.29 8.15q-4.72 5.34-7.33 13.04t-2.61 17.57q0 9.94 2.81 17.68t7.62 13.04 11.33 8.11 14.02 2.81q4.48 0 8.11-.49 3.62-.49 6.68-1.55t5.79-2.73 5.42-4.11q.81-.73 1.71-1.18.89-.45 1.87-.45m60.72-57.13q9.29 0 16.91 3.01 7.62 3.02 13.04 8.56t8.35 13.53q2.94 7.99 2.94 17.85 0 9.94-2.94 17.93-2.93 7.98-8.35 13.61-5.42 5.62-13.04 8.64-7.62 3.01-16.91 3.01-9.37 0-17.03-3.01-7.66-3.02-13.08-8.64-5.42-5.63-8.4-13.61-2.97-7.99-2.97-17.93 0-9.86 2.97-17.85 2.98-7.99 8.4-13.53t13.08-8.56q7.66-3.01 17.03-3.01m0 70.66q10.43 0 15.44-7.01 5.02-7.01 5.02-20.54t-5.02-20.62q-5.01-7.09-15.44-7.09-10.6 0-15.69 7.13t-5.09 20.58 5.09 20.5 15.69 7.05m74.41-64.31 1.22 9.46q3.91-7.5 9.29-11.78t12.72-4.28q5.78 0 9.29 2.53l-1.31 15.08q-.4 1.46-1.18 2.07-.77.62-2.08.62-1.22 0-3.62-.41-2.41-.41-4.69-.41-3.34 0-5.95.98t-4.68 2.81q-2.08 1.83-3.67 4.44t-2.98 5.95v51.51h-20.13v-83.62h11.82q3.1 0 4.32 1.1t1.63 3.95m63.16 19.4v37.49q3.42 4.16 7.46 5.87 4.03 1.71 8.76 1.71 4.56 0 8.23-1.71t6.24-5.22q2.56-3.5 3.95-8.84 1.38-5.34 1.38-12.59 0-7.34-1.18-12.43t-3.38-8.27-5.34-4.65-7.13-1.47q-6.27 0-10.68 2.65-4.4 2.65-8.31 7.46m-2.69-20.78 1.63 7.74q5.14-5.79 11.66-9.37 6.52-3.59 15.32-3.59 6.84 0 12.51 2.86 5.66 2.85 9.78 8.27 4.11 5.42 6.36 13.36 2.24 7.95 2.24 18.22 0 9.37-2.53 17.36-2.53 7.98-7.21 13.85-4.69 5.87-11.33 9.17t-14.87 3.3q-7.01 0-11.98-2.16-4.98-2.16-8.89-5.99v34.23h-20.13v-110.92h12.31q3.91 0 5.13 3.67m112.15-4.97q9.29 0 16.91 3.01 7.62 3.02 13.04 8.56t8.35 13.53q2.94 7.99 2.94 17.85 0 9.94-2.94 17.93-2.93 7.98-8.35 13.61-5.42 5.62-13.04 8.64-7.62 3.01-16.91 3.01-9.38 0-17.04-3.01-7.66-3.02-13.08-8.64-5.42-5.63-8.39-13.61-2.98-7.99-2.98-17.93 0-9.86 2.98-17.85 2.97-7.99 8.39-13.53t13.08-8.56q7.66-3.01 17.04-3.01m0 70.66q10.43 0 15.44-7.01t5.01-20.54-5.01-20.62-15.44-7.09q-10.6 0-15.69 7.13-5.1 7.13-5.1 20.58t5.1 20.5q5.09 7.05 15.69 7.05m74.41-64.31 1.22 9.46q3.91-7.5 9.29-11.78t12.71-4.28q5.79 0 9.29 2.53l-1.3 15.08q-.41 1.46-1.18 2.07-.78.62-2.08.62-1.22 0-3.63-.41-2.4-.41-4.68-.41-3.34 0-5.95.98t-4.69 2.81-3.67 4.44-2.97 5.95v51.51H935.9v-83.62h11.82q3.09 0 4.32 1.1 1.22 1.1 1.63 3.95m87.2 56.97v-14.1q-8.72.41-14.67 1.51t-9.53 2.81q-3.59 1.71-5.14 4-1.55 2.28-1.55 4.97 0 5.29 3.14 7.58 3.14 2.28 8.19 2.28 6.19 0 10.72-2.24 4.52-2.24 8.84-6.81m-42.54-43.93-3.59-6.43q14.43-13.21 34.72-13.21 7.34 0 13.12 2.41 5.79 2.4 9.78 6.68 4 4.28 6.07 10.23 2.08 5.95 2.08 13.04v52.81h-9.13q-2.85 0-4.4-.86-1.55-.85-2.44-3.46l-1.79-6.03q-3.18 2.85-6.2 5.01-3.01 2.16-6.27 3.63t-6.97 2.24-8.19.77q-5.3 0-9.78-1.42-4.49-1.43-7.75-4.28t-5.05-7.09-1.79-9.86q0-3.18 1.06-6.32t3.46-5.99q2.41-2.85 6.24-5.38t9.41-4.4 13-3.06q7.42-1.18 16.95-1.42v-4.89q0-8.4-3.59-12.43-3.58-4.04-10.35-4.04-4.89 0-8.1 1.15-3.22 1.14-5.67 2.56-2.44 1.43-4.44 2.57t-4.44 1.14q-2.12 0-3.59-1.1t-2.36-2.57m108.96 66.83q-10.92 0-16.74-6.15-5.83-6.15-5.83-16.99v-46.7h-8.56q-1.63 0-2.77-1.06t-1.14-3.18v-7.99l13.45-2.2 4.23-22.82q.41-1.63 1.55-2.52 1.14-.9 2.94-.9h10.43v26.32h22.33v14.35h-22.33v45.31q0 3.91 1.91 6.11 1.92 2.21 5.26 2.21 1.87 0 3.14-.45 1.26-.45 2.2-.94t1.67-.94 1.47-.45q.89 0 1.46.45t1.23 1.35l6.03 9.78q-4.4 3.66-10.11 5.54-5.7 1.87-11.82 1.87m48.66-52.73h37.98q0-3.91-1.1-7.37-1.1-3.47-3.3-6.07-2.2-2.61-5.59-4.12-3.38-1.51-7.86-1.51-8.72 0-13.73 4.97-5.02 4.98-6.4 14.1m51.34 12.15h-51.75q.49 6.44 2.28 11.12 1.8 4.69 4.73 7.74 2.93 3.06 6.97 4.57 4.03 1.51 8.92 1.51t8.44-1.15q3.54-1.14 6.19-2.52 2.65-1.39 4.65-2.53 1.99-1.14 3.87-1.14 2.53 0 3.75 1.88l5.78 7.33q-3.34 3.91-7.49 6.56-4.16 2.65-8.68 4.24-4.53 1.59-9.21 2.24-4.69.65-9.09.65-8.72 0-16.22-2.89t-13.04-8.56q-5.54-5.66-8.72-14.02-3.18-8.35-3.18-19.35 0-8.56 2.77-16.1t7.95-13.12q5.17-5.58 12.63-8.84t16.83-3.26q7.91 0 14.59 2.52 6.68 2.53 11.49 7.38t7.54 11.9 2.73 16.09q0 4.57-.98 6.16t-3.75 1.59m84.52 22.16h22.17q6.11 0 10.27-1.46 4.15-1.47 6.64-3.91 2.48-2.45 3.58-5.71t1.1-6.93q0-3.83-1.22-6.88-1.22-3.06-3.83-5.22t-6.72-3.3q-4.12-1.14-9.9-1.14h-22.09zm18.66-83.78h-18.66v34.07h17.44q11.25 0 16.99-4.08 5.75-4.07 5.75-12.95 0-9.21-5.22-13.12-5.21-3.92-16.3-3.92m-40.58-16.95h40.58q11.58 0 19.81 2.2t13.49 6.28q5.25 4.07 7.7 9.86 2.44 5.78 2.44 13.04 0 4.16-1.22 7.94-1.22 3.79-3.79 7.1-2.57 3.3-6.52 5.99-3.95 2.68-9.41 4.56 24.28 5.46 24.28 26.24 0 7.5-2.85 13.86-2.85 6.35-8.31 10.96-5.46 4.6-13.45 7.21t-18.26 2.61h-44.49zm156.07 34.23h20.13v83.62h-12.31q-3.99 0-5.05-3.67l-1.39-6.68q-5.13 5.22-11.32 8.43-6.2 3.22-14.59 3.22-6.85 0-12.11-2.32-5.25-2.32-8.84-6.56-3.58-4.24-5.42-10.06-1.83-5.83-1.83-12.84v-53.14h20.13v53.14q0 7.66 3.54 11.86 3.55 4.19 10.64 4.19 5.22 0 9.78-2.32t8.64-6.4zm40.67 0h20.21v83.62h-20.21zm22.98-24.37q0 2.61-1.06 4.89t-2.81 4q-1.75 1.71-4.12 2.73-2.36 1.01-5.05 1.01-2.61 0-4.93-1.01-2.32-1.02-4.04-2.73-1.71-1.72-2.73-4-1.01-2.28-1.01-4.89 0-2.69 1.01-5.05 1.02-2.36 2.73-4.08 1.72-1.71 4.04-2.73 2.32-1.01 4.93-1.01 2.69 0 5.05 1.01 2.37 1.02 4.12 2.73 1.75 1.72 2.81 4.08t1.06 5.05m18.01-13.12h20.13v121.11h-20.13zm92.75 96.33v-37.49q-3.42-4.15-7.46-5.86-4.03-1.72-8.68-1.72-4.56 0-8.23 1.72-3.67 1.71-6.28 5.17-2.6 3.46-3.99 8.8-1.38 5.34-1.38 12.59 0 7.34 1.18 12.43 1.18 5.1 3.38 8.32t5.38 4.64q3.18 1.43 7.09 1.43 6.27 0 10.68-2.61 4.4-2.61 8.31-7.42m0-96.33h20.13v121.11h-12.31q-3.99 0-5.05-3.67l-1.71-8.07q-5.06 5.79-11.62 9.38-6.56 3.58-15.28 3.58-6.84 0-12.55-2.85-5.7-2.85-9.82-8.27-4.11-5.42-6.36-13.41-2.24-7.99-2.24-18.26 0-9.29 2.53-17.27 2.53-7.99 7.25-13.86 4.73-5.87 11.33-9.17t14.83-3.3q7.01 0 11.98 2.2 4.98 2.2 8.89 5.95zm40.67 37.49h20.21v83.62h-20.21zm22.98-24.37q0 2.61-1.06 4.89t-2.81 4q-1.75 1.71-4.12 2.73-2.36 1.01-5.05 1.01-2.61 0-4.93-1.01-2.32-1.02-4.04-2.73-1.71-1.72-2.73-4-1.01-2.28-1.01-4.89 0-2.69 1.01-5.05 1.02-2.36 2.73-4.08 1.72-1.71 4.04-2.73 2.32-1.01 4.93-1.01 2.69 0 5.05 1.01 2.37 1.02 4.12 2.73 1.75 1.72 2.81 4.08t1.06 5.05m35.21 28.04 1.38 6.6q2.53-2.53 5.34-4.69t5.95-3.66q3.14-1.51 6.72-2.37 3.59-.85 7.83-.85 6.84 0 12.14 2.32t8.85 6.52q3.54 4.2 5.37 10.02 1.84 5.83 1.84 12.84v53.22h-20.13v-53.22q0-7.66-3.51-11.86-3.5-4.2-10.67-4.2-5.22 0-9.78 2.37-4.57 2.36-8.64 6.44v60.47h-20.13v-83.62h12.3q3.92 0 5.14 3.67m105.05 36.1q3.75 0 6.52-1.02 2.77-1.01 4.61-2.81 1.83-1.79 2.77-4.32.93-2.52.93-5.54 0-6.19-3.7-9.82-3.71-3.63-11.13-3.63t-11.12 3.63q-3.71 3.63-3.71 9.82 0 2.93.94 5.46.93 2.53 2.77 4.36 1.83 1.84 4.64 2.85 2.81 1.02 6.48 1.02m22.74 47.6q0-2.45-1.47-3.99-1.46-1.55-3.99-2.41-2.53-.85-5.91-1.26t-7.17-.61q-3.79-.21-7.83-.37-4.03-.16-7.86-.65-3.34 1.87-5.42 4.4t-2.08 5.87q0 2.2 1.1 4.11 1.1 1.92 3.51 3.3 2.4 1.39 6.23 2.16 3.83.78 9.37.78 5.63 0 9.7-.86 4.08-.85 6.73-2.36 2.64-1.51 3.87-3.59 1.22-2.08 1.22-4.52m-3.99-84.52h24.04v7.5q0 3.59-4.32 4.4l-7.5 1.39q1.71 4.32 1.71 9.45 0 6.2-2.48 11.21-2.49 5.01-6.89 8.52-4.4 3.5-10.39 5.41-5.99 1.92-12.92 1.92-2.44 0-4.73-.24-2.28-.25-4.48-.66-3.91 2.37-3.91 5.3 0 2.53 2.32 3.71 2.33 1.18 6.16 1.67t8.72.61 10.02.53q5.14.41 10.03 1.43t8.72 3.22 6.15 5.99 2.32 9.74q0 5.54-2.73 10.75-2.73 5.22-7.9 9.3-5.18 4.07-12.72 6.56-7.54 2.48-17.15 2.48-9.46 0-16.47-1.83-7.01-1.84-11.65-4.89-4.65-3.06-6.93-7.05-2.28-4-2.28-8.32 0-5.86 3.54-9.82 3.55-3.95 9.74-6.31-3.34-1.71-5.29-4.57-1.96-2.85-1.96-7.49 0-1.88.69-3.88.7-1.99 2.04-3.95 1.35-1.95 3.38-3.71 2.04-1.75 4.81-3.13-6.36-3.43-9.98-9.13-3.63-5.71-3.63-13.37 0-6.19 2.49-11.2 2.48-5.02 6.92-8.56 4.45-3.55 10.52-5.42 6.07-1.88 13.24-1.88 5.38 0 10.11 1.1 4.72 1.1 8.64 3.22m92.34 6.2-4.57 7.25q-.81 1.3-1.71 1.83t-2.28.53q-1.47 0-3.14-.81-1.67-.82-3.87-1.83-2.2-1.02-5.01-1.84-2.81-.81-6.65-.81-5.94 0-9.33 2.52-3.38 2.53-3.38 6.6 0 2.69 1.75 4.53 1.76 1.83 4.65 3.22 2.89 1.38 6.56 2.48t7.46 2.41q3.79 1.3 7.45 2.97 3.67 1.67 6.56 4.24 2.9 2.57 4.65 6.15 1.75 3.59 1.75 8.64 0 6.03-2.16 11.13-2.16 5.09-6.4 8.8-4.23 3.71-10.47 5.79-6.23 2.07-14.38 2.07-4.32 0-8.44-.77-4.11-.77-7.9-2.16t-7.01-3.26-5.67-4.07l4.65-7.67q.9-1.38 2.12-2.12 1.22-.73 3.09-.73 1.88 0 3.55 1.06t3.87 2.28q2.2 1.23 5.18 2.28 2.97 1.06 7.54 1.06 3.58 0 6.15-.85 2.57-.86 4.24-2.24 1.67-1.39 2.44-3.22.78-1.84.78-3.79 0-2.94-1.76-4.81-1.75-1.87-4.64-3.26-2.9-1.39-6.6-2.49-3.71-1.1-7.58-2.4t-7.58-3.06q-3.71-1.75-6.6-4.44-2.9-2.69-4.65-6.6t-1.75-9.45q0-5.14 2.04-9.78 2.03-4.65 5.99-8.11 3.95-3.47 9.86-5.54 5.91-2.08 13.65-2.08 8.64 0 15.73 2.85t11.82 7.5"/></svg>