<svg xmlns="http://www.w3.org/2000/svg" width="2400" height="900" viewBox="0 0 2400 900"><rect width="100%" height="100%" fill="#1f2937"/><path fill="#ffffff" d="M526.17 468.12q1.01 0 1.79.79l4.88 5.29q-4.05 5.01-9.96 7.68t-14.19 2.67q-7.41 0-13.32-2.53t-10.09-7.04q-4.19-4.51-6.42-10.77-2.23-6.25-2.23-13.66 0-7.5 2.39-13.73t6.74-10.74 10.37-7.02q6.03-2.5 13.34-2.5 7.27 0 12.91 2.39 5.63 2.39 9.59 6.26l-4.14 5.75q-.37.55-.95.96-.57.42-1.58.42-.69 0-1.43-.4-.74-.39-1.61-.96-.87-.58-2.02-1.27t-2.67-1.26q-1.52-.58-3.52-.97t-4.62-.39q-4.47 0-8.17 1.59t-6.37 4.6-4.14 7.36-1.47 9.91q0 5.61 1.59 9.98 1.58 4.37 4.3 7.36 2.71 2.99 6.39 4.58t7.91 1.59q2.53 0 4.58-.28 2.05-.27 3.77-.87 1.73-.6 3.27-1.54 1.54-.95 3.06-2.33.46-.41.96-.66.51-.26 1.06-.26m60.86 0q1.01 0 1.79.79l4.88 5.29q-4.05 5.01-9.96 7.68t-14.19 2.67q-7.41 0-13.32-2.53t-10.1-7.04q-4.18-4.51-6.41-10.77-2.23-6.25-2.23-13.66 0-7.5 2.39-13.73t6.74-10.74q4.34-4.51 10.37-7.02 6.03-2.5 13.34-2.5 7.27 0 12.9 2.39 5.64 2.39 9.59 6.26l-4.14 5.75q-.36.55-.94.96-.57.42-1.59.42-.69 0-1.42-.4-.74-.39-1.61-.96-.88-.58-2.03-1.27t-2.66-1.26q-1.52-.58-3.52-.97t-4.63-.39q-4.46 0-8.16 1.59t-6.37 4.6-4.14 7.36-1.47 9.91q0 5.61 1.58 9.98 1.59 4.37 4.3 7.36 2.72 2.99 6.4 4.58t7.91 1.59q2.53 0 4.58-.28 2.04-.27 3.77-.87 1.72-.6 3.27-1.54 1.54-.95 3.05-2.33.46-.41.97-.66.51-.26 1.06-.26m61.64-50.83v10.17h-20.06v56.35h-12.37v-56.35h-20.06v-10.17zm55.75 0h9.98l-26.86 66.52h-11.18l-26.86-66.52h9.93q1.61 0 2.62.79 1.02.78 1.52 2.02l15.69 40.57q.78 1.98 1.49 4.35.72 2.37 1.36 4.94.55-2.57 1.2-4.94.64-2.37 1.42-4.35l15.6-40.57q.36-1.06 1.45-1.93 1.08-.88 2.64-.88m85.7 0v10.17h-20.06v56.35h-12.37v-56.35h-20.06v-10.17zm27.83 18.59q5.24 0 9.54 1.7t7.36 4.83 4.72 7.64q1.65 4.5 1.65 10.07 0 5.61-1.65 10.12-1.66 4.51-4.72 7.68-3.06 3.18-7.36 4.88t-9.54 1.7q-5.29 0-9.62-1.7-4.32-1.7-7.38-4.88-3.06-3.17-4.74-7.68t-1.68-10.12q0-5.57 1.68-10.07 1.68-4.51 4.74-7.64t7.38-4.83q4.33-1.7 9.62-1.7m0 39.88q5.89 0 8.72-3.96 2.82-3.95 2.82-11.59 0-7.63-2.82-11.64-2.83-4-8.72-4-5.98 0-8.86 4.03-2.87 4.02-2.87 11.61t2.87 11.57q2.88 3.98 8.86 3.98m90.71-39.15h8.65l-15 47.2h-9.11q-1.56 0-2.16-2.02l-8.46-27.28q-.42-1.38-.76-2.74-.35-1.36-.58-2.74-.27 1.38-.62 2.79-.34 1.4-.76 2.78l-8.6 27.19q-.55 2.02-2.44 2.02h-8.74l-14.95-47.2h9.07q1.24 0 2.11.6.88.6 1.15 1.52l6.76 25.21q.51 2.07.9 4.05.39 1.97.67 3.95.5-1.98 1.08-3.95.57-1.98 1.22-4.05l7.82-25.3q.27-.92 1.08-1.52.8-.6 1.95-.6h5.02q1.19 0 2.05.6.85.6 1.12 1.52l7.59 25.3q.6 2.07 1.13 4.07t1.03 3.98q.6-3.91 1.71-8.05l6.94-25.21q.32-.92 1.15-1.52t1.98-.6m24.06 18.17h21.43q0-2.2-.62-4.16-.62-1.95-1.86-3.43-1.24-1.47-3.15-2.32t-4.44-.85q-4.92 0-7.75 2.81-2.83 2.8-3.61 7.95m28.98 6.86h-29.21q.27 3.63 1.29 6.28 1.01 2.64 2.66 4.37 1.66 1.72 3.94 2.57 2.27.85 5.03.85t4.77-.64q2-.64 3.49-1.43 1.5-.78 2.62-1.42 1.13-.65 2.19-.65 1.42 0 2.11 1.06l3.27 4.14q-1.89 2.21-4.23 3.71-2.35 1.49-4.9 2.39-2.55.89-5.2 1.26-2.64.37-5.13.37-4.92 0-9.15-1.63-4.23-1.64-7.36-4.83-3.13-3.2-4.92-7.92-1.8-4.71-1.8-10.92 0-4.83 1.57-9.09 1.56-4.25 4.48-7.4t7.13-4.99 9.5-1.84q4.46 0 8.23 1.42 3.78 1.43 6.49 4.17 2.71 2.73 4.26 6.71 1.54 3.98 1.54 9.09 0 2.57-.56 3.47-.55.9-2.11.9m21.2-22.17.69 5.33q2.21-4.23 5.25-6.65 3.03-2.41 7.17-2.41 3.27 0 5.25 1.43l-.74 8.51q-.23.82-.66 1.17-.44.34-1.18.34-.69 0-2.04-.23-1.36-.23-2.65-.23-1.89 0-3.36.56-1.47.55-2.64 1.58-1.18 1.04-2.07 2.51-.9 1.47-1.68 3.36v29.07h-11.36v-47.2h6.67q1.74 0 2.43.63.69.62.92 2.23m55.66 2.25-2.57 4.09q-.46.74-.97 1.04-.5.3-1.29.3-.82 0-1.77-.46-.94-.46-2.18-1.04-1.24-.57-2.83-1.03t-3.75-.46q-3.36 0-5.27 1.42-1.91 1.43-1.91 3.73 0 1.52.99 2.55.99 1.04 2.63 1.82 1.63.78 3.7 1.4t4.21 1.36 4.21 1.68 3.7 2.39 2.62 3.47q.99 2.03.99 4.88 0 3.4-1.22 6.28-1.22 2.87-3.61 4.97-2.39 2.09-5.91 3.26-3.52 1.18-8.12 1.18-2.44 0-4.76-.44t-4.46-1.22-3.96-1.84-3.2-2.3l2.63-4.32q.5-.79 1.19-1.2t1.75-.41 2 .59q.94.6 2.19 1.29 1.24.69 2.92 1.29t4.25.6q2.03 0 3.48-.49 1.44-.48 2.39-1.26.94-.78 1.38-1.82.43-1.03.43-2.14 0-1.65-.98-2.71-.99-1.06-2.63-1.84-1.63-.78-3.72-1.4-2.1-.62-4.28-1.36-2.19-.74-4.28-1.72-2.09-.99-3.72-2.51-1.64-1.52-2.63-3.73t-.99-5.33q0-2.9 1.15-5.52 1.15-2.63 3.39-4.58 2.23-1.96 5.56-3.13 3.34-1.17 7.71-1.17 4.87 0 8.87 1.61 4.01 1.61 6.67 4.23m31.05 19.04v-9.47h23.83v9.47zm121.63-43.47h9.34v66.52h-10.91v-42.96q0-2.58.28-5.57l-20.1 37.77q-1.43 2.71-4.37 2.71h-1.75q-2.94 0-4.37-2.71l-20.33-37.91q.14 1.52.23 2.99t.09 2.72v42.96h-10.9v-66.52h9.34q.82 0 1.42.05t1.08.23q.49.18.88.6.39.41.76 1.1l19.91 36.94q.79 1.47 1.45 3.04.67 1.56 1.31 3.22.65-1.71 1.34-3.29.69-1.59 1.47-3.06l19.64-36.85q.37-.69.78-1.1.42-.42.9-.6t1.08-.23 1.43-.05m43.24 18.59q5.24 0 9.54 1.7t7.36 4.83 4.72 7.64q1.65 4.5 1.65 10.07 0 5.61-1.65 10.12-1.66 4.51-4.72 7.68-3.06 3.18-7.36 4.88t-9.54 1.7q-5.29 0-9.62-1.7-4.32-1.7-7.38-4.88-3.06-3.17-4.74-7.68t-1.68-10.12q0-5.57 1.68-10.07 1.68-4.51 4.74-7.64t7.38-4.83q4.33-1.7 9.62-1.7m0 39.88q5.89 0 8.72-3.96 2.82-3.95 2.82-11.59 0-7.63-2.82-11.64-2.83-4-8.72-4-5.98 0-8.86 4.03-2.87 4.02-2.87 11.61t2.87 11.57q2.88 3.98 8.86 3.98m43.33-25.35v21.16q1.93 2.35 4.21 3.32 2.28.96 4.81.96 2.62 0 4.71-.94t3.57-2.95q1.47-2 2.25-5.1.78-3.11.78-7.43 0-7.77-2.57-11.25-2.58-3.47-7.41-3.47-3.27 0-5.7 1.5-2.44 1.49-4.65 4.2m0-34.96v26.96q2.85-2.99 6.33-4.76 3.47-1.77 7.93-1.77 4.09 0 7.38 1.61t5.62 4.62q2.32 3.01 3.56 7.29t1.24 9.62q0 5.75-1.42 10.44-1.43 4.69-4.07 8.02-2.65 3.34-6.38 5.18-3.72 1.84-8.28 1.84-2.2 0-4-.44-1.79-.43-3.31-1.22-1.52-.78-2.78-1.91-1.27-1.12-2.42-2.5l-.5 3.17q-.28 1.2-.95 1.7-.66.51-1.81.51h-7.5v-68.36zm41.22 21.16h11.4v47.2h-11.4zm12.97-13.75q0 1.47-.6 2.76t-1.59 2.25q-.99.97-2.32 1.55-1.33.57-2.85.57-1.47 0-2.78-.57-1.32-.58-2.28-1.55-.97-.96-1.54-2.25-.58-1.29-.58-2.76 0-1.52.58-2.85.57-1.34 1.54-2.3.96-.97 2.28-1.54 1.31-.58 2.78-.58 1.52 0 2.85.58 1.33.57 2.32 1.54.99.96 1.59 2.3.6 1.33.6 2.85m10.16-7.41h11.37v68.36h-11.37zm31.7 39.33h21.43q0-2.2-.62-4.16-.62-1.95-1.86-3.43-1.24-1.47-3.15-2.32t-4.44-.85q-4.92 0-7.75 2.81-2.83 2.8-3.61 7.95m28.98 6.86h-29.21q.27 3.63 1.29 6.28 1.01 2.64 2.66 4.37 1.66 1.72 3.94 2.57 2.27.85 5.03.85t4.77-.64q2-.64 3.49-1.43 1.5-.78 2.62-1.42 1.13-.65 2.19-.65 1.42 0 2.11 1.06l3.27 4.14q-1.89 2.21-4.23 3.71-2.35 1.49-4.9 2.39-2.55.89-5.2 1.26-2.64.37-5.13.37-4.92 0-9.15-1.63-4.23-1.64-7.36-4.83-3.13-3.2-4.92-7.92-1.8-4.71-1.8-10.92 0-4.83 1.57-9.09 1.56-4.25 4.48-7.4t7.13-4.99 9.5-1.84q4.46 0 8.23 1.42 3.78 1.43 6.49 4.17 2.71 2.73 4.26 6.71 1.54 3.98 1.54 9.09 0 2.57-.56 3.47-.55.9-2.11.9m73.83-38.09-3.08 5.84q-.56.97-1.18 1.4-.62.44-1.54.44-.96 0-2.09-.71t-2.69-1.59q-1.57-.87-3.66-1.58-2.09-.72-4.94-.72-2.58 0-4.51.62t-3.24 1.73q-1.32 1.1-1.96 2.64t-.64 3.38q0 2.35 1.31 3.91 1.31 1.57 3.47 2.67 2.16 1.11 4.92 1.98t5.66 1.86 5.66 2.3 4.92 3.32q2.16 2 3.47 4.89 1.31 2.9 1.31 7.04 0 4.51-1.54 8.44-1.54 3.94-4.5 6.86-2.97 2.92-7.25 4.6t-9.8 1.68q-3.17 0-6.25-.63-3.09-.62-5.91-1.77-2.83-1.15-5.32-2.76-2.48-1.61-4.41-3.58l3.63-5.94q.46-.64 1.2-1.08.73-.44 1.56-.44 1.15 0 2.48.95 1.34.94 3.18 2.09t4.3 2.09q2.46.95 5.91.95 5.29 0 8.19-2.51t2.9-7.2q0-2.62-1.31-4.28-1.32-1.65-3.48-2.78t-4.92-1.91-5.61-1.7-5.61-2.21-4.93-3.36q-2.16-2.07-3.47-5.17-1.31-3.11-1.31-7.66 0-3.64 1.45-7.09t4.21-6.11q2.76-2.67 6.81-4.28 4.04-1.61 9.29-1.61 5.89 0 10.85 1.84 4.97 1.84 8.47 5.15m39.47 13.06h11.36v47.2h-6.95q-2.25 0-2.85-2.07l-.78-3.77q-2.9 2.94-6.4 4.76-3.49 1.82-8.23 1.82-3.86 0-6.83-1.31-2.97-1.32-4.99-3.71-2.03-2.39-3.06-5.68-1.04-3.29-1.04-7.24v-30h11.37v30q0 4.32 2 6.69t6 2.37q2.94 0 5.52-1.31t4.88-3.61zm32.61 2.86.69 5.33q2.21-4.23 5.24-6.65 3.04-2.41 7.18-2.41 3.27 0 5.24 1.43l-.73 8.51q-.23.82-.67 1.17-.44.34-1.17.34-.69 0-2.05-.23t-2.64-.23q-1.89 0-3.36.56-1.47.55-2.65 1.58-1.17 1.04-2.07 2.51-.89 1.47-1.68 3.36v29.07h-11.36v-47.2h6.67q1.75 0 2.44.63.69.62.92 2.23m57.87-2.86h8.97l-18.72 47.2h-10.31l-18.72-47.2h9.38q1.29 0 2.14.6t1.13 1.52l9.11 25.21q.73 2.21 1.29 4.32.55 2.12.96 4.23.46-2.11 1.01-4.23.56-2.11 1.34-4.32l9.29-25.21q.32-.92 1.15-1.52t1.98-.6m23.96 18.17h21.44q0-2.2-.62-4.16-.62-1.95-1.86-3.43-1.25-1.47-3.15-2.32-1.91-.85-4.44-.85-4.93 0-7.75 2.81-2.83 2.8-3.62 7.95m28.98 6.86h-29.21q.28 3.63 1.29 6.28 1.01 2.64 2.67 4.37 1.66 1.72 3.93 2.57 2.28.85 5.04.85t4.76-.64 3.5-1.43q1.49-.78 2.62-1.42 1.13-.65 2.18-.65 1.43 0 2.12 1.06l3.27 4.14q-1.89 2.21-4.24 3.71-2.34 1.49-4.89 2.39-2.56.89-5.2 1.26-2.65.37-5.13.37-4.92 0-9.16-1.63-4.23-1.64-7.36-4.83-3.12-3.2-4.92-7.92-1.79-4.71-1.79-10.92 0-4.83 1.56-9.09 1.57-4.25 4.49-7.4t7.13-4.99 9.5-1.84q4.46 0 8.23 1.42 3.77 1.43 6.49 4.17 2.71 2.73 4.25 6.71t1.54 9.09q0 2.57-.55 3.47t-2.12.9m11.55-25.03h11.41v47.2h-11.41zm12.97-13.75q0 1.47-.6 2.76-.59 1.29-1.58 2.25-.99.97-2.33 1.55-1.33.57-2.85.57-1.47 0-2.78-.57-1.31-.58-2.28-1.55-.96-.96-1.54-2.25-.57-1.29-.57-2.76 0-1.52.57-2.85.58-1.34 1.54-2.3.97-.97 2.28-1.54 1.31-.58 2.78-.58 1.52 0 2.85.58 1.34.57 2.33 1.54.99.96 1.58 2.3.6 1.33.6 2.85m10.17-7.41h11.36v68.36h-11.36zm22.86 0h11.36v68.36h-11.36zm47.66 56.17v-7.96q-4.93.23-8.28.85-3.36.62-5.39 1.59-2.02.97-2.89 2.25-.88 1.29-.88 2.81 0 2.99 1.77 4.28t4.63 1.29q3.49 0 6.05-1.27 2.55-1.26 4.99-3.84m-24.02-24.79-2.02-3.64q8.14-7.45 19.6-7.45 4.14 0 7.4 1.36 3.27 1.35 5.52 3.77 2.26 2.41 3.43 5.77t1.17 7.36v29.81h-5.15q-1.61 0-2.48-.48-.88-.49-1.38-1.96l-1.02-3.4q-1.79 1.61-3.49 2.83t-3.54 2.04q-1.84.83-3.94 1.27-2.09.44-4.62.44-2.99 0-5.52-.81-2.53-.8-4.37-2.41t-2.85-4.01q-1.01-2.39-1.01-5.56 0-1.8.59-3.57.6-1.77 1.96-3.38t3.52-3.03q2.16-1.43 5.31-2.49t7.34-1.72q4.18-.67 9.57-.81V454q0-4.74-2.03-7.01-2.02-2.28-5.84-2.28-2.76 0-4.58.64-1.81.65-3.19 1.45-1.38.81-2.51 1.45-1.13.65-2.51.65-1.19 0-2.02-.62-.83-.63-1.34-1.45m55.62-8.15.78 3.73q1.43-1.43 3.01-2.65 1.59-1.21 3.36-2.07 1.77-.85 3.8-1.33 2.02-.48 4.41-.48 3.87 0 6.86 1.31t4.99 3.68 3.03 5.66q1.04 3.29 1.04 7.24v30.04h-11.36v-30.04q0-4.32-1.98-6.69t-6.03-2.37q-2.94 0-5.52 1.33-2.57 1.34-4.87 3.64v34.13h-11.37v-47.2h6.95q2.21 0 2.9 2.07m78.84 3.78-2.99 4.14q-.5.64-.99 1.01-.48.37-1.4.37-.87 0-1.7-.53t-1.98-1.2-2.74-1.2q-1.58-.52-3.93-.52-2.99 0-5.24 1.08-2.26 1.08-3.75 3.1-1.5 2.03-2.23 4.9-.74 2.88-.74 6.51 0 3.77.81 6.72.8 2.94 2.32 4.94t3.68 3.04q2.16 1.03 4.87 1.03 2.72 0 4.4-.67 1.68-.66 2.83-1.47 1.15-.8 2-1.47t1.91-.67q1.38 0 2.07 1.06l3.26 4.14q-1.88 2.21-4.09 3.71-2.21 1.49-4.58 2.39-2.37.89-4.87 1.26-2.51.37-5 .37-4.37 0-8.23-1.63-3.86-1.64-6.76-4.76-2.9-3.13-4.58-7.66t-1.68-10.33q0-5.2 1.5-9.64 1.49-4.44 4.39-7.68t7.18-5.08q4.27-1.84 9.84-1.84 5.29 0 9.27 1.7t7.15 4.88m16.52 12.32h21.43q0-2.2-.62-4.16-.62-1.95-1.86-3.43-1.24-1.47-3.15-2.32t-4.44-.85q-4.92 0-7.75 2.81-2.83 2.8-3.61 7.95m28.98 6.86h-29.21q.27 3.63 1.28 6.28 1.02 2.64 2.67 4.37 1.66 1.72 3.94 2.57 2.27.85 5.03.85t4.76-.64 3.5-1.43q1.49-.78 2.62-1.42 1.13-.65 2.19-.65 1.42 0 2.11 1.06l3.27 4.14q-1.89 2.21-4.23 3.71-2.35 1.49-4.9 2.39-2.56.89-5.2 1.26-2.65.37-5.13.37-4.92 0-9.15-1.63-4.24-1.64-7.36-4.83-3.13-3.2-4.93-7.92-1.79-4.71-1.79-10.92 0-4.83 1.56-9.09 1.57-4.25 4.49-7.4t7.13-4.99 9.5-1.84q4.46 0 8.23 1.42 3.77 1.43 6.49 4.17 2.71 2.73 4.25 6.71t1.54 9.09q0 2.57-.55 3.47t-2.11.9"/></svg>