<svg xmlns="http://www.w3.org/2000/svg" width="1200" height="900" viewBox="0 0 1200 900"><rect width="100%" height="100%" fill="#1f2937"/><path fill="#ffffff" d="M286.38 459.465q.94 0 1.68.73l4.55 4.94q-3.78 4.69-9.31 7.18-5.52 2.5-13.26 2.5-6.92 0-12.45-2.37-5.53-2.36-9.44-6.58-3.91-4.21-6-10.06-2.08-5.85-2.08-12.77 0-7.01 2.23-12.83 2.24-5.83 6.3-10.05 4.07-4.21 9.7-6.55 5.63-2.35 12.47-2.35 6.79 0 12.06 2.24t8.97 5.85l-3.87 5.37q-.35.52-.88.91-.54.38-1.49.38-.64 0-1.33-.36-.69-.37-1.51-.91-.81-.53-1.89-1.18-1.07-.64-2.49-1.18t-3.29-.9q-1.87-.37-4.32-.37-4.17 0-7.64 1.48-3.46 1.49-5.95 4.3-2.5 2.82-3.87 6.88-1.38 4.07-1.38 9.27 0 5.25 1.49 9.33 1.48 4.09 4.02 6.88 2.53 2.8 5.97 4.28t7.4 1.48q2.36 0 4.28-.25 1.91-.26 3.52-.82 1.62-.56 3.06-1.44t2.86-2.17q.43-.39.9-.63.47-.23.99-.23m32.03-30.15q4.91 0 8.93 1.59 4.02 1.6 6.88 4.52t4.4 7.14q1.55 4.21 1.55 9.41 0 5.25-1.55 9.46-1.54 4.22-4.4 7.19-2.86 2.96-6.88 4.55-4.02 1.6-8.93 1.6-4.94 0-8.98-1.6-4.05-1.59-6.9-4.55-2.86-2.97-4.43-7.19-1.57-4.21-1.57-9.46 0-5.2 1.57-9.41 1.57-4.22 4.43-7.14 2.85-2.92 6.9-4.52 4.04-1.59 8.98-1.59m0 37.28q5.51 0 8.15-3.69 2.65-3.7 2.65-10.84t-2.65-10.88q-2.64-3.74-8.15-3.74-5.59 0-8.27 3.76-2.69 3.77-2.69 10.86 0 7.1 2.69 10.82 2.68 3.71 8.27 3.71m39.09-34.65.73 3.48q1.33-1.33 2.82-2.47 1.48-1.14 3.14-1.94 1.65-.79 3.54-1.24 1.9-.46 4.13-.46 3.61 0 6.41 1.23 2.79 1.22 4.67 3.44 1.87 2.21 2.83 5.29.97 3.07.97 6.77v28.08h-10.62v-28.08q0-4.04-1.85-6.26-1.85-2.21-5.63-2.21-2.75 0-5.16 1.25-2.41 1.24-4.56 3.39v31.91H348.3v-44.12h6.49q2.07 0 2.71 1.94m73.7 3.52-2.79 3.87q-.48.6-.93.95-.45.34-1.31.34-.82 0-1.59-.49-.77-.5-1.85-1.12-1.07-.62-2.56-1.12-1.48-.49-3.67-.49-2.8 0-4.91 1.01-2.1 1.01-3.5 2.9t-2.09 4.58q-.68 2.69-.68 6.08 0 3.53.75 6.28t2.17 4.63q1.42 1.87 3.44 2.83 2.02.97 4.56.97t4.11-.62q1.56-.63 2.64-1.38 1.07-.75 1.87-1.37.8-.63 1.78-.63 1.29 0 1.94.99l3.05 3.87q-1.76 2.06-3.82 3.46-2.07 1.4-4.28 2.24-2.22.84-4.56 1.18-2.34.35-4.67.35-4.08 0-7.69-1.53-3.62-1.53-6.32-4.45-2.71-2.93-4.28-7.16-1.57-4.24-1.57-9.66 0-4.85 1.4-9 1.39-4.15 4.1-7.18 2.71-3.04 6.71-4.76t9.2-1.72q4.95 0 8.67 1.59 3.72 1.6 6.68 4.56m7.4-5.46h10.66v44.12H438.6zm12.12-12.86q0 1.38-.55 2.58-.56 1.21-1.49 2.11-.92.9-2.17 1.44t-2.67.54q-1.37 0-2.6-.54-1.22-.54-2.13-1.44-.9-.9-1.44-2.11-.53-1.2-.53-2.58 0-1.41.53-2.66.54-1.25 1.44-2.15.91-.9 2.13-1.44 1.23-.54 2.6-.54 1.42 0 2.67.54t2.17 1.44q.93.9 1.49 2.15.55 1.25.55 2.66m17.76 29.85h20.04q0-2.07-.58-3.89-.58-1.83-1.74-3.21-1.16-1.37-2.95-2.17-1.78-.8-4.15-.8-4.6 0-7.24 2.63-2.65 2.62-3.38 7.44m27.09 6.4h-27.3q.26 3.4 1.2 5.87.95 2.48 2.5 4.09 1.54 1.61 3.67 2.41 2.13.79 4.71.79t4.45-.6 3.27-1.33 2.45-1.34q1.05-.6 2.04-.6 1.34 0 1.98.99l3.05 3.87q-1.76 2.06-3.95 3.46t-4.58 2.24-4.86 1.18q-2.47.35-4.79.35-4.61 0-8.56-1.53-3.96-1.53-6.88-4.52-2.93-2.99-4.6-7.39-1.68-4.41-1.68-10.22 0-4.51 1.46-8.49t4.2-6.92q2.73-2.95 6.66-4.67t8.88-1.72q4.17 0 7.7 1.34 3.52 1.33 6.06 3.89t3.98 6.28 1.44 8.49q0 2.41-.52 3.25-.51.83-1.98.83m19.83-20.72.64 4.99q2.07-3.96 4.9-6.22 2.84-2.26 6.71-2.26 3.05 0 4.9 1.34l-.68 7.95q-.22.78-.63 1.1t-1.09.32q-.65 0-1.92-.21-1.27-.22-2.47-.22-1.76 0-3.14.52-1.38.51-2.47 1.48-1.1.97-1.94 2.34-.84 1.38-1.57 3.14v27.18h-10.62v-44.12h6.24q1.63 0 2.28.58.64.58.86 2.09m38.83 18.32q1.97 0 3.44-.54 1.46-.54 2.43-1.49.96-.94 1.46-2.27.49-1.34.49-2.93 0-3.27-1.95-5.18-1.96-1.91-5.87-1.91-3.92 0-5.87 1.91-1.96 1.91-1.96 5.18 0 1.55.49 2.88.5 1.34 1.47 2.3.96.97 2.45 1.51 1.48.54 3.42.54m11.99 25.11q0-1.29-.77-2.11-.78-.82-2.11-1.27t-3.12-.66q-1.78-.22-3.78-.33-2-.1-4.13-.19t-4.15-.34q-1.76.98-2.86 2.32-1.09 1.33-1.09 3.09 0 1.17.58 2.18t1.85 1.74q1.26.73 3.29 1.14 2.02.41 4.94.41 2.97 0 5.12-.46 2.15-.45 3.55-1.24 1.39-.8 2.04-1.9.64-1.09.64-2.38m-2.1-44.59h12.68v3.95q0 1.89-2.28 2.32l-3.95.74q.9 2.27.9 4.98 0 3.27-1.31 5.92-1.31 2.64-3.64 4.49-2.32 1.85-5.48 2.86t-6.81 1.01q-1.29 0-2.5-.13-1.2-.13-2.36-.34-2.07 1.24-2.07 2.79 0 1.33 1.23 1.96 1.22.62 3.24.88 2.03.26 4.61.32 2.58.07 5.28.28 2.71.22 5.29.75 2.58.54 4.6 1.7 2.03 1.16 3.25 3.16 1.23 2 1.23 5.14 0 2.93-1.44 5.68t-4.17 4.9q-2.74 2.15-6.71 3.46-3.98 1.31-9.05 1.31-4.99 0-8.69-.96-3.7-.97-6.15-2.58-2.45-1.62-3.65-3.72-1.21-2.11-1.21-4.39 0-3.1 1.87-5.18 1.87-2.09 5.14-3.33-1.76-.91-2.79-2.41-1.04-1.51-1.04-3.96 0-.99.37-2.04.36-1.05 1.07-2.09.71-1.03 1.79-1.95 1.07-.93 2.54-1.66-3.36-1.8-5.27-4.81-1.92-3.01-1.92-7.06 0-3.26 1.32-5.91 1.31-2.64 3.65-4.51t5.55-2.86q3.2-.99 6.99-.99 2.83 0 5.33.58 2.49.58 4.56 1.7m27.77 15.48h20.04q0-2.07-.58-3.89-.58-1.83-1.74-3.21-1.16-1.37-2.95-2.17-1.78-.8-4.15-.8-4.6 0-7.24 2.63-2.65 2.62-3.38 7.44m27.09 6.4h-27.3q.26 3.4 1.2 5.87.95 2.48 2.5 4.09 1.54 1.61 3.67 2.41 2.13.79 4.71.79t4.45-.6 3.27-1.33 2.45-1.34q1.05-.6 2.04-.6 1.34 0 1.98.99l3.05 3.87q-1.76 2.06-3.95 3.46t-4.58 2.24-4.86 1.18q-2.47.35-4.79.35-4.61 0-8.56-1.53-3.96-1.53-6.88-4.52-2.93-2.99-4.6-7.39-1.68-4.41-1.68-10.22 0-4.51 1.46-8.49t4.2-6.92q2.73-2.95 6.66-4.67t8.88-1.72q4.17 0 7.7 1.34 3.52 1.33 6.06 3.89t3.98 6.28 1.44 8.49q0 2.41-.52 3.25-.51.83-1.98.83m69.02-35.6-2.88 5.46q-.52.9-1.1 1.31t-1.44.41q-.9 0-1.96-.67-1.05-.66-2.51-1.48t-3.42-1.48q-1.96-.67-4.62-.67-2.41 0-4.22.58-1.8.58-3.03 1.61-1.22 1.04-1.82 2.48-.61 1.44-.61 3.16 0 2.19 1.23 3.65 1.22 1.46 3.25 2.5 2.02 1.03 4.6 1.84 2.58.82 5.28 1.75 2.71.92 5.29 2.15 2.58 1.22 4.61 3.09 2.02 1.87 3.24 4.58 1.23 2.71 1.23 6.58 0 4.21-1.44 7.89t-4.22 6.41q-2.77 2.73-6.77 4.3t-9.16 1.57q-2.97 0-5.85-.58t-5.52-1.66q-2.65-1.07-4.97-2.58-2.32-1.5-4.13-3.35l3.4-5.55q.43-.6 1.12-1.01t1.46-.41q1.08 0 2.32.88 1.25.88 2.97 1.96 1.72 1.07 4.02 1.96 2.3.88 5.53.88 4.94 0 7.65-2.35 2.71-2.34 2.71-6.73 0-2.45-1.23-3.99-1.22-1.55-3.24-2.61-2.02-1.05-4.6-1.78t-5.25-1.59-5.25-2.07q-2.58-1.2-4.6-3.13-2.02-1.94-3.24-4.84-1.23-2.9-1.23-7.16 0-3.4 1.35-6.62 1.36-3.23 3.94-5.72 2.58-2.5 6.36-4 3.79-1.51 8.69-1.51 5.5 0 10.15 1.72 4.64 1.72 7.91 4.82m17.89 29.2h20.04q0-2.07-.59-3.89-.58-1.83-1.74-3.21-1.16-1.37-2.94-2.17-1.79-.8-4.15-.8-4.6 0-7.25 2.63-2.64 2.62-3.37 7.44m27.09 6.4h-27.31q.26 3.4 1.21 5.87.94 2.48 2.49 4.09t3.68 2.41q2.12.79 4.7.79 2.59 0 4.46-.6t3.26-1.33q1.4-.73 2.45-1.34 1.06-.6 2.05-.6 1.33 0 1.97.99l3.06 3.87q-1.76 2.06-3.96 3.46-2.19 1.4-4.58 2.24-2.38.84-4.86 1.18-2.47.35-4.79.35-4.6 0-8.56-1.53-3.95-1.53-6.88-4.52-2.92-2.99-4.6-7.39-1.68-4.41-1.68-10.22 0-4.51 1.47-8.49 1.46-3.98 4.19-6.92 2.73-2.95 6.66-4.67 3.94-1.72 8.88-1.72 4.17 0 7.7 1.34 3.53 1.33 6.06 3.89 2.54 2.56 3.98 6.28t1.44 8.49q0 2.41-.51 3.25-.52.83-1.98.83m19.82-20.72.65 4.99q2.06-3.96 4.9-6.22t6.71-2.26q3.05 0 4.9 1.34l-.69 7.95q-.22.78-.62 1.1-.41.32-1.1.32-.65 0-1.91-.21-1.27-.22-2.48-.22-1.76 0-3.14.52-1.37.51-2.47 1.48-1.09.97-1.93 2.34-.84 1.38-1.57 3.14v27.18h-10.62v-44.12h6.23q1.64 0 2.28.58.65.58.86 2.09m54.09-2.67h8.39l-17.5 44.12h-9.63l-17.5-44.12h8.77q1.2 0 2 .56.79.56 1.05 1.42l8.51 23.56q.69 2.07 1.21 4.05.51 1.97.9 3.95.43-1.98.95-3.95.51-1.98 1.24-4.05l8.69-23.56q.3-.86 1.08-1.42.77-.56 1.84-.56m14.37 0h10.66v44.12h-10.66zm12.12-12.86q0 1.38-.56 2.58-.56 1.21-1.48 2.11t-2.17 1.44-2.67.54q-1.37 0-2.6-.54-1.22-.54-2.13-1.44-.9-.9-1.44-2.11-.54-1.2-.54-2.58 0-1.41.54-2.66t1.44-2.15q.91-.9 2.13-1.44 1.23-.54 2.6-.54 1.42 0 2.67.54t2.17 1.44 1.48 2.15.56 2.66m43.78 18.32-2.8 3.87q-.47.6-.92.95-.45.34-1.31.34-.82 0-1.6-.49-.77-.5-1.84-1.12-1.08-.62-2.56-1.12-1.49-.49-3.68-.49-2.79 0-4.9 1.01t-3.51 2.9q-1.39 1.89-2.08 4.58t-.69 6.08q0 3.53.75 6.28.76 2.75 2.17 4.63 1.42 1.87 3.44 2.83 2.03.97 4.56.97 2.54 0 4.11-.62 1.57-.63 2.64-1.38 1.08-.75 1.87-1.37.8-.63 1.79-.63 1.29 0 1.93.99l3.06 3.87q-1.77 2.06-3.83 3.46t-4.28 2.24q-2.21.84-4.56 1.18-2.34.35-4.66.35-4.09 0-7.7-1.53t-6.32-4.45q-2.71-2.93-4.28-7.16-1.57-4.24-1.57-9.66 0-4.85 1.4-9t4.11-7.18q2.7-3.04 6.7-4.76t9.21-1.72q4.94 0 8.66 1.59 3.72 1.6 6.69 4.56m15.43 11.53h20.04q0-2.07-.58-3.89-.58-1.83-1.74-3.21-1.16-1.37-2.95-2.17-1.78-.8-4.15-.8-4.6 0-7.24 2.63-2.65 2.62-3.38 7.44m27.09 6.4h-27.3q.26 3.4 1.2 5.87.95 2.48 2.5 4.09 1.54 1.61 3.67 2.41 2.13.79 4.71.79t4.45-.6 3.27-1.33 2.45-1.34q1.05-.6 2.04-.6 1.34 0 1.98.99l3.05 3.87q-1.76 2.06-3.95 3.46t-4.58 2.24-4.86 1.18q-2.47.35-4.79.35-4.61 0-8.56-1.53-3.96-1.53-6.88-4.52-2.93-2.99-4.6-7.39-1.68-4.41-1.68-10.22 0-4.51 1.46-8.49t4.19-6.92q2.74-2.95 6.67-4.67t8.88-1.72q4.17 0 7.7 1.34 3.52 1.33 6.06 3.89t3.98 6.28 1.44 8.49q0 2.41-.52 3.25-.51.83-1.98.83m39.78-18.62-2.41 3.83q-.43.69-.9.97-.48.28-1.21.28-.77 0-1.65-.43t-2.04-.97q-1.17-.54-2.65-.97t-3.5-.43q-3.14 0-4.93 1.34-1.78 1.33-1.78 3.48 0 1.42.92 2.39.93.96 2.45 1.69 1.53.74 3.47 1.32 1.93.58 3.93 1.26 2 .69 3.93 1.57 1.94.89 3.47 2.24 1.52 1.35 2.45 3.25.92 1.89.92 4.55 0 3.19-1.14 5.87-1.14 2.69-3.37 4.65-2.24 1.95-5.53 3.05t-7.59 1.1q-2.28 0-4.45-.41t-4.17-1.14-3.7-1.72-2.99-2.15l2.45-4.04q.48-.73 1.12-1.12.65-.39 1.64-.39t1.87.56 2.04 1.21q1.16.64 2.73 1.2t3.98.56q1.89 0 3.24-.45 1.36-.45 2.24-1.19.88-.73 1.29-1.69.41-.97.41-2 0-1.55-.93-2.54-.92-.99-2.45-1.72-1.52-.73-3.48-1.31t-4-1.27-4-1.61q-1.95-.93-3.48-2.35t-2.45-3.48q-.93-2.06-.93-4.99 0-2.71 1.08-5.16 1.07-2.45 3.16-4.28 2.08-1.82 5.2-2.92t7.2-1.1q4.56 0 8.3 1.51 3.74 1.5 6.24 3.95"/></svg>