<svg xmlns="http://www.w3.org/2000/svg" width="1200" height="900" viewBox="0 0 1200 900"><rect width="100%" height="100%" fill="#1f2937"/><path fill="#ffffff" d="M321.225 410.54h11.26v80.25h-13.15v-51.84q0-3.11.33-6.71l-24.25 45.56q-1.72 3.28-5.27 3.28h-2.11q-3.56 0-5.28-3.28l-24.53-45.73q.17 1.83.28 3.61.11 1.77.11 3.27v51.84h-13.15v-80.25h11.26q1 0 1.72.05.73.06 1.31.28t1.05.72q.48.5.92 1.33l24.03 44.57q.94 1.78 1.75 3.66.8 1.89 1.58 3.89.78-2.06 1.61-3.97.83-1.92 1.78-3.69l23.69-44.46q.45-.83.95-1.33t1.08-.72 1.3-.28q.73-.05 1.73-.05m52.17 22.42q6.32 0 11.51 2.05 5.19 2.06 8.88 5.83t5.69 9.21 2 12.16q0 6.77-2 12.21t-5.69 9.27-8.88 5.88-11.51 2.05q-6.39 0-11.6-2.05-5.22-2.05-8.91-5.88t-5.72-9.27q-2.02-5.44-2.02-12.21 0-6.72 2.02-12.16 2.03-5.44 5.72-9.21t8.91-5.83q5.21-2.05 11.6-2.05m0 48.12q7.1 0 10.51-4.78 3.42-4.77 3.42-13.98t-3.42-14.04q-3.41-4.83-10.51-4.83-7.22 0-10.69 4.85-3.47 4.86-3.47 14.02t3.47 13.96 10.69 4.8m52.28-30.58v25.53q2.33 2.83 5.07 3.99 2.75 1.17 5.8 1.17 3.17 0 5.69-1.14 2.53-1.14 4.3-3.55 1.78-2.42 2.72-6.16.95-3.75.95-8.96 0-9.38-3.11-13.57t-8.94-4.19q-3.94 0-6.88 1.8t-5.6 5.08m0-42.18v32.52q3.44-3.61 7.63-5.74 4.19-2.14 9.57-2.14 4.94 0 8.91 1.94t6.77 5.58q2.8 3.63 4.3 8.8 1.5 5.16 1.5 11.6 0 6.93-1.72 12.59-1.72 5.67-4.91 9.69t-7.69 6.24q-4.49 2.22-9.99 2.22-2.66 0-4.83-.52-2.16-.53-3.99-1.48-1.84-.94-3.36-2.3-1.53-1.36-2.92-3.02l-.61 3.83q-.33 1.44-1.13 2.05-.81.61-2.2.61h-9.04v-82.47zm49.72 25.53h13.77v56.94h-13.77zm15.66-16.6q0 1.78-.73 3.33-.72 1.56-1.91 2.72-1.19 1.17-2.8 1.86t-3.44.69q-1.78 0-3.36-.69t-2.75-1.86q-1.17-1.16-1.86-2.72-.69-1.55-.69-3.33 0-1.83.69-3.44t1.86-2.77q1.17-1.17 2.75-1.86 1.58-.7 3.36-.7 1.83 0 3.44.7 1.61.69 2.8 1.86 1.19 1.16 1.91 2.77.73 1.61.73 3.44m12.26-8.93h13.71v82.47h-13.71zm38.24 47.45h25.86q0-2.66-.75-5.02t-2.24-4.14q-1.5-1.77-3.81-2.8-2.3-1.03-5.35-1.03-5.94 0-9.35 3.39-3.42 3.38-4.36 9.6m34.97 8.27h-35.25q.34 4.38 1.56 7.57 1.22 3.2 3.22 5.28 1.99 2.08 4.74 3.11 2.75 1.02 6.08 1.02t5.74-.77q2.42-.78 4.22-1.73 1.8-.94 3.16-1.72 1.36-.77 2.64-.77 1.72 0 2.55 1.27l3.94 5q-2.27 2.66-5.1 4.47-2.83 1.8-5.91 2.88t-6.27 1.53q-3.2.44-6.19.44-5.94 0-11.05-1.97-5.1-1.97-8.88-5.83-3.77-3.85-5.94-9.54-2.16-5.69-2.16-13.18 0-5.83 1.89-10.96 1.88-5.14 5.41-8.94 3.52-3.8 8.6-6.02t11.46-2.22q5.38 0 9.94 1.72 4.55 1.72 7.82 5.02 3.28 3.3 5.14 8.11 1.85 4.8 1.85 10.96 0 3.1-.66 4.19-.67 1.08-2.55 1.08m57.55-13.15h11.15q4.11 0 7.16-1.03 3.06-1.03 5.08-2.94 2.03-1.92 3.03-4.66 1-2.75 1-6.14 0-3.22-1-5.82-1-2.61-3-4.45-2-1.83-5.05-2.8t-7.22-.97h-11.15zm-14.93-40.35h26.08q8.05 0 13.93 1.88 5.89 1.89 9.72 5.28 3.83 3.38 5.69 8.1t1.86 10.32q0 5.83-1.95 10.69-1.94 4.85-5.82 8.35-3.89 3.5-9.74 5.44-5.86 1.94-13.69 1.94h-11.15v28.25h-14.93zm96.62 65.54v-9.6q-5.93.28-9.99 1.03-4.05.75-6.49 1.91-2.44 1.17-3.5 2.72-1.05 1.56-1.05 3.39 0 3.61 2.14 5.16 2.13 1.55 5.57 1.55 4.22 0 7.3-1.52 3.08-1.53 6.02-4.64m-28.97-29.91-2.44-4.39q9.83-8.99 23.64-8.99 5 0 8.94 1.64t6.66 4.55 4.14 6.97q1.41 4.05 1.41 8.88v35.96h-6.22q-1.94 0-2.99-.58-1.06-.59-1.67-2.36l-1.22-4.11q-2.16 1.94-4.22 3.41-2.05 1.48-4.27 2.47-2.22 1-4.75 1.53-2.52.53-5.57.53-3.61 0-6.66-.97-3.06-.97-5.28-2.92-2.22-1.94-3.44-4.83-1.22-2.88-1.22-6.71 0-2.17.72-4.3.73-2.14 2.36-4.08 1.64-1.94 4.25-3.66t6.41-3 8.85-2.08q5.05-.81 11.54-.97v-3.33q0-5.72-2.44-8.47-2.44-2.74-7.05-2.74-3.33 0-5.52.77-2.19.78-3.86 1.75-1.66.97-3.02 1.75t-3.02.78q-1.45 0-2.45-.75t-1.61-1.75m74.21 45.51q-7.44 0-11.41-4.19t-3.97-11.57v-31.81h-5.82q-1.11 0-1.89-.72t-.78-2.16v-5.44l9.16-1.5 2.89-15.54q.27-1.11 1.05-1.72t2-.61h7.1v17.93h15.21v9.76h-15.21v30.86q0 2.67 1.31 4.17 1.3 1.49 3.58 1.49 1.27 0 2.13-.3.86-.31 1.5-.64t1.14-.64q.5-.3 1-.3.61 0 1 .3.39.31.83.92l4.11 6.66q-3 2.49-6.89 3.77-3.88 1.28-8.04 1.28m34.41-54.39.83 6.44q2.66-5.11 6.33-8.02 3.66-2.92 8.65-2.92 3.95 0 6.33 1.72l-.89 10.27q-.27 1-.8 1.42-.53.41-1.42.41-.83 0-2.47-.28-1.63-.27-3.19-.27-2.27 0-4.05.66-1.77.67-3.19 1.92t-2.5 3.02q-1.08 1.78-2.02 4.05v35.08h-13.71v-56.94h8.05q2.1 0 2.94.75.83.75 1.11 2.69m54.5-4.33q6.33 0 11.51 2.05 5.19 2.06 8.88 5.83 3.7 3.77 5.69 9.21 2 5.44 2 12.16 0 6.77-2 12.21-1.99 5.44-5.69 9.27-3.69 3.83-8.88 5.88-5.18 2.05-11.51 2.05-6.38 0-11.6-2.05t-8.91-5.88-5.72-9.27q-2.02-5.44-2.02-12.21 0-6.72 2.02-12.16 2.03-5.44 5.72-9.21t8.91-5.83q5.22-2.05 11.6-2.05m0 48.12q7.1 0 10.52-4.78 3.41-4.77 3.41-13.98t-3.41-14.04q-3.42-4.83-10.52-4.83-7.22 0-10.69 4.85-3.46 4.86-3.46 14.02t3.46 13.96q3.47 4.8 10.69 4.8m38.74-72.76h13.71v82.47h-13.71zm65.27 31.69-3.11 4.94q-.56.89-1.17 1.25t-1.55.36q-1 0-2.14-.56-1.14-.55-2.64-1.25-1.49-.69-3.41-1.25-1.91-.55-4.52-.55-4.05 0-6.36 1.72-2.3 1.72-2.3 4.49 0 1.84 1.19 3.09 1.2 1.24 3.17 2.19 1.97.94 4.46 1.69 2.5.75 5.08 1.64t5.08 2.02q2.5 1.14 4.47 2.89t3.16 4.19q1.2 2.44 1.2 5.88 0 4.11-1.47 7.58-1.48 3.47-4.36 5.99-2.89 2.53-7.13 3.94-4.25 1.42-9.8 1.42-2.94 0-5.74-.53-2.81-.53-5.39-1.47t-4.77-2.22-3.86-2.78l3.17-5.21q.61-.95 1.44-1.45.83-.49 2.11-.49 1.27 0 2.41.72t2.64 1.55 3.52 1.55q2.03.73 5.14.73 2.44 0 4.19-.59 1.75-.58 2.88-1.52 1.14-.95 1.67-2.19.53-1.25.53-2.59 0-1.99-1.2-3.27-1.19-1.28-3.16-2.22t-4.5-1.69q-2.52-.75-5.16-1.64-2.63-.89-5.16-2.08t-4.5-3.03q-1.97-1.83-3.16-4.49-1.19-2.67-1.19-6.44 0-3.5 1.39-6.66 1.38-3.16 4.07-5.52 2.7-2.36 6.72-3.78 4.02-1.41 9.3-1.41 5.88 0 10.71 1.94t8.05 5.11"/></svg>