<svg xmlns="http://www.w3.org/2000/svg" width="1200" height="1500" viewBox="0 0 1200 1500"><rect width="100%" height="100%" fill="#1f2937"/><path fill="#ffffff" d="M319.18 711.96h10.86v77.36h-12.68v-49.97q0-2.99.32-6.47L294.3 776.8q-1.66 3.16-5.08 3.16h-2.03q-3.43 0-5.09-3.16l-23.64-44.08q.16 1.76.26 3.47.11 1.72.11 3.16v49.97h-12.68v-77.36h10.86q.97 0 1.66.05.7.06 1.26.27t1.01.7q.46.48.89 1.28l23.16 42.96q.91 1.71 1.69 3.53.77 1.82 1.52 3.75.75-1.98 1.55-3.83.81-1.85 1.72-3.56l22.84-42.85q.43-.8.91-1.28.48-.49 1.04-.7.57-.21 1.26-.27.7-.05 1.66-.05m26.43 22.47h13.27v54.89h-13.27zm15.09-16q0 1.71-.7 3.21t-1.85 2.62q-1.15 1.13-2.7 1.8t-3.31.67q-1.72 0-3.24-.67-1.53-.67-2.65-1.8-1.12-1.12-1.79-2.62t-.67-3.21q0-1.76.67-3.31.67-1.56 1.79-2.68t2.65-1.79q1.52-.67 3.24-.67 1.76 0 3.31.67t2.7 1.79 1.85 2.68q.7 1.55.7 3.31m54.46 22.79-3.48 4.82q-.59.75-1.15 1.18-.56.42-1.63.42-1.02 0-1.98-.61-.96-.62-2.3-1.39-1.34-.78-3.18-1.39-1.85-.62-4.58-.62-3.48 0-6.1 1.26t-4.36 3.61-2.59 5.7q-.86 3.34-.86 7.57 0 4.38.94 7.81.93 3.42 2.7 5.75 1.76 2.33 4.28 3.53 2.51 1.2 5.67 1.2t5.11-.77q1.95-.78 3.29-1.71 1.34-.94 2.33-1.72.99-.77 2.22-.77 1.6 0 2.4 1.23l3.8 4.81q-2.19 2.57-4.76 4.31t-5.32 2.78q-2.76 1.05-5.67 1.47-2.92.43-5.81.43-5.08 0-9.57-1.9-4.5-1.9-7.87-5.53-3.37-3.64-5.32-8.91t-1.95-12.01q0-6.05 1.73-11.21 1.74-5.16 5.11-8.94 3.37-3.77 8.35-5.91t11.45-2.14q6.15 0 10.78 1.98t8.32 5.67m21.99-31.4v30.49q3.21-2.99 7.06-4.86 3.85-1.88 9.04-1.88 4.49 0 7.97 1.53 3.48 1.52 5.81 4.28 2.32 2.75 3.53 6.58 1.2 3.82 1.2 8.42v34.94h-13.21v-34.94q0-5.02-2.3-7.78t-7.01-2.76q-3.43 0-6.42 1.56-3 1.55-5.67 4.22v39.7h-13.22v-79.5zm76.13 65.32v-9.25q-5.73.26-9.63.99-3.91.72-6.26 1.84-2.36 1.13-3.37 2.62-1.02 1.5-1.02 3.27 0 3.48 2.06 4.97 2.06 1.5 5.38 1.5 4.06 0 7.03-1.47t5.81-4.47m-27.93-28.83-2.35-4.23q9.47-8.67 22.79-8.67 4.81 0 8.61 1.58t6.42 4.39 3.99 6.71q1.36 3.91 1.36 8.56v34.67h-5.99q-1.87 0-2.89-.56t-1.61-2.28l-1.17-3.95q-2.09 1.87-4.07 3.29-1.98 1.41-4.12 2.38-2.14.96-4.57 1.47-2.44.51-5.38.51-3.48 0-6.42-.94t-5.08-2.81-3.32-4.65q-1.18-2.79-1.18-6.48 0-2.08.7-4.14t2.27-3.94q1.58-1.87 4.1-3.53 2.51-1.66 6.18-2.89 3.66-1.23 8.53-2 4.87-.78 11.13-.94v-3.21q0-5.51-2.36-8.16-2.35-2.65-6.79-2.65-3.21 0-5.32.75-2.12.75-3.72 1.69-1.61.94-2.92 1.68-1.31.75-2.91.75-1.4 0-2.36-.72t-1.55-1.68m63.67 9.25h24.93q0-2.57-.73-4.84-.72-2.27-2.16-3.99-1.45-1.71-3.67-2.7t-5.16-.99q-5.72 0-9.01 3.27-3.3 3.26-4.2 9.25m33.7 7.97h-33.97q.32 4.23 1.5 7.31 1.17 3.07 3.1 5.08 1.92 2 4.57 2.99t5.86.99 5.54-.74q2.33-.75 4.06-1.66 1.74-.91 3.05-1.66t2.55-.75q1.65 0 2.46 1.23l3.79 4.81q-2.19 2.57-4.92 4.31t-5.69 2.78q-2.97 1.05-6.05 1.47-3.08.43-5.97.43-5.72 0-10.64-1.9t-8.56-5.61q-3.64-3.72-5.73-9.21-2.08-5.48-2.08-12.7 0-5.62 1.82-10.57 1.81-4.95 5.21-8.61 3.4-3.67 8.29-5.81 4.9-2.14 11.05-2.14 5.19 0 9.58 1.66t7.54 4.84q3.16 3.19 4.95 7.81 1.79 4.63 1.79 10.57 0 3-.64 4.04t-2.46 1.04m13.16-53.71h13.22v79.5h-13.22zm68.91 68.27h14.55q4.01 0 6.74-.97 2.73-.96 4.36-2.57 1.63-1.6 2.36-3.74.72-2.14.72-4.55 0-2.51-.8-4.52-.81-2.01-2.52-3.42-1.71-1.42-4.41-2.17t-6.5-.75h-14.5zm12.25-55h-12.25v22.36h11.45q7.38 0 11.15-2.68 3.77-2.67 3.77-8.5 0-6.05-3.42-8.61-3.42-2.57-10.7-2.57m-26.64-11.13h26.64q7.6 0 13 1.44 5.4 1.45 8.86 4.12 3.45 2.68 5.05 6.48 1.61 3.8 1.61 8.56 0 2.73-.81 5.21-.8 2.49-2.48 4.66-1.69 2.16-4.28 3.93-2.6 1.76-6.18 3 15.94 3.58 15.94 17.22 0 4.92-1.87 9.1-1.88 4.17-5.46 7.19-3.58 3.03-8.83 4.74-5.24 1.71-11.98 1.71H650.4zm80.03 25.79.81 6.2q2.56-4.92 6.1-7.73 3.53-2.81 8.34-2.81 3.8 0 6.1 1.66l-.86 9.9q-.26.96-.77 1.36t-1.37.4q-.8 0-2.38-.26-1.57-.27-3.07-.27-2.2 0-3.91.64t-3.07 1.85q-1.37 1.2-2.41 2.91-1.05 1.71-1.95 3.91v33.81h-13.22v-54.89h7.76q2.03 0 2.83.72.81.72 1.07 2.6m52.54-4.18q6.1 0 11.1 1.98t8.56 5.62 5.49 8.88q1.92 5.24 1.92 11.72 0 6.52-1.92 11.77-1.93 5.24-5.49 8.93t-8.56 5.67-11.1 1.98q-6.15 0-11.18-1.98t-8.59-5.67-5.51-8.93q-1.95-5.25-1.95-11.77 0-6.48 1.95-11.72t5.51-8.88 8.59-5.62 11.18-1.98m0 46.39q6.85 0 10.14-4.6t3.29-13.49q0-8.88-3.29-13.53-3.29-4.66-10.14-4.66-6.95 0-10.3 4.69-3.34 4.68-3.34 13.5 0 8.83 3.34 13.46 3.35 4.63 10.3 4.63m105.5-45.53h10.06l-17.44 54.89H870.5q-1.82 0-2.52-2.35l-9.84-31.73q-.48-1.6-.88-3.18-.41-1.58-.67-3.19-.32 1.61-.73 3.24-.4 1.63-.88 3.24l-10 31.62q-.64 2.35-2.84 2.35h-10.16l-17.39-54.89h10.54q1.44 0 2.46.69 1.02.7 1.34 1.77l7.86 29.32q.59 2.41 1.05 4.71.45 2.3.77 4.6.59-2.3 1.26-4.6t1.42-4.71l9.09-29.43q.32-1.07 1.26-1.76.93-.7 2.27-.7h5.83q1.39 0 2.38.7.99.69 1.31 1.76l8.83 29.43q.7 2.41 1.31 4.73.62 2.33 1.21 4.63.69-4.55 1.98-9.36l8.07-29.32q.38-1.07 1.34-1.77.97-.69 2.3-.69m29 2.41.91 4.33q1.66-1.66 3.5-3.08 1.85-1.41 3.91-2.4t4.41-1.56q2.36-.56 5.14-.56 4.49 0 7.97 1.53 3.48 1.52 5.81 4.28 2.32 2.75 3.53 6.58 1.2 3.82 1.2 8.42v34.94h-13.21v-34.94q0-5.02-2.31-7.78-2.3-2.76-7-2.76-3.43 0-6.42 1.56-3 1.55-5.67 4.22v39.7h-13.22v-54.89h8.08q2.57 0 3.37 2.41"/></svg>