<svg xmlns="http://www.w3.org/2000/svg" width="1200" height="900" viewBox="0 0 1200 900"><rect width="100%" height="100%" fill="#1f2937"/><path fill="#ffffff" d="m291.775 410.765-3.52 6.66q-.63 1.11-1.34 1.6-.71.5-1.76.5-1.1 0-2.39-.81-1.28-.81-3.07-1.81-1.78-1-4.17-1.81-2.39-.82-5.65-.82-2.94 0-5.14.71-2.21.71-3.7 1.97-1.5 1.26-2.23 3.02-.74 1.76-.74 3.86 0 2.68 1.5 4.46 1.49 1.79 3.96 3.04 2.47 1.27 5.62 2.26 3.15 1 6.46 2.13t6.45 2.62q3.15 1.5 5.62 3.78 2.47 2.29 3.97 5.6 1.49 3.3 1.49 8.03 0 5.14-1.76 9.63-1.75 4.49-5.14 7.82-3.39 3.34-8.27 5.25-4.88 1.92-11.18 1.92-3.62 0-7.14-.71t-6.75-2.02-6.06-3.15q-2.84-1.84-5.04-4.09l4.14-6.78q.53-.73 1.37-1.23t1.78-.5q1.32 0 2.84 1.08 1.52 1.07 3.62 2.39 2.1 1.31 4.91 2.38 2.81 1.08 6.75 1.08 6.04 0 9.34-2.86 3.31-2.86 3.31-8.22 0-2.99-1.5-4.88-1.49-1.89-3.96-3.18-2.47-1.28-5.62-2.17-3.15-.9-6.4-1.95-3.26-1.05-6.41-2.52t-5.61-3.83q-2.47-2.36-3.97-5.91-1.5-3.54-1.5-8.74 0-4.14 1.66-8.08 1.65-3.94 4.8-6.98 3.15-3.05 7.77-4.89 4.62-1.83 10.61-1.83 6.72 0 12.39 2.09 5.67 2.11 9.66 5.89m29.55 69.61q-7.03 0-10.78-3.96-3.76-3.97-3.76-10.95v-30.08h-5.51q-1.05 0-1.79-.69-.73-.68-.73-2.04v-5.15l8.66-1.42 2.73-14.69q.26-1.05 1-1.63.73-.58 1.89-.58h6.72v16.96h14.38v9.24h-14.38v29.19q0 2.52 1.23 3.93 1.24 1.42 3.39 1.42 1.21 0 2.02-.29t1.42-.6q.6-.31 1.07-.6.48-.29.95-.29.58 0 .94.29.37.29.79.86l3.89 6.3q-2.84 2.37-6.51 3.57-3.68 1.21-7.62 1.21m49.56-14.75v-9.08q-5.61.26-9.45.97-3.83.71-6.14 1.81t-3.31 2.57q-.99 1.47-.99 3.2 0 3.41 2.02 4.89 2.02 1.47 5.27 1.47 3.99 0 6.91-1.45 2.91-1.44 5.69-4.38m-27.4-28.3-2.31-4.15q9.29-8.5 22.36-8.5 4.73 0 8.46 1.55 3.72 1.54 6.3 4.3 2.57 2.76 3.91 6.59t1.34 8.4v34.02h-5.88q-1.84 0-2.84-.55t-1.57-2.23l-1.16-3.89q-2.05 1.84-3.99 3.23t-4.04 2.34q-2.1.94-4.49 1.44t-5.28.5q-3.41 0-6.3-.92-2.88-.92-4.98-2.75-2.1-1.84-3.26-4.57-1.15-2.73-1.15-6.35 0-2.05.68-4.07t2.23-3.86 4.02-3.47q2.46-1.62 6.06-2.83t8.37-1.97q4.78-.76 10.92-.92v-3.15q0-5.41-2.31-8.01t-6.66-2.6q-3.15 0-5.23.74-2.07.73-3.65 1.65-1.57.92-2.86 1.66-1.28.73-2.86.73-1.36 0-2.31-.71-.94-.71-1.52-1.65m70.19 43.05q-7.03 0-10.79-3.96-3.75-3.97-3.75-10.95v-30.08h-5.51q-1.05 0-1.79-.69-.73-.68-.73-2.04v-5.15l8.66-1.42 2.73-14.69q.26-1.05 1-1.63.73-.58 1.89-.58h6.72v16.96h14.38v9.24h-14.38v29.19q0 2.52 1.23 3.93 1.23 1.42 3.39 1.42 1.2 0 2.02-.29.81-.29 1.42-.6.6-.31 1.07-.6t.95-.29q.57 0 .94.29t.79.86l3.88 6.3q-2.83 2.37-6.51 3.57-3.67 1.21-7.61 1.21m21.53-54.7h13.02v53.86h-13.02zm14.8-15.7q0 1.68-.68 3.15t-1.81 2.57-2.65 1.76q-1.53.66-3.26.66-1.68 0-3.17-.66-1.5-.66-2.6-1.76-1.11-1.1-1.76-2.57-.66-1.47-.66-3.15 0-1.74.66-3.26.65-1.52 1.76-2.62 1.1-1.11 2.6-1.76 1.49-.66 3.17-.66 1.73 0 3.26.66 1.52.65 2.65 1.76 1.13 1.1 1.81 2.62t.68 3.26m53.45 22.36-3.42 4.73q-.57.73-1.12 1.15-.56.42-1.61.42-.99 0-1.94-.6-.94-.6-2.26-1.37-1.31-.76-3.12-1.36-1.81-.61-4.49-.61-3.41 0-5.98 1.24-2.58 1.23-4.28 3.54-1.71 2.31-2.55 5.59-.84 3.29-.84 7.43 0 4.31.92 7.67t2.65 5.64 4.2 3.47q2.47 1.18 5.57 1.18 3.09 0 5.01-.76 1.92-.77 3.23-1.68 1.31-.92 2.28-1.68t2.18-.76q1.58 0 2.36 1.2l3.73 4.73q-2.15 2.52-4.67 4.22-2.52 1.71-5.22 2.73-2.71 1.03-5.57 1.45t-5.7.42q-4.98 0-9.39-1.87-4.41-1.86-7.72-5.43t-5.22-8.74q-1.92-5.17-1.92-11.79 0-5.93 1.71-11 1.7-5.06 5.01-8.76t8.19-5.8 11.23-2.1q6.04 0 10.58 1.94t8.17 5.56m73.55 9.14h25.2v30.71q-5.78 4.25-12.31 6.22-6.54 1.97-13.99 1.97-9.3 0-16.83-2.89-7.53-2.88-12.86-8.03-5.33-5.14-8.22-12.28t-2.89-15.6q0-8.56 2.79-15.7 2.78-7.13 7.9-12.28 5.12-5.14 12.41-7.98 7.3-2.83 16.38-2.83 4.62 0 8.64.73 4.02.74 7.46 2.02 3.43 1.29 6.27 3.12 2.83 1.84 5.2 4.05l-4.05 6.4q-.94 1.52-2.46 1.87-1.53.34-3.31-.76-1.73-1-3.47-2-1.73-1-3.85-1.73-2.13-.74-4.78-1.21t-6.12-.47q-5.62 0-10.16 1.89t-7.74 5.41q-3.2 3.51-4.94 8.45-1.73 4.93-1.73 11.02 0 6.51 1.87 11.63 1.86 5.12 5.25 8.66 3.38 3.55 8.16 5.41 4.78 1.87 10.66 1.87 4.2 0 7.5-.9 3.31-.89 6.46-2.41v-13.76h-9.55q-1.37 0-2.13-.76t-.76-1.86zm70.24-15.8h12.97v53.86h-7.93q-2.57 0-3.25-2.36l-.89-4.31q-3.31 3.36-7.3 5.44-3.99 2.07-9.4 2.07-4.41 0-7.79-1.5-3.39-1.49-5.7-4.22t-3.49-6.49q-1.18-3.75-1.18-8.26v-34.23h12.96v34.23q0 4.93 2.29 7.63 2.28 2.71 6.85 2.71 3.36 0 6.3-1.5t5.56-4.12zm54.24 39.95v-9.08q-5.62.26-9.45.97-3.84.71-6.15 1.81t-3.3 2.57q-1 1.47-1 3.2 0 3.41 2.02 4.89 2.02 1.47 5.28 1.47 3.99 0 6.9-1.45 2.91-1.44 5.7-4.38m-27.41-28.3-2.31-4.15q9.29-8.5 22.37-8.5 4.72 0 8.45 1.55 3.73 1.54 6.3 4.3t3.91 6.59 1.34 8.4v34.02h-5.88q-1.84 0-2.84-.55-.99-.55-1.57-2.23l-1.16-3.89q-2.04 1.84-3.99 3.23-1.94 1.39-4.04 2.34-2.1.94-4.49 1.44t-5.27.5q-3.42 0-6.3-.92-2.89-.92-4.99-2.75-2.1-1.84-3.26-4.57-1.15-2.73-1.15-6.35 0-2.05.68-4.07t2.23-3.86 4.02-3.47q2.47-1.62 6.06-2.83 3.6-1.21 8.38-1.97 4.77-.76 10.92-.92v-3.15q0-5.41-2.31-8.01t-6.67-2.6q-3.15 0-5.22.74-2.08.73-3.65 1.65-1.58.92-2.86 1.66-1.29.73-2.87.73-1.36 0-2.31-.71-.94-.71-1.52-1.65m63.68-8.4.79 6.09q2.52-4.83 5.99-7.59 3.46-2.75 8.19-2.75 3.72 0 5.98 1.63l-.84 9.71q-.26.94-.76 1.34-.5.39-1.34.39-.79 0-2.33-.26-1.55-.26-3.02-.26-2.16 0-3.84.63t-3.01 1.81q-1.34 1.18-2.37 2.86-1.02 1.68-1.91 3.83v33.18h-12.97v-53.86h7.61q2 0 2.78.7.79.71 1.05 2.55m61.53 34.65v-24.15q-2.2-2.68-4.8-3.78t-5.59-1.1q-2.94 0-5.3 1.1-2.37 1.1-4.05 3.33-1.68 2.24-2.57 5.67-.89 3.44-.89 8.12 0 4.72.76 8t2.18 5.36q1.42 2.07 3.46 2.99 2.05.92 4.57.92 4.04 0 6.88-1.68 2.83-1.68 5.35-4.78m0-62.06h12.97v78.02h-7.93q-2.57 0-3.25-2.36l-1.1-5.2q-3.26 3.73-7.48 6.04-4.23 2.31-9.85 2.31-4.41 0-8.08-1.84-3.68-1.84-6.33-5.33t-4.09-8.63q-1.45-5.15-1.45-11.76 0-5.99 1.63-11.14 1.63-5.14 4.67-8.92 3.05-3.78 7.3-5.91 4.25-2.12 9.55-2.12 4.52 0 7.72 1.41 3.2 1.42 5.72 3.84zm26.2 24.16h13.02v53.86h-13.02zm14.81-15.7q0 1.68-.69 3.15-.68 1.47-1.81 2.57t-2.65 1.76-3.25.66q-1.68 0-3.18-.66t-2.6-1.76-1.76-2.57q-.65-1.47-.65-3.15 0-1.74.65-3.26.66-1.52 1.76-2.62 1.1-1.11 2.6-1.76 1.5-.66 3.18-.66 1.73 0 3.25.66 1.52.65 2.65 1.76 1.13 1.1 1.81 2.62.69 1.52.69 3.26m22.68 18.06.89 4.25q1.63-1.63 3.44-3.02t3.83-2.36 4.33-1.52 5.04-.55q4.41 0 7.82 1.49 3.42 1.5 5.7 4.2 2.28 2.71 3.47 6.46 1.18 3.75 1.18 8.27v34.28h-12.97v-34.28q0-4.94-2.26-7.64-2.26-2.71-6.88-2.71-3.36 0-6.3 1.53-2.94 1.52-5.56 4.15v38.95h-12.97v-53.86h7.93q2.52 0 3.31 2.36m67.67 23.26q2.41 0 4.2-.66 1.78-.66 2.97-1.81 1.18-1.16 1.78-2.78.6-1.63.6-3.57 0-3.99-2.38-6.33-2.39-2.34-7.17-2.34t-7.17 2.34-2.39 6.33q0 1.89.61 3.51.6 1.63 1.78 2.81t3 1.84q1.81.66 4.17.66m14.65 30.66q0-1.58-.95-2.58-.94-1-2.57-1.55t-3.81-.81-4.62-.39-5.04-.24q-2.6-.1-5.06-.42-2.16 1.21-3.49 2.84-1.34 1.62-1.34 3.77 0 1.42.71 2.66.7 1.23 2.25 2.12t4.02 1.39 6.04.5q3.62 0 6.24-.55 2.63-.55 4.34-1.52 1.7-.97 2.49-2.31t.79-2.91m-2.58-54.45h15.49v4.83q0 2.31-2.78 2.84l-4.83.89q1.1 2.78 1.1 6.09 0 3.99-1.6 7.22t-4.44 5.48q-2.83 2.26-6.69 3.5-3.86 1.23-8.32 1.23-1.58 0-3.05-.16t-2.88-.42q-2.52 1.53-2.52 3.42 0 1.62 1.49 2.38 1.5.77 3.97 1.08 2.46.32 5.61.39 3.15.08 6.46.35 3.31.26 6.46.91 3.15.66 5.62 2.08 2.46 1.42 3.96 3.86t1.5 6.27q0 3.57-1.76 6.93t-5.09 5.99q-3.34 2.62-8.19 4.22-4.86 1.6-11.06 1.6-6.09 0-10.6-1.18-4.52-1.18-7.51-3.15t-4.46-4.54-1.47-5.36q0-3.78 2.28-6.32 2.29-2.55 6.28-4.07-2.16-1.1-3.42-2.94t-1.26-4.83q0-1.21.45-2.49.45-1.29 1.31-2.55.87-1.26 2.18-2.39t3.1-2.02q-4.1-2.2-6.43-5.88-2.34-3.68-2.34-8.61 0-3.99 1.6-7.22t4.47-5.51q2.86-2.28 6.77-3.49t8.53-1.21q3.46 0 6.51.71 3.04.71 5.56 2.07"/></svg>