<svg xmlns="http://www.w3.org/2000/svg" width="1200" height="900" viewBox="0 0 1200 900"><rect width="100%" height="100%" fill="#1f2937"/><path fill="#ffffff" d="M293.23 413.155h-35.95v22.45h28.34v11.6h-28.34v22.9h35.95v12.04h-51.07v-80.98h51.07zm52.03 11.53h10.92l-22.8 57.46h-12.54l-22.79-57.46h11.42q1.57 0 2.61.73 1.03.73 1.37 1.85l11.09 30.69q.89 2.69 1.56 5.26.68 2.58 1.18 5.15.56-2.57 1.23-5.15.67-2.57 1.63-5.26l11.31-30.69q.39-1.12 1.4-1.85t2.41-.73m29.17 22.12h26.1q0-2.68-.76-5.06-.75-2.38-2.27-4.18-1.51-1.79-3.83-2.82-2.33-1.04-5.41-1.04-5.99 0-9.43 3.42-3.45 3.41-4.4 9.68m35.28 8.35h-35.56q.34 4.42 1.57 7.64t3.25 5.32q2.01 2.1 4.79 3.14 2.77 1.03 6.13 1.03t5.79-.78q2.44-.78 4.26-1.74 1.82-.95 3.19-1.73 1.37-.79 2.66-.79 1.74 0 2.58 1.29l3.97 5.04q-2.29 2.69-5.15 4.51-2.85 1.82-5.96 2.91t-6.33 1.54-6.24.45q-6 0-11.15-1.99t-8.96-5.88-5.99-9.63-2.18-13.3q0-5.88 1.9-11.06t5.46-9.02q3.56-3.83 8.68-6.07t11.56-2.24q5.44 0 10.03 1.73 4.59 1.74 7.89 5.07 3.31 3.33 5.18 8.18 1.88 4.84 1.88 11.06 0 3.13-.67 4.23-.67 1.09-2.58 1.09m25.59-27.95.96 4.54q1.73-1.74 3.66-3.22 1.94-1.48 4.09-2.52 2.16-1.04 4.62-1.62 2.47-.59 5.38-.59 4.7 0 8.34 1.59 3.64 1.6 6.08 4.48 2.43 2.89 3.69 6.89 1.26 4.01 1.26 8.82v36.57h-13.83v-36.57q0-5.26-2.41-8.15-2.4-2.88-7.33-2.88-3.59 0-6.72 1.62-3.14 1.63-5.94 4.43v41.55h-13.83v-57.46h8.46q2.68 0 3.52 2.52m70.34 55.84q-7.5 0-11.51-4.23-4-4.23-4-11.68v-32.09h-5.88q-1.12 0-1.91-.72-.78-.73-.78-2.19v-5.49l9.24-1.51 2.91-15.68q.28-1.12 1.07-1.73.78-.62 2.01-.62h7.17v18.09h15.34v9.85h-15.34v31.14q0 2.69 1.32 4.2 1.31 1.51 3.61 1.51 1.29 0 2.15-.31.87-.3 1.52-.64.64-.34 1.14-.64.51-.31 1.01-.31.62 0 1.01.31.39.3.84.92l4.14 6.72q-3.02 2.52-6.94 3.81t-8.12 1.29m98.78-74.26-3.75 7.11q-.67 1.18-1.43 1.71-.75.53-1.87.53-1.18 0-2.55-.87-1.37-.86-3.28-1.93-1.9-1.06-4.45-1.93t-6.02-.87q-3.13 0-5.49.76-2.35.75-3.94 2.1-1.6 1.34-2.38 3.22-.79 1.87-.79 4.11 0 2.86 1.6 4.76 1.59 1.91 4.23 3.25 2.63 1.35 5.99 2.41t6.89 2.27q3.52 1.2 6.88 2.8 3.36 1.59 6 4.03 2.63 2.44 4.22 5.96 1.6 3.53 1.6 8.57 0 5.49-1.88 10.28-1.87 4.79-5.48 8.34-3.62 3.56-8.82 5.6-5.21 2.05-11.93 2.05-3.87 0-7.62-.76t-7.19-2.16q-3.45-1.4-6.47-3.36-3.03-1.96-5.38-4.36l4.43-7.23q.56-.78 1.45-1.31.9-.54 1.91-.54 1.4 0 3.02 1.15t3.86 2.55 5.24 2.55 7.2 1.15q6.44 0 9.96-3.06 3.53-3.05 3.53-8.76 0-3.19-1.59-5.21-1.6-2.01-4.23-3.39-2.63-1.37-5.99-2.32t-6.84-2.07q-3.47-1.12-6.83-2.69t-5.99-4.09-4.23-6.3q-1.59-3.78-1.59-9.32 0-4.43 1.76-8.63t5.12-7.44q3.36-3.25 8.29-5.21t11.31-1.96q7.17 0 13.22 2.24t10.3 6.27m23.3 38.02h26.1q0-2.68-.76-5.06t-2.27-4.18q-1.51-1.79-3.83-2.82-2.33-1.04-5.41-1.04-5.99 0-9.43 3.42-3.45 3.41-4.4 9.68m35.28 8.35h-35.56q.34 4.42 1.57 7.64t3.25 5.32q2.01 2.1 4.78 3.14 2.78 1.03 6.14 1.03t5.79-.78q2.44-.78 4.26-1.74 1.82-.95 3.19-1.73 1.37-.79 2.66-.79 1.74 0 2.58 1.29l3.97 5.04q-2.29 2.69-5.15 4.51t-5.96 2.91q-3.11 1.09-6.33 1.54t-6.25.45q-5.99 0-11.14-1.99t-8.96-5.88-5.99-9.63q-2.19-5.74-2.19-13.3 0-5.88 1.91-11.06 1.9-5.18 5.46-9.02 3.55-3.83 8.68-6.07 5.12-2.24 11.56-2.24 5.43 0 10.03 1.73 4.59 1.74 7.89 5.07 3.31 3.33 5.18 8.18 1.88 4.84 1.88 11.06 0 3.13-.67 4.23-.68 1.09-2.58 1.09m58.41-23.35-3.64 5.04q-.62.78-1.21 1.23-.58.45-1.7.45-1.07 0-2.08-.65-1-.64-2.4-1.45-1.4-.82-3.34-1.46-1.93-.64-4.78-.64-3.64 0-6.39 1.31-2.74 1.32-4.56 3.78-1.82 2.47-2.72 5.97-.89 3.5-.89 7.92 0 4.59.98 8.18.98 3.58 2.82 6.02 1.85 2.43 4.48 3.69 2.64 1.26 5.94 1.26t5.35-.81q2.04-.81 3.44-1.79t2.44-1.79q1.03-.82 2.32-.82 1.68 0 2.52 1.29l3.98 5.04q-2.3 2.69-4.99 4.51-2.68 1.82-5.57 2.91-2.88 1.09-5.93 1.54-3.06.45-6.08.45-5.32 0-10.02-1.99-4.71-1.99-8.24-5.79-3.52-3.81-5.57-9.33-2.04-5.51-2.04-12.57 0-6.33 1.82-11.73 1.82-5.41 5.35-9.35 3.52-3.95 8.73-6.19t11.99-2.24q6.44 0 11.28 2.07t8.71 5.94m44.85-7.12h13.84v57.46h-8.46q-2.74 0-3.47-2.52l-.95-4.59q-3.53 3.58-7.79 5.79-4.25 2.22-10.02 2.22-4.71 0-8.32-1.6t-6.07-4.51q-2.47-2.91-3.73-6.91-1.26-4.01-1.26-8.82v-36.52h13.83v36.52q0 5.26 2.44 8.14 2.44 2.89 7.31 2.89 3.58 0 6.72-1.6 3.13-1.59 5.93-4.39zm39.71 3.48.84 6.49q2.69-5.15 6.38-8.09 3.7-2.94 8.74-2.94 3.97 0 6.38 1.74l-.89 10.36q-.28 1-.82 1.42-.53.42-1.42.42-.84 0-2.5-.28-1.65-.28-3.22-.28-2.29 0-4.08.68-1.8.67-3.22 1.93-1.43 1.26-2.52 3.05-1.1 1.79-2.05 4.09v35.39h-13.83v-57.46h8.12q2.13 0 2.97.76t1.12 2.72m30.01-3.48h13.89v57.46h-13.89zm15.8-16.74q0 1.79-.73 3.36t-1.93 2.74q-1.21 1.18-2.83 1.88-1.63.7-3.47.7-1.8 0-3.39-.7-1.6-.7-2.77-1.88-1.18-1.17-1.88-2.74t-.7-3.36q0-1.85.7-3.47.7-1.63 1.88-2.8 1.17-1.18 2.77-1.88 1.59-.7 3.39-.7 1.84 0 3.47.7 1.62.7 2.83 1.88 1.2 1.17 1.93 2.8.73 1.62.73 3.47m31.36 75.1q-7.51 0-11.51-4.23-4.01-4.23-4.01-11.68v-32.09h-5.88q-1.12 0-1.9-.72-.78-.73-.78-2.19v-5.49l9.24-1.51 2.91-15.68q.28-1.12 1.06-1.73.79-.62 2.02-.62h7.17v18.09h15.34v9.85h-15.34v31.14q0 2.69 1.31 4.2 1.32 1.51 3.61 1.51 1.29 0 2.16-.31.87-.3 1.51-.64.65-.34 1.15-.64.5-.31 1.01-.31.61 0 1.01.31.39.3.84.92l4.14 6.72q-3.02 2.52-6.94 3.81t-8.12 1.29m63.61-58.36h11.09l-31.3 73.25q-.62 1.46-1.6 2.21-.98.76-3 .76h-10.3l10.75-23.07-23.24-53.15h12.15q1.63 0 2.55.79.93.78 1.37 1.79l12.21 29.79q.62 1.51 1.04 3.03.42 1.51.81 3.08.5-1.57 1.01-3.11.5-1.54 1.12-3.05l11.53-29.74q.45-1.12 1.49-1.85 1.03-.73 2.32-.73"/></svg>